{
.appVersion = "1357";
classes = (
{
code = "u1E8D0 u1E8D1 u1E8D2 u1E8D3 u1E8D4 u1E8D5 u1E8D6";
name = class2;
}
);
copyright = "Copyright 2017-2021 Google Inc. All Rights Reserved.";
customParameters = (
{
name = glyphOrder;
value = (
.notdef,
NULL,
CR,
space,
uni00A0,
u1E800,
u1E801,
u1E802,
u1E803,
u1E804,
u1E805,
u1E806,
u1E807,
u1E808,
u1E809,
u1E80A,
u1E80B,
u1E80C,
u1E80D,
u1E80E,
u1E80F,
u1E810,
u1E811,
u1E812,
u1E813,
u1E814,
u1E815,
u1E816,
u1E817,
u1E818,
u1E819,
u1E81A,
u1E81B,
u1E81C,
u1E81D,
u1E81E,
u1E81F,
u1E820,
u1E821,
u1E822,
u1E823,
u1E824,
u1E825,
u1E826,
u1E827,
u1E828,
u1E829,
u1E82A,
u1E82B,
u1E82C,
u1E82D,
u1E82E,
u1E82F,
u1E830,
u1E831,
u1E832,
u1E833,
u1E834,
u1E835,
u1E836,
u1E837,
u1E838,
u1E839,
u1E83A,
u1E83B,
u1E83C,
u1E83D,
u1E83E,
u1E83F,
u1E840,
u1E841,
u1E842,
u1E843,
u1E844,
u1E845,
u1E846,
u1E847,
u1E848,
u1E849,
u1E84A,
u1E84B,
u1E84C,
u1E84D,
u1E84E,
u1E84F,
u1E850,
u1E851,
u1E852,
u1E853,
u1E854,
u1E855,
u1E856,
u1E857,
u1E858,
u1E859,
u1E85A,
u1E85B,
u1E85C,
u1E85D,
u1E85E,
u1E85F,
u1E860,
u1E861,
u1E862,
u1E863,
u1E864,
u1E865,
u1E866,
u1E867,
u1E868,
u1E869,
u1E86A,
u1E86B,
u1E86C,
u1E86D,
u1E86E,
u1E86F,
u1E870,
u1E871,
u1E872,
u1E873,
u1E874,
u1E875,
u1E876,
u1E877,
u1E878,
u1E879,
u1E87A,
u1E87B,
u1E87C,
u1E87D,
u1E87E,
u1E87F,
u1E880,
u1E881,
u1E882,
u1E883,
u1E884,
u1E885,
u1E886,
u1E887,
u1E888,
u1E889,
u1E88A,
u1E88B,
u1E88C,
u1E88D,
u1E88E,
u1E88F,
u1E890,
u1E891,
u1E892,
u1E893,
u1E894,
u1E895,
u1E896,
u1E897,
u1E898,
u1E899,
u1E89A,
u1E89B,
u1E89C,
u1E89D,
u1E89E,
u1E89F,
u1E8A0,
u1E8A1,
u1E8A2,
u1E8A3,
u1E8A4,
u1E8A5,
u1E8A6,
u1E8A7,
u1E8A8,
u1E8A9,
u1E8AA,
u1E8AB,
u1E8AC,
u1E8AD,
u1E8AE,
u1E8AF,
u1E8B0,
u1E8B1,
u1E8B2,
u1E8B3,
u1E8B4,
u1E8B5,
u1E8B6,
u1E8B7,
u1E8B8,
u1E8B9,
u1E8BA,
u1E8BB,
u1E8BC,
u1E8BD,
u1E8BE,
u1E8BF,
u1E8C0,
u1E8C1,
u1E8C2,
u1E8C3,
u1E8C4,
u1E8C7,
u1E8C8,
u1E8C9,
u1E8CA,
u1E8CB,
u1E8CC,
u1E8CD,
u1E8CE,
u1E8CF,
u1E8D0,
u1E8D1,
u1E8D2,
u1E8D3,
u1E8D4,
u1E8D5,
u1E8D6,
u1E8CA.alt,
u1E8CB.alt,

glyphs = (
{
glyphname = .notdef;
lastChange = "2017-10-24 18:47:33 +0000";
layers = (
{
layerId = UUID0;
paths = (
{
closed = 1;
nodes = (
"505 0 LINE",
"505 714 LINE",
"94 714 LINE",
"94 0 LINE"
);
},
{
closed = 1;
nodes = (
"145 663 LINE",
"454 663 LINE",
"454 51 LINE",
"145 51 LINE"
);
}
);
width = 600;
}
);
},
{
glyphname = u1E800;
lastChange = "2021-12-15 15:11:38 +0000";
layers = (
{
layerId = UUID0;
paths = (
{
closed = 1;
nodes = (
"119 546 LINE",
"109 565 OFFCURVE",
"106 582 OFFCURVE",
"106 597 CURVE SMOOTH",
"106 637 OFFCURVE",
"129 654 OFFCURVE",
"165 654 CURVE SMOOTH",
"239 654 OFFCURVE",
"250 591 OFFCURVE",
"362 591 CURVE SMOOTH",
"395 591 OFFCURVE",
"422 594 OFFCURVE",
"448 608 CURVE",
"204 0 LINE",
"281 0 LINE",
"567 714 LINE",
"501 714 LINE",
"477 669 OFFCURVE",
"418 657 OFFCURVE",
"374 657 CURVE SMOOTH",
"266 657 OFFCURVE",
"266 720 OFFCURVE",
"165 720 CURVE SMOOTH",
"98 720 OFFCURVE",
"30 676 OFFCURVE",
"30 594 CURVE SMOOTH",
"30 570 OFFCURVE",
"35 543 OFFCURVE",
"50 515 CURVE"
);
}
);
width = 597;
}
);
unicode = 1E800;
category = Letter;
},
{
glyphname = u1E804;
lastChange = "2021-12-15 15:11:38 +0000";
layers = (
{
layerId = UUID0;
paths = (
{
closed = 1;
nodes = (
"63 180 LINE",
"226 180 OFFCURVE",
"288 257 OFFCURVE",
"299 336 CURVE",
"732 336 LINE",
"721 287 OFFCURVE",
"672 249 OFFCURVE",
"573 248 CURVE",
"573 180 LINE",
"754 180 OFFCURVE",
"811 275 OFFCURVE",
"811 362 CURVE SMOOTH",
"811 478 OFFCURVE",
"717 552 OFFCURVE",
"573 552 CURVE",
"573 484 LINE",
"652 484 OFFCURVE",
"711 456 OFFCURVE",
"729 400 CURVE",
"297 400 LINE",
"278 494 OFFCURVE",
"190 552 OFFCURVE",
"63 552 CURVE",
"63 484 LINE",
"159 484 OFFCURVE",
"225 443 OFFCURVE",
"225 361 CURVE SMOOTH",
"225 301 OFFCURVE",
"179 250 OFFCURVE",
"63 248 CURVE"
);
},
{
closed = 1;
nodes = (
"167 401 OFFCURVE",
"145 422 OFFCURVE",
"113 422 CURVE SMOOTH",
"82 422 OFFCURVE",
"60 401 OFFCURVE",
"60 368 CURVE SMOOTH",
"60 334 OFFCURVE",
"79 315 OFFCURVE",
"113 315 CURVE SMOOTH",
"145 315 OFFCURVE",
"167 334 OFFCURVE",
"167 368 CURVE SMOOTH"
);
}
);
width = 871;
}
);
unicode = 1E804;
category = Letter;
},
{
glyphname = u1E805;
lastChange = "2021-12-15 15:11:38 +0000";
layers = (
{
layerId = UUID0;
paths = (
{
closed = 1;
nodes = (
"992 267 LINE",
"938 267 LINE SMOOTH",
"806 267 OFFCURVE",
"736 294 OFFCURVE",
"736 368 CURVE SMOOTH",
"736 460 OFFCURVE",
"844 469 OFFCURVE",
"938 469 CURVE SMOOTH",
"992 469 LINE",
"992 537 LINE",
"928 537 LINE SMOOTH",
"809 537 OFFCURVE",
"683 507 OFFCURVE",
"663 400 CURVE",
"379 400 LINE",
"358 507 OFFCURVE",
"233 537 OFFCURVE",
"114 537 CURVE SMOOTH",
"50 537 LINE",
"50 469 LINE",
"104 469 LINE SMOOTH",
"198 469 OFFCURVE",
"306 460 OFFCURVE",
"306 368 CURVE SMOOTH",
"306 294 OFFCURVE",
"236 267 OFFCURVE",
"104 267 CURVE SMOOTH",
"50 267 LINE",
"50 199 LINE",
"114 199 LINE SMOOTH",
"272 199 OFFCURVE",
"362 249 OFFCURVE",
"379 336 CURVE",
"663 336 LINE",
"680 249 OFFCURVE",
"769 199 OFFCURVE",
"928 199 CURVE SMOOTH",
"992 199 LINE"
);
}
);
width = 1042;
}
);
unicode = 1E805;
category = Letter;
},
{
glyphname = u1E806;
lastChange = "2021-12-15 15:11:38 +0000";
layers = (
{
layerId = UUID0;
paths = (
{
closed = 1;
nodes = (
"50 -4 LINE",
"313 37 OFFCURVE",
"524 281 OFFCURVE",
"524 532 CURVE SMOOTH",
"524 625 OFFCURVE",
"467 727 OFFCURVE",
"309 727 CURVE SMOOTH",
"152 727 OFFCURVE",
"93 623 OFFCURVE",
"93 532 CURVE SMOOTH",
"93 422 OFFCURVE",
"162 333 OFFCURVE",
"309 333 CURVE SMOOTH",
"349 333 OFFCURVE",
"383 341 OFFCURVE",
"412 354 CURVE",
"346 215 OFFCURVE",
"207 95 OFFCURVE",
"50 64 CURVE"
);
},
{
closed = 1;
nodes = (
"166 593 OFFCURVE",
"203 658 OFFCURVE",
"308 658 CURVE SMOOTH",
"417 658 OFFCURVE",
"449 593 OFFCURVE",
"449 531 CURVE SMOOTH",
"449 470 OFFCURVE",
"416 400 OFFCURVE",
"308 400 CURVE SMOOTH",
"202 400 OFFCURVE",
"166 470 OFFCURVE",
"166 531 CURVE SMOOTH"
);
},
{
closed = 1;
nodes = (
"268 856 OFFCURVE",
"246 877 OFFCURVE",
"214 877 CURVE SMOOTH",
"183 877 OFFCURVE",
"161 856 OFFCURVE",
"161 823 CURVE SMOOTH",
"161 789 OFFCURVE",
"180 770 OFFCURVE",
"214 770 CURVE SMOOTH",
"246 770 OFFCURVE",
"268 789 OFFCURVE",
"268 823 CURVE SMOOTH"
);
},
{
closed = 1;
nodes = (
"449 856 OFFCURVE",
"426 877 OFFCURVE",
"395 877 CURVE SMOOTH",
"364 877 OFFCURVE",
"342 856 OFFCURVE",
"342 823 CURVE SMOOTH",
"342 789 OFFCURVE",
"361 770 OFFCURVE",
"395 770 CURVE SMOOTH",
"427 770 OFFCURVE",
"449 789 OFFCURVE",
"449 823 CURVE SMOOTH"
);
}
);
width = 574;
}
);
unicode = 1E806;
category = Letter;
},
{
glyphname = u1E807;
lastChange = "2021-12-15 15:11:38 +0000";
layers = (
{
layerId = UUID0;
paths = (
{
closed = 1;
nodes = (
"76 539 OFFCURVE",
"113 494 OFFCURVE",
"162 479 CURVE",
"162 436 LINE",
"64 436 LINE",
"64 378 LINE",
"162 378 LINE",
"162 335 LINE",
"64 335 LINE",
"64 277 LINE",
"162 277 LINE",
"162 223 LINE",
"113 207 OFFCURVE",
"76 162 OFFCURVE",
"76 108 CURVE SMOOTH",
"76 41 OFFCURVE",
"133 -12 OFFCURVE",
"200 -12 CURVE SMOOTH",
"266 -12 OFFCURVE",
"323 41 OFFCURVE",
"323 108 CURVE SMOOTH",
"323 163 OFFCURVE",
"285 208 OFFCURVE",
"236 223 CURVE",
"236 277 LINE",
"334 277 LINE",
"334 335 LINE",
"236 335 LINE",
"236 378 LINE",
"334 378 LINE",
"334 436 LINE",
"236 436 LINE",
"236 478 LINE",
"285 493 OFFCURVE",
"323 538 OFFCURVE",
"323 593 CURVE SMOOTH",
"323 661 OFFCURVE",
"266 714 OFFCURVE",
"200 714 CURVE SMOOTH",
"133 714 OFFCURVE",
"76 661 OFFCURVE",
"76 593 CURVE SMOOTH"
);
},
{
closed = 1;
nodes = (
"142 142 OFFCURVE",
"169 166 OFFCURVE",
"200 166 CURVE SMOOTH",
"231 166 OFFCURVE",
"257 143 OFFCURVE",
"257 109 CURVE SMOOTH",
"257 76 OFFCURVE",
"231 51 OFFCURVE",
"200 51 CURVE SMOOTH",
"169 51 OFFCURVE",
"142 76 OFFCURVE",
"142 109 CURVE SMOOTH"
);
},
{
closed = 1;
nodes = (
"142 627 OFFCURVE",
"169 651 OFFCURVE",
"200 651 CURVE SMOOTH",
"231 651 OFFCURVE",
"257 628 OFFCURVE",
"257 594 CURVE SMOOTH",
"257 561 OFFCURVE",
"231 536 OFFCURVE",
"200 536 CURVE SMOOTH",
"169 536 OFFCURVE",
"142 561 OFFCURVE",
"142 594 CURVE SMOOTH"
);
}
);
width = 398;
}
);
unicode = 1E807;
category = Letter;
},
{
glyphname = u1E808;
lastChange = "2021-12-15 15:11:38 +0000";
layers = (
{
layerId = UUID0;
paths = (
{
closed = 1;
nodes = (
"549 -12 OFFCURVE",
"682 168 OFFCURVE",
"682 357 CURVE SMOOTH",
"682 556 OFFCURVE",
"537 727 OFFCURVE",
"320 727 CURVE SMOOTH",
"211 727 OFFCURVE",
"115 688 OFFCURVE",
"50 617 CURVE",
"95 564 LINE",
"151 625 OFFCURVE",
"241 657 OFFCURVE",
"318 657 CURVE SMOOTH",
"469 657 OFFCURVE",
"606 548 OFFCURVE",
"606 357 CURVE SMOOTH",
"606 181 OFFCURVE",
"487 58 OFFCURVE",
"307 58 CURVE SMOOTH",
"227 58 OFFCURVE",
"139 86 OFFCURVE",
"139 155 CURVE SMOOTH",
"139 200 OFFCURVE",
"189 228 OFFCURVE",
"243 228 CURVE SMOOTH",
"318 228 OFFCURVE",
"379 182 OFFCURVE",
"414 131 CURVE",
"464 179 LINE",
"415 241 OFFCURVE",
"341 296 OFFCURVE",
"247 296 CURVE SMOOTH",
"139 296 OFFCURVE",
"74 239 OFFCURVE",
"74 154 CURVE SMOOTH",
"74 62 OFFCURVE",
"146 -12 OFFCURVE",
"304 -12 CURVE SMOOTH"
);
}
);
width = 742;
}
);
unicode = 1E808;
category = Letter;
},
{
glyphname = u1E80B;
lastChange = "2021-12-15 15:11:38 +0000";
layers = (
{
layerId = UUID0;
paths = (
{
closed = 1;
nodes = (
"90 650 LINE",
"90 40 LINE",
"164 40 LINE",
"164 362 LINE",
"575 362 LINE SMOOTH",
"759 362 OFFCURVE",
"819 460 OFFCURVE",
"819 566 CURVE SMOOTH",
"819 573 OFFCURVE",
"819 579 OFFCURVE",
"818 586 CURVE",
"742 586 LINE",
"743 580 OFFCURVE",
"743 573 OFFCURVE",
"743 566 CURVE SMOOTH",
"743 492 OFFCURVE",
"703 430 OFFCURVE",
"571 430 CURVE SMOOTH",
"164 430 LINE",
"164 650 LINE"
);
},
{
closed = 1;
nodes = (
"470 274 OFFCURVE",
"448 295 OFFCURVE",
"416 295 CURVE SMOOTH",
"385 295 OFFCURVE",
"363 274 OFFCURVE",
"363 241 CURVE SMOOTH",
"363 207 OFFCURVE",
"382 188 OFFCURVE",
"416 188 CURVE SMOOTH",
"448 188 OFFCURVE",
"470 207 OFFCURVE",
"470 241 CURVE SMOOTH"
);
},
{
closed = 1;
nodes = (
"470 584 OFFCURVE",
"448 605 OFFCURVE",
"416 605 CURVE SMOOTH",
"385 605 OFFCURVE",
"363 584 OFFCURVE",
"363 551 CURVE SMOOTH",
"363 517 OFFCURVE",
"382 498 OFFCURVE",
"416 498 CURVE SMOOTH",
"448 498 OFFCURVE",
"470 517 OFFCURVE",
"470 551 CURVE SMOOTH"
);
}
);
width = 859;
}
);
unicode = 1E80B;
category = Letter;
},
{
glyphname = u1E80C;
lastChange = "2021-12-15 15:11:38 +0000";
layers = (
{
layerId = UUID0;
paths = (
{
closed = 1;
nodes = (
"879 542 LINE",
"880 536 OFFCURVE",
"880 529 OFFCURVE",
"880 522 CURVE SMOOTH",
"880 448 OFFCURVE",
"840 386 OFFCURVE",
"708 386 CURVE SMOOTH",
"345 386 LINE",
"352 407 OFFCURVE",
"357 426 OFFCURVE",
"357 451 CURVE SMOOTH",
"357 532 OFFCURVE",
"288 594 OFFCURVE",
"211 594 CURVE SMOOTH",
"134 594 OFFCURVE",
"67 531 OFFCURVE",
"67 452 CURVE SMOOTH",
"67 364 OFFCURVE",
"134 312 OFFCURVE",
"211 312 CURVE SMOOTH",
"217 312 OFFCURVE",
"224 312 OFFCURVE",
"231 313 CURVE",
"185 246 OFFCURVE",
"122 189 OFFCURVE",
"50 150 CURVE",
"81 93 LINE",
"166 141 OFFCURVE",
"258 231 OFFCURVE",
"311 318 CURVE",
"712 318 LINE SMOOTH",
"896 318 OFFCURVE",
"956 416 OFFCURVE",
"956 522 CURVE SMOOTH",
"956 529 OFFCURVE",
"956 535 OFFCURVE",
"955 542 CURVE"
);
},
{
closed = 1;
nodes = (
"136 495 OFFCURVE",
"171 529 OFFCURVE",
"211 529 CURVE SMOOTH",
"253 529 OFFCURVE",
"288 496 OFFCURVE",
"288 451 CURVE SMOOTH",
"288 400 OFFCURVE",
"253 376 OFFCURVE",
"211 376 CURVE SMOOTH",
"171 376 OFFCURVE",
"136 400 OFFCURVE",
"136 451 CURVE SMOOTH"
);
},
{
closed = 1;
nodes = (
"417 133 LINE",
"600 39 LINE",
"623 97 LINE",
"480 164 LINE",
"623 230 LINE",
"600 286 LINE",
"417 192 LINE"
);
}
);
width = 996;
}
);
unicode = 1E80C;
category = Letter;
},
{
glyphname = u1E80D;
lastChange = "2021-12-15 15:11:38 +0000";
layers = (
{
layerId = UUID0;
paths = (
{
closed = 1;
nodes = (
"744 238 LINE",
"434 238 LINE",
"434 460 LINE",
"744 460 LINE",
"744 528 LINE",
"434 528 LINE",
"434 714 LINE",
"360 714 LINE",
"360 528 LINE",
"50 528 LINE",
"50 460 LINE",
"360 460 LINE",
"360 238 LINE",
"50 238 LINE",
"50 170 LINE",
"360 170 LINE",
"360 0 LINE",
"434 0 LINE",
"434 170 LINE",
"744 170 LINE"
);
}
);
width = 794;
}
);
unicode = 1E80D;
category = Letter;
},
{
glyphname = u1E80E;
lastChange = "2021-12-15 15:11:38 +0000";
layers = (
{
layerId = UUID0;
paths = (
{
closed = 1;
nodes = (
"549 -12 OFFCURVE",
"682 168 OFFCURVE",
"682 357 CURVE SMOOTH",
"682 441 OFFCURVE",
"657 516 OFFCURVE",
"612 580 CURVE",
"719 667 LINE",
"678 715 LINE",
"570 628 LINE",
"507 689 OFFCURVE",
"423 727 OFFCURVE",
"320 727 CURVE SMOOTH",
"211 727 OFFCURVE",
"115 688 OFFCURVE",
"50 617 CURVE",
"95 564 LINE",
"151 625 OFFCURVE",
"241 657 OFFCURVE",
"318 657 CURVE SMOOTH",
"391 657 OFFCURVE",
"461 631 OFFCURVE",
"514 582 CURVE",
"327 431 LINE",
"368 383 LINE",
"555 534 LINE",
"587 487 OFFCURVE",
"606 429 OFFCURVE",
"606 357 CURVE SMOOTH",
"606 181 OFFCURVE",
"487 58 OFFCURVE",
"307 58 CURVE SMOOTH",
"227 58 OFFCURVE",
"139 86 OFFCURVE",
"139 155 CURVE SMOOTH",
"139 200 OFFCURVE",
"189 228 OFFCURVE",
"243 228 CURVE SMOOTH",
"318 228 OFFCURVE",
"379 182 OFFCURVE",
"414 131 CURVE",
"464 179 LINE",
"415 241 OFFCURVE",
"341 296 OFFCURVE",
"247 296 CURVE SMOOTH",
"139 296 OFFCURVE",
"74 239 OFFCURVE",
"74 154 CURVE SMOOTH",
"74 62 OFFCURVE",
"146 -12 OFFCURVE",
"304 -12 CURVE SMOOTH"
);
}
);
width = 742;
}
);
unicode = 1E80E;
category = Letter;
},
{
glyphname = u1E80F;
lastChange = "2021-12-15 15:11:38 +0000";
layers = (
{
layerId = UUID0;
paths = (
{
closed = 1;
nodes = (
"936 386 LINE",
"345 386 LINE",
"352 407 OFFCURVE",
"357 425 OFFCURVE",
"357 451 CURVE SMOOTH",
"357 531 OFFCURVE",
"289 594 OFFCURVE",
"211 594 CURVE SMOOTH",
"134 594 OFFCURVE",
"67 531 OFFCURVE",
"67 452 CURVE SMOOTH",
"67 364 OFFCURVE",
"134 312 OFFCURVE",
"211 312 CURVE SMOOTH",
"217 312 OFFCURVE",
"224 312 OFFCURVE",
"231 313 CURVE",
"185 246 OFFCURVE",
"122 189 OFFCURVE",
"50 150 CURVE",
"81 93 LINE",
"166 141 OFFCURVE",
"258 231 OFFCURVE",
"311 318 CURVE",
"936 318 LINE"
);
},
{
closed = 1;
nodes = (
"136 495 OFFCURVE",
"171 529 OFFCURVE",
"211 529 CURVE SMOOTH",
"253 529 OFFCURVE",
"288 496 OFFCURVE",
"288 451 CURVE SMOOTH",
"288 400 OFFCURVE",
"253 376 OFFCURVE",
"211 376 CURVE SMOOTH",
"171 376 OFFCURVE",
"136 400 OFFCURVE",
"136 451 CURVE SMOOTH"
);
},
{
closed = 1;
nodes = (
"447 133 LINE",
"630 39 LINE",
"653 97 LINE",
"510 164 LINE",
"653 230 LINE",
"630 286 LINE",
"447 192 LINE"
);
},
{
closed = 1;
nodes = (
"447 503 LINE",
"630 409 LINE",
"653 467 LINE",
"510 534 LINE",
"653 600 LINE",
"630 656 LINE",
"447 562 LINE"
);
}
);
width = 976;
}
);
unicode = 1E80F;
category = Letter;
},
{
glyphname = u1E810;
lastChange = "2021-12-15 15:11:38 +0000";
layers = (
{
layerId = UUID0;
paths = (
{
closed = 1;
nodes = (
"544 -12 OFFCURVE",
"677 160 OFFCURVE",
"682 346 CURVE",
"730 346 LINE",
"742 291 OFFCURVE",
"792 252 OFFCURVE",
"851 252 CURVE SMOOTH",
"917 252 OFFCURVE",
"974 305 OFFCURVE",
"974 372 CURVE SMOOTH",
"974 440 OFFCURVE",
"917 493 OFFCURVE",
"851 493 CURVE SMOOTH",
"795 493 OFFCURVE",
"746 456 OFFCURVE",
"731 404 CURVE",
"679 404 LINE",
"658 582 OFFCURVE",
"520 727 OFFCURVE",
"320 727 CURVE SMOOTH",
"211 727 OFFCURVE",
"115 688 OFFCURVE",
"50 617 CURVE",
"95 564 LINE",
"151 625 OFFCURVE",
"241 657 OFFCURVE",
"318 657 CURVE SMOOTH",
"457 657 OFFCURVE",
"582 566 OFFCURVE",
"603 404 CURVE",
"330 404 LINE",
"330 346 LINE",
"606 346 LINE",
"601 175 OFFCURVE",
"484 58 OFFCURVE",
"307 58 CURVE SMOOTH",
"227 58 OFFCURVE",
"139 86 OFFCURVE",
"139 155 CURVE SMOOTH",
"139 200 OFFCURVE",
"189 228 OFFCURVE",
"243 228 CURVE SMOOTH",
"318 228 OFFCURVE",
"379 182 OFFCURVE",
"414 131 CURVE",
"464 179 LINE",
"415 241 OFFCURVE",
"341 296 OFFCURVE",
"247 296 CURVE SMOOTH",
"139 296 OFFCURVE",
"74 239 OFFCURVE",
"74 154 CURVE SMOOTH",
"74 62 OFFCURVE",
"146 -12 OFFCURVE",
"304 -12 CURVE SMOOTH"
);
},
{
closed = 1;
nodes = (
"820 315 OFFCURVE",
"793 340 OFFCURVE",
"793 373 CURVE SMOOTH",
"793 406 OFFCURVE",
"820 430 OFFCURVE",
"851 430 CURVE SMOOTH",
"882 430 OFFCURVE",
"908 408 OFFCURVE",
"908 373 CURVE SMOOTH",
"908 340 OFFCURVE",
"882 315 OFFCURVE",
"851 315 CURVE SMOOTH"
);
}
);
width = 1004;
}
);
unicode = 1E810;
category = Letter;
},
{
glyphname = u1E811;
lastChange = "2021-12-15 15:11:38 +0000";
layers = (
{
layerId = UUID0;
paths = (
{
closed = 1;
nodes = (
"60 229 OFFCURVE",
"171 119 OFFCURVE",
"308 119 CURVE SMOOTH",
"433 119 OFFCURVE",
"536 211 OFFCURVE",
"552 332 CURVE",
"1000 332 LINE",
"1014 271 OFFCURVE",
"1071 226 OFFCURVE",
"1136 226 CURVE SMOOTH",
"1211 226 OFFCURVE",
"1275 286 OFFCURVE",
"1275 361 CURVE SMOOTH",
"1275 437 OFFCURVE",
"1211 497 OFFCURVE",
"1136 497 CURVE SMOOTH",
"1074 497 OFFCURVE",
"1020 456 OFFCURVE",
"1003 400 CURVE",
"552 400 LINE",
"535 520 OFFCURVE",
"432 613 OFFCURVE",
"308 613 CURVE SMOOTH",
"171 613 OFFCURVE",
"60 502 OFFCURVE",
"60 365 CURVE SMOOTH"
);
},
{
closed = 1;
nodes = (
"269 286 OFFCURVE",
"333 226 OFFCURVE",
"408 226 CURVE SMOOTH",
"416 226 LINE",
"386 202 OFFCURVE",
"349 189 OFFCURVE",
"308 189 CURVE SMOOTH",
"215 189 OFFCURVE",
"136 262 OFFCURVE",
"136 364 CURVE SMOOTH",
"136 469 OFFCURVE",
"215 543 OFFCURVE",
"308 543 CURVE SMOOTH",
"354 543 OFFCURVE",
"395 525 OFFCURVE",
"426 496 CURVE",
"420 497 OFFCURVE",
"414 497 OFFCURVE",
"408 497 CURVE SMOOTH",
"333 497 OFFCURVE",
"269 437 OFFCURVE",
"269 361 CURVE SMOOTH"
);
},
{
closed = 1;
nodes = (
"1066 401 OFFCURVE",
"1098 432 OFFCURVE",
"1136 432 CURVE SMOOTH",
"1174 432 OFFCURVE",
"1206 402 OFFCURVE",
"1206 361 CURVE SMOOTH",
"1206 322 OFFCURVE",
"1174 291 OFFCURVE",
"1136 291 CURVE SMOOTH",
"1098 291 OFFCURVE",
"1066 322 OFFCURVE",
"1066 361 CURVE SMOOTH"
);
},
{
closed = 1;
nodes = (
"338 401 OFFCURVE",
"370 432 OFFCURVE",
"408 432 CURVE SMOOTH",
"446 432 OFFCURVE",
"478 402 OFFCURVE",
"478 361 CURVE SMOOTH",
"478 322 OFFCURVE",
"446 291 OFFCURVE",
"408 291 CURVE SMOOTH",
"370 291 OFFCURVE",
"338 322 OFFCURVE",
"338 361 CURVE SMOOTH"
);
}
);
width = 1315;
}
);
unicode = 1E811;
category = Letter;
},
{
glyphname = u1E812;
lastChange = "2021-12-15 15:11:38 +0000";
layers = (
{
layerId = UUID0;
paths = (
{
closed = 1;
nodes = (
"549 -12 OFFCURVE",
"682 168 OFFCURVE",
"682 357 CURVE SMOOTH",
"682 364 LINE",
"773 364 LINE",
"773 308 LINE",
"841 308 LINE",
"841 477 LINE",
"773 477 LINE",
"773 422 LINE",
"676 422 LINE",
"647 592 OFFCURVE",
"514 727 OFFCURVE",
"320 727 CURVE SMOOTH",
"211 727 OFFCURVE",
"115 688 OFFCURVE",
"50 617 CURVE",
"95 564 LINE",
"151 625 OFFCURVE",
"241 657 OFFCURVE",
"318 657 CURVE SMOOTH",
"451 657 OFFCURVE",
"573 572 OFFCURVE",
"600 422 CURVE",
"491 422 LINE",
"491 477 LINE",
"423 477 LINE",
"423 308 LINE",
"491 308 LINE",
"491 364 LINE",
"605 364 LINE",
"605 361 OFFCURVE",
"606 360 OFFCURVE",
"606 357 CURVE SMOOTH",
"606 181 OFFCURVE",
"487 58 OFFCURVE",
"307 58 CURVE SMOOTH",
"227 58 OFFCURVE",
"139 86 OFFCURVE",
"139 155 CURVE SMOOTH",
"139 200 OFFCURVE",
"189 228 OFFCURVE",
"243 228 CURVE SMOOTH",
"318 228 OFFCURVE",
"379 182 OFFCURVE",
"414 131 CURVE",
"464 179 LINE",
"415 241 OFFCURVE",
"341 296 OFFCURVE",
"247 296 CURVE SMOOTH",
"139 296 OFFCURVE",
"74 239 OFFCURVE",
"74 154 CURVE SMOOTH",
"74 62 OFFCURVE",
"146 -12 OFFCURVE",
"304 -12 CURVE SMOOTH"
);
}
);
width = 871;
}
);
unicode = 1E812;
category = Letter;
},
{
glyphname = u1E813;
lastChange = "2021-12-15 15:11:38 +0000";
layers = (
{
layerId = UUID0;
paths = (
{
closed = 1;
nodes = (
"384 714 LINE",
"384 394 LINE",
"191 405 OFFCURVE",
"126 515 OFFCURVE",
"126 714 CURVE",
"50 714 LINE",
"50 544 OFFCURVE",
"108 416 OFFCURVE",
"238 358 CURVE",
"108 300 OFFCURVE",
"50 170 OFFCURVE",
"50 0 CURVE",
"126 0 LINE",
"126 199 OFFCURVE",
"191 312 OFFCURVE",
"384 324 CURVE",
"384 0 LINE",
"458 0 LINE",
"458 714 LINE"
);
},
{
closed = 1;
nodes = (
"325 615 OFFCURVE",
"303 636 OFFCURVE",
"271 636 CURVE SMOOTH",
"240 636 OFFCURVE",
"218 615 OFFCURVE",
"218 582 CURVE SMOOTH",
"218 548 OFFCURVE",
"237 529 OFFCURVE",
"271 529 CURVE SMOOTH",
"303 529 OFFCURVE",
"325 548 OFFCURVE",
"325 582 CURVE SMOOTH"
);
}
);
width = 548;
}
);
unicode = 1E813;
category = Letter;
},
{
glyphname = u1E814;
lastChange = "2021-12-15 15:11:38 +0000";
layers = (
{
layerId = UUID0;
paths = (
{
closed = 1;
nodes = (
"134 0 LINE",
"156 119 OFFCURVE",
"202 220 OFFCURVE",
"274 282 CURVE",
"296 205 OFFCURVE",
"346 142 OFFCURVE",
"442 142 CURVE SMOOTH",
"530 142 OFFCURVE",
"586 199 OFFCURVE",
"586 274 CURVE SMOOTH",
"586 350 OFFCURVE",
"530 412 OFFCURVE",
"442 412 CURVE SMOOTH",
"406 412 OFFCURVE",
"369 407 OFFCURVE",
"334 393 CURVE",
"334 417 LINE SMOOTH",
"334 519 OFFCURVE",
"369 625 OFFCURVE",
"425 700 CURVE",
"365 737 LINE",
"297 650 OFFCURVE",
"258 521 OFFCURVE",
"258 402 CURVE SMOOTH",
"258 386 OFFCURVE",
"258 371 OFFCURVE",
"260 355 CURVE",
"150 280 OFFCURVE",
"84 140 OFFCURVE",
"60 0 CURVE"
);
},
{
closed = 1;
nodes = (
"512 235 OFFCURVE",
"480 210 OFFCURVE",
"445 210 CURVE SMOOTH",
"392 210 OFFCURVE",
"356 247 OFFCURVE",
"341 324 CURVE",
"373 337 OFFCURVE",
"399 344 OFFCURVE",
"437 344 CURVE SMOOTH",
"488 344 OFFCURVE",
"512 305 OFFCURVE",
"512 274 CURVE SMOOTH"
);
}
);
width = 626;
}
);
unicode = 1E814;
category = Letter;
},
{
glyphname = u1E818;
lastChange = "2021-12-15 15:11:38 +0000";
layers = (
{
layerId = UUID0;
paths = (
{
closed = 1;
nodes = (
"118 460 LINE",
"50 460 LINE",
"50 232 LINE",
"118 232 LINE",
"118 322 LINE",
"183 322 LINE",
"204 186 OFFCURVE",
"323 85 OFFCURVE",
"463 85 CURVE SMOOTH",
"605 85 OFFCURVE",
"723 186 OFFCURVE",
"745 322 CURVE",
"810 322 LINE",
"810 232 LINE",
"878 232 LINE",
"878 460 LINE",
"810 460 LINE",
"810 380 LINE",
"748 380 LINE",
"740 529 OFFCURVE",
"615 650 OFFCURVE",
"463 650 CURVE SMOOTH",
"312 650 OFFCURVE",
"187 529 OFFCURVE",
"180 380 CURVE",
"118 380 LINE"
);
},
{
closed = 1;
nodes = (
"569 580 OFFCURVE",
"664 495 OFFCURVE",
"671 380 CURVE",
"256 380 LINE",
"263 495 OFFCURVE",
"358 580 OFFCURVE",
"463 580 CURVE SMOOTH"
);
},
{
closed = 1;
nodes = (
"368 155 OFFCURVE",
"281 224 OFFCURVE",
"260 322 CURVE",
"667 322 LINE",
"647 224 OFFCURVE",
"560 155 OFFCURVE",
"463 155 CURVE SMOOTH"
);
}
);
width = 928;
}
);
unicode = 1E818;
category = Letter;
},
{
glyphname = u1E819;
lastChange = "2021-12-15 15:11:38 +0000";
layers = (
{
layerId = UUID0;
paths = (
{
closed = 1;
nodes = (
"292 340 LINE",
"440 0 LINE",
"523 0 LINE",
"401 270 LINE",
"568 274 OFFCURVE",
"703 354 OFFCURVE",
"703 495 CURVE SMOOTH",
"703 543 OFFCURVE",
"679 613 OFFCURVE",
"556 613 CURVE SMOOTH",
"442 613 OFFCURVE",
"344 563 OFFCURVE",
"263 494 CURVE",
"326 714 LINE",
"251 714 LINE",
"50 0 LINE",
"124 0 LINE",
"227 365 LINE",
"331 510 OFFCURVE",
"477 543 OFFCURVE",
"545 543 CURVE SMOOTH",
"611 543 OFFCURVE",
"627 519 OFFCURVE",
"627 488 CURVE SMOOTH",
"627 394 OFFCURVE",
"522 340 OFFCURVE",
"387 340 CURVE"
);
}
);
width = 743;
}
);
unicode = 1E819;
category = Letter;
},
{
glyphname = u1E81A;
lastChange = "2021-12-15 15:11:38 +0000";
layers = (
{
layerId = UUID0;
paths = (
{
closed = 1;
nodes = (
"352 170 LINE",
"352 162 LINE SMOOTH",
"352 74 OFFCURVE",
"308 45 OFFCURVE",
"256 45 CURVE SMOOTH",
"184 45 OFFCURVE",
"164 85 OFFCURVE",
"164 150 CURVE SMOOTH",
"164 714 LINE",
"90 714 LINE",
"90 150 LINE SMOOTH",
"90 34 OFFCURVE",
"145 -20 OFFCURVE",
"250 -20 CURVE SMOOTH",
"345 -20 OFFCURVE",
"426 31 OFFCURVE",
"426 162 CURVE SMOOTH",
"426 170 LINE"
);
}
);
width = 476;
}
);
unicode = 1E81A;
category = Letter;
},
{
glyphname = u1E81B;
lastChange = "2021-12-15 15:11:38 +0000";
layers = (
{
layerId = UUID0;
paths = (
{
closed = 1;
nodes = (
"311 714 LINE",
"311 650 LINE",
"277 650 LINE SMOOTH",
"204 650 OFFCURVE",
"50 634 OFFCURVE",
"50 490 CURVE SMOOTH",
"50 433 OFFCURVE",
"86 392 OFFCURVE",
"135 366 CURVE",
"86 340 OFFCURVE",
"50 299 OFFCURVE",
"50 242 CURVE SMOOTH",
"50 98 OFFCURVE",
"204 82 OFFCURVE",
"277 82 CURVE SMOOTH",
"311 82 LINE",
"311 0 LINE",
"385 0 LINE",
"385 714 LINE"
);
},
{
closed = 1;
nodes = (
"126 576 OFFCURVE",
"215 582 OFFCURVE",
"278 582 CURVE SMOOTH",
"311 582 LINE",
"311 400 LINE",
"279 400 LINE SMOOTH",
"205 400 OFFCURVE",
"126 409 OFFCURVE",
"126 493 CURVE SMOOTH"
);
},
{
closed = 1;
nodes = (
"126 322 OFFCURVE",
"204 332 OFFCURVE",
"278 332 CURVE SMOOTH",
"311 332 LINE",
"311 150 LINE",
"278 150 LINE SMOOTH",
"215 150 OFFCURVE",
"126 156 OFFCURVE",
"126 239 CURVE SMOOTH"
);
}
);
width = 475;
}
);
unicode = 1E81B;
category = Letter;
},
{
glyphname = u1E81E;
lastChange = "2021-12-15 15:11:38 +0000";
layers = (
{
layerId = UUID0;
paths = (
{
closed = 1;
nodes = (
"173 238 LINE",
"108 214 OFFCURVE",
"50 177 OFFCURVE",
"50 97 CURVE SMOOTH",
"50 19 OFFCURVE",
"106 -30 OFFCURVE",
"235 -30 CURVE SMOOTH",
"422 -30 OFFCURVE",
"523 83 OFFCURVE",
"523 214 CURVE SMOOTH",
"523 309 OFFCURVE",
"460 384 OFFCURVE",
"304 385 CURVE",
"304 714 LINE",
"230 714 LINE",
"230 315 LINE",
"301 315 LINE SMOOTH",
"410 315 OFFCURVE",
"447 273 OFFCURVE",
"447 214 CURVE SMOOTH",
"447 90 OFFCURVE",
"342 40 OFFCURVE",
"241 40 CURVE SMOOTH",
"173 40 OFFCURVE",
"126 50 OFFCURVE",
"126 106 CURVE SMOOTH",
"126 137 OFFCURVE",
"163 161 OFFCURVE",
"202 176 CURVE"
);
}
);
width = 573;
}
);
unicode = 1E81E;
category = Letter;
},
{
glyphname = u1E81F;
lastChange = "2021-12-15 15:11:38 +0000";
layers = (
{
layerId = UUID0;
paths = (
{
closed = 1;
nodes = (
"370 720 LINE",
"20 0 LINE",
"102 0 LINE",
"407 640 LINE",
"712 0 LINE",
"794 0 LINE",
"444 720 LINE"
);
},
{
closed = 1;
nodes = (
"462 273 OFFCURVE",
"440 294 OFFCURVE",
"408 294 CURVE SMOOTH",
"377 294 OFFCURVE",
"355 273 OFFCURVE",
"355 240 CURVE SMOOTH",
"355 206 OFFCURVE",
"374 187 OFFCURVE",
"408 187 CURVE SMOOTH",
"440 187 OFFCURVE",
"462 206 OFFCURVE",
"462 240 CURVE SMOOTH"
);
}
);
width = 814;
}
);
unicode = 1E81F;
category = Letter;
},
{
glyphname = u1E821;
lastChange = "2021-12-15 15:11:38 +0000";
layers = (
{
layerId = UUID0;
paths = (
{
closed = 1;
nodes = (
"584 650 LINE",
"584 400 LINE",
"164 400 LINE",
"164 650 LINE",
"90 650 LINE",
"90 40 LINE",
"164 40 LINE",
"164 332 LINE",
"584 332 LINE",
"584 40 LINE",
"658 40 LINE",
"658 650 LINE"
);
},
{
closed = 1;
nodes = (
"427 231 OFFCURVE",
"405 252 OFFCURVE",
"373 252 CURVE SMOOTH",
"342 252 OFFCURVE",
"320 231 OFFCURVE",
"320 198 CURVE SMOOTH",
"320 164 OFFCURVE",
"339 145 OFFCURVE",
"373 145 CURVE SMOOTH",
"405 145 OFFCURVE",
"427 164 OFFCURVE",
"427 198 CURVE SMOOTH"
);
}
);
width = 748;
}
);
unicode = 1E821;
category = Letter;
},
{
glyphname = u1E822;
lastChange = "2021-12-15 15:11:38 +0000";
layers = (
{
layerId = UUID0;
paths = (
{
closed = 1;
nodes = (
"100 714 LINE",
"100 0 LINE",
"174 0 LINE",
"174 714 LINE"
);
}
);
width = 274;
}
);
unicode = 1E822;
category = Letter;
},
{
glyphname = u1E825;
lastChange = "2021-12-15 15:11:38 +0000";
layers = (
{
layerId = UUID0;
paths = (
{
closed = 1;
nodes = (
"978 400 LINE",
"40 400 LINE",
"40 332 LINE",
"978 332 LINE"
);
},
{
closed = 1;
nodes = (
"563 205 OFFCURVE",
"541 226 OFFCURVE",
"509 226 CURVE SMOOTH",
"478 226 OFFCURVE",
"456 205 OFFCURVE",
"456 172 CURVE SMOOTH",
"456 138 OFFCURVE",
"475 119 OFFCURVE",
"509 119 CURVE SMOOTH",
"541 119 OFFCURVE",
"563 138 OFFCURVE",
"563 172 CURVE SMOOTH"
);
}
);
width = 1018;
}
);
unicode = 1E825;
category = Letter;
},
{
glyphname = u1E826;
lastChange = "2021-12-15 15:11:38 +0000";
layers = (
{
layerId = UUID0;
paths = (
{
closed = 1;
nodes = (
"100 650 LINE",
"100 0 LINE",
"174 0 LINE",
"174 650 LINE"
);
},
{
closed = 1;
nodes = (
"237 826 LINE",
"54 920 LINE",
"31 864 LINE",
"174 798 LINE",
"31 731 LINE",
"54 673 LINE",
"237 767 LINE"
);
}
);
width = 274;
}
);
unicode = 1E826;
category = Letter;
},
{
glyphname = u1E827;
lastChange = "2021-12-15 15:11:38 +0000";
layers = (
{
layerId = UUID0;
paths = (
{
closed = 1;
nodes = (
"60 209 OFFCURVE",
"188 85 OFFCURVE",
"343 85 CURVE SMOOTH",
"500 85 OFFCURVE",
"628 209 OFFCURVE",
"628 366 CURVE SMOOTH",
"628 522 OFFCURVE",
"500 650 OFFCURVE",
"343 650 CURVE SMOOTH",
"188 650 OFFCURVE",
"60 522 OFFCURVE",
"60 366 CURVE SMOOTH"
);
},
{
closed = 1;
nodes = (
"136 488 OFFCURVE",
"234 580 OFFCURVE",
"343 580 CURVE SMOOTH",
"454 580 OFFCURVE",
"552 488 OFFCURVE",
"552 366 CURVE SMOOTH",
"552 246 OFFCURVE",
"454 155 OFFCURVE",
"343 155 CURVE SMOOTH",
"234 155 OFFCURVE",
"136 246 OFFCURVE",
"136 366 CURVE SMOOTH"
);
}
);
width = 688;
}
);
unicode = 1E827;
category = Letter;
},
{
glyphname = u1E828;
lastChange = "2021-12-15 15:11:38 +0000";
layers = (
{
layerId = UUID0;
paths = (
{
closed = 1;
nodes = (
"940 400 LINE",
"519 400 LINE",
"531 575 OFFCURVE",
"672 625 OFFCURVE",
"763 625 CURVE SMOOTH",
"820 625 OFFCURVE",
"848 616 OFFCURVE",
"887 599 CURVE",
"928 655 LINE",
"893 675 OFFCURVE",
"846 695 OFFCURVE",
"756 695 CURVE SMOOTH",
"618 695 OFFCURVE",
"454 591 OFFCURVE",
"443 400 CURVE",
"40 400 LINE",
"40 332 LINE",
"443 332 LINE",
"456 142 OFFCURVE",
"618 40 OFFCURVE",
"756 40 CURVE SMOOTH",
"846 40 OFFCURVE",
"893 60 OFFCURVE",
"928 80 CURVE",
"887 136 LINE",
"848 119 OFFCURVE",
"820 110 OFFCURVE",
"763 110 CURVE SMOOTH",
"672 110 OFFCURVE",
"532 159 OFFCURVE",
"519 332 CURVE",
"940 332 LINE"
);
},
{
closed = 1;
nodes = (
"330 565 OFFCURVE",
"308 586 OFFCURVE",
"276 586 CURVE SMOOTH",
"245 586 OFFCURVE",
"223 565 OFFCURVE",
"223 532 CURVE SMOOTH",
"223 498 OFFCURVE",
"242 479 OFFCURVE",
"276 479 CURVE SMOOTH",
"308 479 OFFCURVE",
"330 498 OFFCURVE",
"330 532 CURVE SMOOTH"
);
}
);
width = 980;
}
);
unicode = 1E828;
category = Letter;
},
{
glyphname = u1E82A;
lastChange = "2021-12-15 15:11:38 +0000";
layers = (
{
layerId = UUID0;
paths = (
{
closed = 1;
nodes = (
"50 281 OFFCURVE",
"103 221 OFFCURVE",
"172 204 CURVE",
"172 134 LINE",
"64 134 LINE",
"64 76 LINE",
"172 76 LINE",
"172 0 LINE",
"246 0 LINE",
"246 76 LINE",
"354 76 LINE",
"354 134 LINE",
"246 134 LINE",
"246 204 LINE",
"315 221 OFFCURVE",
"368 281 OFFCURVE",
"368 355 CURVE SMOOTH",
"368 428 OFFCURVE",
"315 489 OFFCURVE",
"246 505 CURVE",
"246 565 LINE",
"354 565 LINE",
"354 623 LINE",
"246 623 LINE",
"246 714 LINE",
"172 714 LINE",
"172 623 LINE",
"64 623 LINE",
"64 565 LINE",
"172 565 LINE",
"172 505 LINE",
"103 489 OFFCURVE",
"50 428 OFFCURVE",
"50 355 CURVE SMOOTH"
);
},
{
closed = 1;
nodes = (
"119 405 OFFCURVE",
"159 445 OFFCURVE",
"209 445 CURVE SMOOTH",
"259 445 OFFCURVE",
"299 405 OFFCURVE",
"299 355 CURVE SMOOTH",
"299 305 OFFCURVE",
"259 265 OFFCURVE",
"209 265 CURVE SMOOTH",
"159 265 OFFCURVE",
"119 305 OFFCURVE",
"119 355 CURVE SMOOTH"
);
}
);
width = 418;
}
);
unicode = 1E82A;
category = Letter;
},
{
glyphname = u1E82D;
lastChange = "2021-12-15 15:11:38 +0000";
layers = (
{
layerId = UUID0;
paths = (
{
closed = 1;
nodes = (
"804 333 LINE",
"632 333 LINE",
"444 720 LINE",
"370 720 LINE",
"182 333 LINE",
"10 333 LINE",
"10 265 LINE",
"149 265 LINE",
"20 0 LINE",
"102 0 LINE",
"228 265 LINE",
"586 265 LINE",
"712 0 LINE",
"794 0 LINE",
"665 265 LINE",
"804 265 LINE"
);
},
{
closed = 1;
nodes = (
"407 640 LINE",
"553 333 LINE",
"260 333 LINE"
);
},
{
closed = 1;
nodes = (
"165 634 OFFCURVE",
"143 655 OFFCURVE",
"111 655 CURVE SMOOTH",
"80 655 OFFCURVE",
"58 634 OFFCURVE",
"58 601 CURVE SMOOTH",
"58 567 OFFCURVE",
"77 548 OFFCURVE",
"111 548 CURVE SMOOTH",
"143 548 OFFCURVE",
"165 567 OFFCURVE",
"165 601 CURVE SMOOTH"
);
}
);
width = 814;
}
);
unicode = 1E82D;
category = Letter;
},
{
glyphname = u1E831;
lastChange = "2021-12-15 15:11:38 +0000";
layers = (
{
layerId = UUID0;
paths = (
{
closed = 1;
nodes = (
"90 555 LINE",
"90 130 LINE",
"164 130 LINE",
"164 307 LINE",
"296 307 LINE",
"296 130 LINE",
"370 130 LINE",
"370 307 LINE",
"502 307 LINE",
"502 130 LINE",
"576 130 LINE",
"576 307 LINE",
"680 307 LINE",
"694 246 OFFCURVE",
"751 201 OFFCURVE",
"816 201 CURVE SMOOTH",
"891 201 OFFCURVE",
"955 261 OFFCURVE",
"955 336 CURVE SMOOTH",
"955 412 OFFCURVE",
"891 472 OFFCURVE",
"816 472 CURVE SMOOTH",
"754 472 OFFCURVE",
"700 431 OFFCURVE",
"683 375 CURVE",
"576 375 LINE",
"576 555 LINE",
"502 555 LINE",
"502 375 LINE",
"370 375 LINE",
"370 555 LINE",
"296 555 LINE",
"296 375 LINE",
"164 375 LINE",
"164 555 LINE"
);
},
{
closed = 1;
nodes = (
"746 376 OFFCURVE",
"778 407 OFFCURVE",
"816 407 CURVE SMOOTH",
"854 407 OFFCURVE",
"886 377 OFFCURVE",
"886 336 CURVE SMOOTH",
"886 297 OFFCURVE",
"854 266 OFFCURVE",
"816 266 CURVE SMOOTH",
"778 266 OFFCURVE",
"746 297 OFFCURVE",
"746 336 CURVE SMOOTH"
);
}
);
width = 995;
}
);
unicode = 1E831;
category = Letter;
},
{
glyphname = u1E832;
lastChange = "2021-12-15 15:11:38 +0000";
layers = (
{
layerId = UUID0;
paths = (
{
closed = 1;
nodes = (
"648 415 LINE",
"648 163 LINE",
"516 163 LINE",
"516 415 LINE",
"442 415 LINE",
"442 163 LINE",
"310 163 LINE",
"310 415 LINE",
"236 415 LINE",
"236 163 LINE",
"40 163 LINE",
"40 95 LINE",
"948 95 LINE",
"948 163 LINE",
"722 163 LINE",
"722 415 LINE"
);
},
{
closed = 1;
nodes = (
"532 619 OFFCURVE",
"510 640 OFFCURVE",
"478 640 CURVE SMOOTH",
"447 640 OFFCURVE",
"425 619 OFFCURVE",
"425 586 CURVE SMOOTH",
"425 552 OFFCURVE",
"444 533 OFFCURVE",
"478 533 CURVE SMOOTH",
"510 533 OFFCURVE",
"532 552 OFFCURVE",
"532 586 CURVE SMOOTH"
);
}
);
width = 988;
}
);
unicode = 1E832;
category = Letter;
},
{
glyphname = u1E835;
lastChange = "2021-12-15 15:11:38 +0000";
layers = (
{
layerId = UUID0;
paths = (
{
closed = 1;
nodes = (
"503 458 LINE",
"346 458 LINE",
"337 476 OFFCURVE",
"327 493 OFFCURVE",
"317 511 CURVE",
"503 511 LINE",
"503 575 LINE",
"276 575 LINE",
"237 631 OFFCURVE",
"192 682 OFFCURVE",
"145 726 CURVE",
"97 680 LINE",
"130 648 OFFCURVE",
"161 613 OFFCURVE",
"191 575 CURVE",
"79 575 LINE",
"79 511 LINE",
"235 511 LINE",
"266 458 LINE",
"79 458 LINE",
"79 394 LINE",
"294 394 LINE",
"303 370 OFFCURVE",
"311 346 OFFCURVE",
"317 322 CURVE",
"309 323 OFFCURVE",
"301 323 OFFCURVE",
"293 323 CURVE SMOOTH",
"134 323 OFFCURVE",
"60 246 OFFCURVE",
"60 141 CURVE SMOOTH",
"60 46 OFFCURVE",
"138 -12 OFFCURVE",
"224 -12 CURVE SMOOTH",
"355 -12 OFFCURVE",
"406 90 OFFCURVE",
"406 212 CURVE SMOOTH",
"406 229 LINE",
"462 200 OFFCURVE",
"496 147 OFFCURVE",
"532 79 CURVE",
"588 117 LINE",
"550 200 OFFCURVE",
"488 274 OFFCURVE",
"397 306 CURVE",
"391 336 OFFCURVE",
"383 365 OFFCURVE",
"372 394 CURVE",
"503 394 LINE"
);
},
{
closed = 1;
nodes = (
"173 56 OFFCURVE",
"137 85 OFFCURVE",
"137 148 CURVE SMOOTH",
"137 239 OFFCURVE",
"236 253 OFFCURVE",
"289 253 CURVE SMOOTH",
"303 253 OFFCURVE",
"316 252 OFFCURVE",
"329 251 CURVE",
"330 238 OFFCURVE",
"330 226 OFFCURVE",
"330 213 CURVE SMOOTH",
"330 86 OFFCURVE",
"282 56 OFFCURVE",
"223 56 CURVE SMOOTH"
);
}
);
width = 598;
}
);
unicode = 1E835;
category = Letter;
},
{
glyphname = u1E836;
lastChange = "2021-12-15 15:11:38 +0000";
layers = (
{
layerId = UUID0;
paths = (
{
closed = 1;
nodes = (
"777 230 LINE",
"424 230 LINE",
"424 350 LINE",
"653 350 LINE SMOOTH",
"766 350 OFFCURVE",
"838 390 OFFCURVE",
"838 489 CURVE SMOOTH",
"838 554 OFFCURVE",
"805 589 OFFCURVE",
"762 607 CURVE",
"733 540 LINE",
"751 529 OFFCURVE",
"762 514 OFFCURVE",
"762 489 CURVE SMOOTH",
"762 445 OFFCURVE",
"739 418 OFFCURVE",
"655 418 CURVE SMOOTH",
"50 418 LINE",
"50 350 LINE",
"356 350 LINE",
"356 230 LINE",
"50 230 LINE",
"50 162 LINE",
"777 162 LINE"
);
}
);
width = 878;
}
);
unicode = 1E836;
category = Letter;
},
{
glyphname = u1E837;
lastChange = "2021-12-15 15:11:38 +0000";
layers = (
{
layerId = UUID0;
paths = (
{
closed = 1;
nodes = (
"777 230 LINE",
"514 230 LINE",
"514 350 LINE",
"653 350 LINE SMOOTH",
"766 350 OFFCURVE",
"838 390 OFFCURVE",
"838 489 CURVE SMOOTH",
"838 554 OFFCURVE",
"805 589 OFFCURVE",
"762 607 CURVE",
"733 540 LINE",
"751 529 OFFCURVE",
"762 514 OFFCURVE",
"762 489 CURVE SMOOTH",
"762 445 OFFCURVE",
"739 418 OFFCURVE",
"655 418 CURVE SMOOTH",
"50 418 LINE",
"50 350 LINE",
"296 350 LINE",
"296 230 LINE",
"50 230 LINE",
"50 162 LINE",
"777 162 LINE"
);
},
{
closed = 1;
nodes = (
"364 350 LINE",
"446 350 LINE",
"446 230 LINE",
"364 230 LINE"
);
},
{
closed = 1;
nodes = (
"468 567 OFFCURVE",
"446 588 OFFCURVE",
"414 588 CURVE SMOOTH",
"383 588 OFFCURVE",
"361 567 OFFCURVE",
"361 534 CURVE SMOOTH",
"361 500 OFFCURVE",
"380 481 OFFCURVE",
"414 481 CURVE SMOOTH",
"446 481 OFFCURVE",
"468 500 OFFCURVE",
"468 534 CURVE SMOOTH"
);
}
);
width = 878;
}
);
unicode = 1E837;
category = Letter;
},
{
glyphname = u1E838;
lastChange = "2021-12-15 15:11:38 +0000";
layers = (
{
layerId = UUID0;
paths = (
{
closed = 1;
nodes = (
"777 230 LINE",
"514 230 LINE",
"514 350 LINE",
"653 350 LINE SMOOTH",
"766 350 OFFCURVE",
"838 390 OFFCURVE",
"838 489 CURVE SMOOTH",
"838 554 OFFCURVE",
"805 589 OFFCURVE",
"762 607 CURVE",
"733 540 LINE",
"751 529 OFFCURVE",
"762 514 OFFCURVE",
"762 489 CURVE SMOOTH",
"762 445 OFFCURVE",
"739 418 OFFCURVE",
"655 418 CURVE SMOOTH",
"50 418 LINE",
"50 350 LINE",
"296 350 LINE",
"296 230 LINE",
"50 230 LINE",
"50 162 LINE",
"777 162 LINE"
);
},
{
closed = 1;
nodes = (
"364 350 LINE",
"446 350 LINE",
"446 230 LINE",
"364 230 LINE"
);
},
{
closed = 1;
nodes = (
"390 567 OFFCURVE",
"368 588 OFFCURVE",
"336 588 CURVE SMOOTH",
"305 588 OFFCURVE",
"283 567 OFFCURVE",
"283 534 CURVE SMOOTH",
"283 500 OFFCURVE",
"302 481 OFFCURVE",
"336 481 CURVE SMOOTH",
"368 481 OFFCURVE",
"390 500 OFFCURVE",
"390 534 CURVE SMOOTH"
);
},
{
closed = 1;
nodes = (
"551 567 OFFCURVE",
"529 588 OFFCURVE",
"497 588 CURVE SMOOTH",
"466 588 OFFCURVE",
"444 567 OFFCURVE",
"444 534 CURVE SMOOTH",
"444 500 OFFCURVE",
"463 481 OFFCURVE",
"497 481 CURVE SMOOTH",
"529 481 OFFCURVE",
"551 500 OFFCURVE",
"551 534 CURVE SMOOTH"
);
}
);
width = 878;
}
);
unicode = 1E838;
category = Letter;
},
{
glyphname = u1E839;
lastChange = "2021-12-15 15:11:38 +0000";
layers = (
{
layerId = UUID0;
paths = (
{
closed = 1;
nodes = (
"198 618 LINE",
"141 558 LINE",
"136 582 OFFCURVE",
"134 606 OFFCURVE",
"134 631 CURVE SMOOTH",
"134 714 LINE",
"60 714 LINE",
"60 630 LINE SMOOTH",
"60 582 OFFCURVE",
"67 536 OFFCURVE",
"81 494 CURVE",
"27 437 LINE",
"73 391 LINE",
"110 428 LINE",
"147 357 OFFCURVE",
"203 303 OFFCURVE",
"264 280 CURVE",
"264 0 LINE",
"338 0 LINE",
"338 280 LINE",
"449 322 OFFCURVE",
"542 465 OFFCURVE",
"542 630 CURVE SMOOTH",
"542 714 LINE",
"468 714 LINE",
"468 631 LINE SMOOTH",
"468 496 OFFCURVE",
"391 364 OFFCURVE",
"301 341 CURVE",
"245 355 OFFCURVE",
"194 411 OFFCURVE",
"164 483 CURVE",
"248 569 LINE"
);
}
);
width = 602;
}
);
unicode = 1E839;
category = Letter;
},
{
glyphname = u1E83A;
lastChange = "2021-12-15 15:11:38 +0000";
layers = (
{
layerId = UUID0;
paths = (
{
closed = 1;
nodes = (
"40 527 OFFCURVE",
"97 474 OFFCURVE",
"164 474 CURVE SMOOTH",
"420 474 LINE",
"420 229 LINE",
"121 229 LINE",
"121 161 LINE",
"731 161 LINE",
"723 145 OFFCURVE",
"719 127 OFFCURVE",
"719 109 CURVE SMOOTH",
"719 41 OFFCURVE",
"776 -12 OFFCURVE",
"842 -12 CURVE SMOOTH",
"909 -12 OFFCURVE",
"966 41 OFFCURVE",
"966 109 CURVE SMOOTH",
"966 176 OFFCURVE",
"909 229 OFFCURVE",
"842 229 CURVE SMOOTH",
"494 229 LINE",
"494 474 LINE",
"885 474 LINE",
"885 542 LINE",
"274 542 LINE",
"282 557 OFFCURVE",
"287 575 OFFCURVE",
"287 594 CURVE SMOOTH",
"287 661 OFFCURVE",
"230 714 OFFCURVE",
"164 714 CURVE SMOOTH",
"97 714 OFFCURVE",
"40 661 OFFCURVE",
"40 594 CURVE SMOOTH"
);
},
{
closed = 1;
nodes = (
"106 628 OFFCURVE",
"133 651 OFFCURVE",
"164 651 CURVE SMOOTH",
"195 651 OFFCURVE",
"221 629 OFFCURVE",
"221 595 CURVE SMOOTH",
"221 562 OFFCURVE",
"195 537 OFFCURVE",
"164 537 CURVE SMOOTH",
"133 537 OFFCURVE",
"106 562 OFFCURVE",
"106 595 CURVE SMOOTH"
);
},
{
closed = 1;
nodes = (
"900 75 OFFCURVE",
"873 51 OFFCURVE",
"842 51 CURVE SMOOTH",
"811 51 OFFCURVE",
"785 74 OFFCURVE",
"785 108 CURVE SMOOTH",
"785 141 OFFCURVE",
"811 166 OFFCURVE",
"842 166 CURVE SMOOTH",
"873 166 OFFCURVE",
"900 141 OFFCURVE",
"900 108 CURVE SMOOTH"
);
}
);
width = 1006;
}
);
unicode = 1E83A;
category = Letter;
},
{
glyphname = u1E83B;
lastChange = "2021-12-15 15:11:38 +0000";
layers = (
{
layerId = UUID0;
paths = (
{
closed = 1;
nodes = (
"398 440 LINE",
"330 440 LINE",
"330 367 LINE",
"254 367 LINE",
"254 460 LINE",
"313 475 OFFCURVE",
"358 528 OFFCURVE",
"358 591 CURVE SMOOTH",
"358 667 OFFCURVE",
"294 727 OFFCURVE",
"219 727 CURVE SMOOTH",
"144 727 OFFCURVE",
"80 667 OFFCURVE",
"80 591 CURVE SMOOTH",
"80 528 OFFCURVE",
"125 475 OFFCURVE",
"184 460 CURVE",
"184 367 LINE",
"108 367 LINE",
"108 440 LINE",
"40 440 LINE",
"40 211 LINE",
"108 211 LINE",
"108 309 LINE",
"184 309 LINE",
"184 218 LINE",
"55 14 LINE",
"110 -20 LINE",
"219 158 LINE",
"328 -20 LINE",
"383 14 LINE",
"254 218 LINE",
"254 309 LINE",
"330 309 LINE",
"330 211 LINE",
"398 211 LINE"
);
},
{
closed = 1;
nodes = (
"149 631 OFFCURVE",
"181 662 OFFCURVE",
"219 662 CURVE SMOOTH",
"257 662 OFFCURVE",
"289 632 OFFCURVE",
"289 591 CURVE SMOOTH",
"289 552 OFFCURVE",
"257 521 OFFCURVE",
"219 521 CURVE SMOOTH",
"181 521 OFFCURVE",
"149 552 OFFCURVE",
"149 591 CURVE SMOOTH"
);
}
);
width = 438;
}
);
unicode = 1E83B;
category = Letter;
},
{
glyphname = u1E83C;
lastChange = "2021-12-15 15:11:38 +0000";
layers = (
{
layerId = UUID0;
paths = (
{
closed = 1;
nodes = (
"80 542 OFFCURVE",
"137 489 OFFCURVE",
"204 489 CURVE SMOOTH",
"270 489 OFFCURVE",
"327 542 OFFCURVE",
"327 609 CURVE SMOOTH",
"327 677 OFFCURVE",
"270 730 OFFCURVE",
"204 730 CURVE SMOOTH",
"137 730 OFFCURVE",
"80 677 OFFCURVE",
"80 609 CURVE SMOOTH"
);
},
{
closed = 1;
nodes = (
"146 643 OFFCURVE",
"173 667 OFFCURVE",
"204 667 CURVE SMOOTH",
"235 667 OFFCURVE",
"261 644 OFFCURVE",
"261 610 CURVE SMOOTH",
"261 577 OFFCURVE",
"235 552 OFFCURVE",
"204 552 CURVE SMOOTH",
"173 552 OFFCURVE",
"146 577 OFFCURVE",
"146 610 CURVE SMOOTH"
);
},
{
closed = 1;
nodes = (
"80 272 OFFCURVE",
"137 219 OFFCURVE",
"204 219 CURVE SMOOTH",
"270 219 OFFCURVE",
"327 272 OFFCURVE",
"327 339 CURVE SMOOTH",
"327 407 OFFCURVE",
"270 460 OFFCURVE",
"204 460 CURVE SMOOTH",
"137 460 OFFCURVE",
"80 407 OFFCURVE",
"80 339 CURVE SMOOTH"
);
},
{
closed = 1;
nodes = (
"146 373 OFFCURVE",
"173 397 OFFCURVE",
"204 397 CURVE SMOOTH",
"235 397 OFFCURVE",
"261 374 OFFCURVE",
"261 340 CURVE SMOOTH",
"261 307 OFFCURVE",
"235 282 OFFCURVE",
"204 282 CURVE SMOOTH",
"173 282 OFFCURVE",
"146 307 OFFCURVE",
"146 340 CURVE SMOOTH"
);
},
{
closed = 1;
nodes = (
"80 2 OFFCURVE",
"137 -51 OFFCURVE",
"204 -51 CURVE SMOOTH",
"270 -51 OFFCURVE",
"327 2 OFFCURVE",
"327 69 CURVE SMOOTH",
"327 137 OFFCURVE",
"270 190 OFFCURVE",
"204 190 CURVE SMOOTH",
"137 190 OFFCURVE",
"80 137 OFFCURVE",
"80 69 CURVE SMOOTH"
);
},
{
closed = 1;
nodes = (
"146 103 OFFCURVE",
"173 127 OFFCURVE",
"204 127 CURVE SMOOTH",
"235 127 OFFCURVE",
"261 104 OFFCURVE",
"261 70 CURVE SMOOTH",
"261 37 OFFCURVE",
"235 12 OFFCURVE",
"204 12 CURVE SMOOTH",
"173 12 OFFCURVE",
"146 37 OFFCURVE",
"146 70 CURVE SMOOTH"
);
}
);
width = 407;
}
);
unicode = 1E83C;
category = Letter;
},
{
glyphname = u1E83D;
lastChange = "2021-12-15 15:11:38 +0000";
layers = (
{
layerId = UUID0;
paths = (
{
closed = 1;
nodes = (
"1109 672 OFFCURVE",
"1052 725 OFFCURVE",
"985 725 CURVE SMOOTH",
"919 725 OFFCURVE",
"862 672 OFFCURVE",
"862 604 CURVE SMOOTH",
"862 585 OFFCURVE",
"866 567 OFFCURVE",
"874 552 CURVE",
"274 552 LINE",
"282 567 OFFCURVE",
"287 585 OFFCURVE",
"287 604 CURVE SMOOTH",
"287 672 OFFCURVE",
"230 725 OFFCURVE",
"164 725 CURVE SMOOTH",
"97 725 OFFCURVE",
"40 672 OFFCURVE",
"40 604 CURVE SMOOTH",
"40 537 OFFCURVE",
"97 484 OFFCURVE",
"164 484 CURVE SMOOTH",
"540 484 LINE",
"540 229 LINE",
"164 229 LINE SMOOTH",
"97 229 OFFCURVE",
"40 176 OFFCURVE",
"40 109 CURVE SMOOTH",
"40 41 OFFCURVE",
"97 -12 OFFCURVE",
"164 -12 CURVE SMOOTH",
"230 -12 OFFCURVE",
"287 41 OFFCURVE",
"287 109 CURVE SMOOTH",
"287 127 OFFCURVE",
"282 145 OFFCURVE",
"274 161 CURVE",
"874 161 LINE",
"866 145 OFFCURVE",
"862 127 OFFCURVE",
"862 109 CURVE SMOOTH",
"862 41 OFFCURVE",
"919 -12 OFFCURVE",
"985 -12 CURVE SMOOTH",
"1052 -12 OFFCURVE",
"1109 41 OFFCURVE",
"1109 109 CURVE SMOOTH",
"1109 176 OFFCURVE",
"1052 229 OFFCURVE",
"985 229 CURVE SMOOTH",
"614 229 LINE",
"614 484 LINE",
"984 484 LINE SMOOTH",
"1052 484 OFFCURVE",
"1109 537 OFFCURVE",
"1109 604 CURVE SMOOTH"
);
},
{
closed = 1;
nodes = (
"1043 572 OFFCURVE",
"1016 547 OFFCURVE",
"985 547 CURVE SMOOTH",
"954 547 OFFCURVE",
"928 572 OFFCURVE",
"928 605 CURVE SMOOTH",
"928 639 OFFCURVE",
"954 662 OFFCURVE",
"985 662 CURVE SMOOTH",
"1016 662 OFFCURVE",
"1043 638 OFFCURVE",
"1043 605 CURVE SMOOTH"
);
},
{
closed = 1;
nodes = (
"106 638 OFFCURVE",
"133 662 OFFCURVE",
"164 662 CURVE SMOOTH",
"195 662 OFFCURVE",
"221 639 OFFCURVE",
"221 605 CURVE SMOOTH",
"221 572 OFFCURVE",
"195 547 OFFCURVE",
"164 547 CURVE SMOOTH",
"133 547 OFFCURVE",
"106 572 OFFCURVE",
"106 605 CURVE SMOOTH"
);
},
{
closed = 1;
nodes = (
"106 141 OFFCURVE",
"133 166 OFFCURVE",
"164 166 CURVE SMOOTH",
"195 166 OFFCURVE",
"221 141 OFFCURVE",
"221 108 CURVE SMOOTH",
"221 74 OFFCURVE",
"195 51 OFFCURVE",
"164 51 CURVE SMOOTH",
"133 51 OFFCURVE",
"106 75 OFFCURVE",
"106 108 CURVE SMOOTH"
);
},
{
closed = 1;
nodes = (
"1043 75 OFFCURVE",
"1016 51 OFFCURVE",
"985 51 CURVE SMOOTH",
"954 51 OFFCURVE",
"928 74 OFFCURVE",
"928 108 CURVE SMOOTH",
"928 141 OFFCURVE",
"954 166 OFFCURVE",
"985 166 CURVE SMOOTH",
"1016 166 OFFCURVE",
"1043 141 OFFCURVE",
"1043 108 CURVE SMOOTH"
);
}
);
width = 1149;
}
);
unicode = 1E83D;
category = Letter;
},
{
glyphname = u1E83E;
lastChange = "2021-12-15 15:11:38 +0000";
layers = (
{
layerId = UUID0;
paths = (
{
closed = 1;
nodes = (
"50 487 LINE",
"50 199 LINE",
"778 199 LINE SMOOTH",
"934 199 OFFCURVE",
"986 263 OFFCURVE",
"986 348 CURVE SMOOTH",
"986 434 OFFCURVE",
"908 487 OFFCURVE",
"778 487 CURVE SMOOTH"
);
},
{
closed = 1;
nodes = (
"778 419 LINE SMOOTH",
"872 419 OFFCURVE",
"910 394 OFFCURVE",
"910 348 CURVE SMOOTH",
"910 309 OFFCURVE",
"893 267 OFFCURVE",
"778 267 CURVE SMOOTH",
"120 267 LINE",
"120 419 LINE"
);
}
);
width = 1026;
}
);
unicode = 1E83E;
category = Letter;
},
{
glyphname = u1E841;
lastChange = "2021-12-15 15:11:38 +0000";
layers = (
{
layerId = UUID0;
paths = (
{
closed = 1;
nodes = (
"978 400 LINE",
"40 400 LINE",
"40 332 LINE",
"978 332 LINE"
);
},
{
closed = 1;
nodes = (
"563 635 OFFCURVE",
"541 656 OFFCURVE",
"509 656 CURVE SMOOTH",
"478 656 OFFCURVE",
"456 635 OFFCURVE",
"456 602 CURVE SMOOTH",
"456 568 OFFCURVE",
"475 549 OFFCURVE",
"509 549 CURVE SMOOTH",
"541 549 OFFCURVE",
"563 568 OFFCURVE",
"563 602 CURVE SMOOTH"
);
}
);
width = 1018;
}
);
unicode = 1E841;
category = Letter;
},
{
glyphname = u1E842;
lastChange = "2021-12-15 15:11:38 +0000";
layers = (
{
layerId = UUID0;
paths = (
{
closed = 1;
nodes = (
"132 714 LINE",
"132 246 LINE",
"74 230 OFFCURVE",
"30 178 OFFCURVE",
"30 115 CURVE SMOOTH",
"30 40 OFFCURVE",
"94 -20 OFFCURVE",
"169 -20 CURVE SMOOTH",
"244 -20 OFFCURVE",
"308 40 OFFCURVE",
"308 115 CURVE SMOOTH",
"308 178 OFFCURVE",
"264 230 OFFCURVE",
"206 246 CURVE",
"206 714 LINE"
);
},
{
closed = 1;
nodes = (
"99 155 OFFCURVE",
"131 186 OFFCURVE",
"169 186 CURVE SMOOTH",
"207 186 OFFCURVE",
"239 156 OFFCURVE",
"239 115 CURVE SMOOTH",
"239 76 OFFCURVE",
"207 45 OFFCURVE",
"169 45 CURVE SMOOTH",
"131 45 OFFCURVE",
"99 76 OFFCURVE",
"99 115 CURVE SMOOTH"
);
}
);
width = 338;
}
);
unicode = 1E842;
category = Letter;
},
{
glyphname = u1E843;
lastChange = "2021-12-15 15:11:38 +0000";
layers = (
{
components = (
{
name = dot1;
transform = "{1, 0, 0, 1, 493, -508}";
}
);
layerId = UUID0;
paths = (
{
closed = 1;
nodes = (
"923 427 OFFCURVE",
"830 515 OFFCURVE",
"719 515 CURVE SMOOTH",
"639 515 OFFCURVE",
"567 468 OFFCURVE",
"534 400 CURVE",
"40 400 LINE",
"40 332 LINE",
"516 332 LINE",
"515 325 OFFCURVE",
"515 318 OFFCURVE",
"515 312 CURVE SMOOTH",
"515 303 OFFCURVE",
"515 298 OFFCURVE",
"516 290 CURVE",
"40 290 LINE",
"40 222 LINE",
"539 222 LINE",
"574 159 OFFCURVE",
"642 117 OFFCURVE",
"719 117 CURVE SMOOTH",
"830 117 OFFCURVE",
"923 204 OFFCURVE",
"923 315 CURVE SMOOTH"
);
},
{
closed = 1;
nodes = (
"847 244 OFFCURVE",
"788 187 OFFCURVE",
"718 187 CURVE SMOOTH",
"650 187 OFFCURVE",
"591 244 OFFCURVE",
"591 315 CURVE SMOOTH",
"591 391 OFFCURVE",
"650 445 OFFCURVE",
"718 445 CURVE SMOOTH",
"788 445 OFFCURVE",
"847 390 OFFCURVE",
"847 315 CURVE SMOOTH"
);
}
);
width = 963;
}
);
unicode = 1E843;
category = Letter;
},
{
glyphname = u1E844;
lastChange = "2021-12-15 15:11:38 +0000";
layers = (
{
layerId = UUID0;
paths = (
{
closed = 1;
nodes = (
"426 545 LINE",
"426 553 LINE SMOOTH",
"426 684 OFFCURVE",
"345 735 OFFCURVE",
"250 735 CURVE SMOOTH",
"145 735 OFFCURVE",
"90 681 OFFCURVE",
"90 565 CURVE SMOOTH",
"90 0 LINE",
"164 0 LINE",
"164 565 LINE SMOOTH",
"164 630 OFFCURVE",
"184 670 OFFCURVE",
"256 670 CURVE SMOOTH",
"308 670 OFFCURVE",
"352 641 OFFCURVE",
"352 553 CURVE SMOOTH",
"352 545 LINE"
);
}
);
width = 466;
}
);
unicode = 1E844;
category = Letter;
},
{
glyphname = u1E847;
lastChange = "2021-12-15 15:11:38 +0000";
layers = (
{
layerId = UUID0;
paths = (
{
closed = 1;
nodes = (
"79 38 OFFCURVE",
"133 -13 OFFCURVE",
"197 -13 CURVE SMOOTH",
"260 -13 OFFCURVE",
"315 38 OFFCURVE",
"315 101 CURVE SMOOTH",
"315 499 LINE",
"414 500 OFFCURVE",
"481 557 OFFCURVE",
"481 624 CURVE SMOOTH",
"481 672 OFFCURVE",
"449 727 OFFCURVE",
"370 727 CURVE SMOOTH",
"271 727 OFFCURVE",
"242 647 OFFCURVE",
"241 569 CURVE",
"180 586 OFFCURVE",
"128 628 OFFCURVE",
"95 714 CURVE",
"30 714 LINE",
"49 615 OFFCURVE",
"127 532 OFFCURVE",
"241 507 CURVE",
"241 207 LINE",
"227 213 OFFCURVE",
"212 216 OFFCURVE",
"197 216 CURVE SMOOTH",
"133 216 OFFCURVE",
"79 166 OFFCURVE",
"79 101 CURVE SMOOTH"
);
},
{
closed = 1;
nodes = (
"143 135 OFFCURVE",
"168 157 OFFCURVE",
"197 157 CURVE SMOOTH",
"228 157 OFFCURVE",
"251 136 OFFCURVE",
"251 103 CURVE SMOOTH",
"251 71 OFFCURVE",
"228 48 OFFCURVE",
"197 48 CURVE SMOOTH",
"168 48 OFFCURVE",
"143 71 OFFCURVE",
"143 103 CURVE SMOOTH"
);
},
{
closed = 1;
nodes = (
"315 572 LINE SMOOTH",
"315 651 OFFCURVE",
"336 668 OFFCURVE",
"370 668 CURVE SMOOTH",
"393 668 OFFCURVE",
"417 650 OFFCURVE",
"417 624 CURVE SMOOTH",
"417 587 OFFCURVE",
"388 561 OFFCURVE",
"315 560 CURVE"
);
}
);
width = 521;
}
);
unicode = 1E847;
category = Letter;
},
{
glyphname = u1E848;
lastChange = "2021-12-15 15:11:38 +0000";
layers = (
{
layerId = UUID0;
paths = (
{
closed = 1;
nodes = (
"526 545 LINE",
"526 553 LINE SMOOTH",
"526 684 OFFCURVE",
"445 735 OFFCURVE",
"350 735 CURVE SMOOTH",
"245 735 OFFCURVE",
"190 681 OFFCURVE",
"190 565 CURVE SMOOTH",
"190 380 LINE",
"118 380 LINE",
"118 460 LINE",
"50 460 LINE",
"50 232 LINE",
"118 232 LINE",
"118 322 LINE",
"190 322 LINE",
"190 0 LINE",
"264 0 LINE",
"264 322 LINE",
"337 322 LINE",
"337 232 LINE",
"405 232 LINE",
"405 460 LINE",
"337 460 LINE",
"337 380 LINE",
"264 380 LINE",
"264 565 LINE SMOOTH",
"264 630 OFFCURVE",
"284 670 OFFCURVE",
"356 670 CURVE SMOOTH",
"408 670 OFFCURVE",
"452 641 OFFCURVE",
"452 553 CURVE SMOOTH",
"452 545 LINE"
);
}
);
width = 566;
}
);
unicode = 1E848;
category = Letter;
},
{
glyphname = u1E849;
lastChange = "2021-12-15 15:11:38 +0000";
layers = (
{
layerId = UUID0;
paths = (
{
closed = 1;
nodes = (
"552 428 LINE",
"458 543 LINE",
"558 688 LINE",
"502 727 LINE",
"413 597 LINE",
"314 719 LINE",
"270 678 LINE",
"378 545 LINE",
"294 421 LINE",
"86 727 LINE",
"30 688 LINE",
"254 363 LINE",
"46 58 LINE",
"46 0 LINE",
"542 0 LINE",
"542 58 LINE",
"334 363 LINE",
"422 491 LINE",
"508 387 LINE"
);
},
{
closed = 1;
nodes = (
"457 68 LINE",
"131 68 LINE",
"294 305 LINE"
);
}
);
width = 588;
}
);
unicode = 1E849;
category = Letter;
},
{
glyphname = u1E84A;
lastChange = "2021-12-15 15:11:38 +0000";
layers = (
{
layerId = UUID0;
paths = (
{
closed = 1;
nodes = (
"1103 500 LINE",
"1035 500 LINE",
"1035 400 LINE",
"118 400 LINE",
"118 500 LINE",
"50 500 LINE",
"50 192 LINE",
"118 192 LINE",
"118 332 LINE",
"1035 332 LINE",
"1035 192 LINE",
"1103 192 LINE"
);
},
{
closed = 1;
nodes = (
"847 256 LINE",
"309 256 LINE",
"309 192 LINE",
"847 192 LINE"
);
},
{
closed = 1;
nodes = (
"847 540 LINE",
"309 540 LINE",
"309 476 LINE",
"847 476 LINE"
);
}
);
width = 1153;
}
);
unicode = 1E84A;
category = Letter;
},
{
glyphname = u1E84B;
lastChange = "2021-12-15 15:11:38 +0000";
layers = (
{
layerId = UUID0;
paths = (
{
closed = 1;
nodes = (
"558 68 LINE",
"304 68 LINE SMOOTH",
"192 68 OFFCURVE",
"126 109 OFFCURVE",
"126 198 CURVE SMOOTH",
"126 290 OFFCURVE",
"207 324 OFFCURVE",
"291 324 CURVE SMOOTH",
"558 324 LINE",
"558 392 LINE",
"304 392 LINE SMOOTH",
"192 392 OFFCURVE",
"126 432 OFFCURVE",
"126 521 CURVE SMOOTH",
"126 617 OFFCURVE",
"216 646 OFFCURVE",
"304 646 CURVE SMOOTH",
"558 646 LINE",
"558 714 LINE",
"294 714 LINE SMOOTH",
"163 714 OFFCURVE",
"50 643 OFFCURVE",
"50 517 CURVE SMOOTH",
"50 445 OFFCURVE",
"86 389 OFFCURVE",
"157 355 CURVE",
"91 328 OFFCURVE",
"50 271 OFFCURVE",
"50 194 CURVE SMOOTH",
"50 79 OFFCURVE",
"132 0 OFFCURVE",
"294 0 CURVE SMOOTH",
"558 0 LINE"
);
}
);
width = 608;
}
);
unicode = 1E84B;
category = Letter;
},
{
glyphname = u1E84E;
lastChange = "2021-12-15 15:11:38 +0000";
layers = (
{
layerId = UUID0;
paths = (
{
closed = 1;
nodes = (
"343 0 LINE",
"343 224 LINE",
"463 225 OFFCURVE",
"514 289 OFFCURVE",
"514 356 CURVE SMOOTH",
"514 404 OFFCURVE",
"477 459 OFFCURVE",
"398 459 CURVE SMOOTH",
"297 459 OFFCURVE",
"269 374 OFFCURVE",
"269 294 CURVE",
"179 301 OFFCURVE",
"126 333 OFFCURVE",
"126 395 CURVE SMOOTH",
"126 487 OFFCURVE",
"239 503 OFFCURVE",
"333 503 CURVE SMOOTH",
"661 503 LINE",
"661 567 LINE",
"573 567 LINE SMOOTH",
"544 567 OFFCURVE",
"521 590 OFFCURVE",
"521 617 CURVE SMOOTH",
"521 648 OFFCURVE",
"562 650 OFFCURVE",
"589 650 CURVE SMOOTH",
"767 650 LINE",
"767 714 LINE",
"584 714 LINE SMOOTH",
"512 714 OFFCURVE",
"452 680 OFFCURVE",
"452 616 CURVE SMOOTH",
"452 598 OFFCURVE",
"456 581 OFFCURVE",
"464 567 CURVE",
"323 567 LINE SMOOTH",
"193 567 OFFCURVE",
"50 529 OFFCURVE",
"50 395 CURVE SMOOTH",
"50 299 OFFCURVE",
"126 238 OFFCURVE",
"269 226 CURVE",
"269 0 LINE"
);
},
{
closed = 1;
nodes = (
"343 304 LINE SMOOTH",
"343 374 OFFCURVE",
"364 396 OFFCURVE",
"398 396 CURVE SMOOTH",
"421 396 OFFCURVE",
"445 382 OFFCURVE",
"445 356 CURVE SMOOTH",
"445 319 OFFCURVE",
"424 293 OFFCURVE",
"343 292 CURVE"
);
}
);
width = 787;
}
);
unicode = 1E84E;
category = Letter;
},
{
glyphname = u1E84F;
lastChange = "2021-12-15 15:11:38 +0000";
layers = (
{
layerId = UUID0;
paths = (
{
closed = 1;
nodes = (
"868 400 LINE",
"40 400 LINE",
"40 332 LINE",
"206 332 LINE",
"92 117 LINE",
"149 89 LINE",
"280 332 LINE",
"406 332 LINE",
"257 52 LINE",
"314 24 LINE",
"480 332 LINE",
"606 332 LINE",
"437 15 LINE",
"494 -13 LINE",
"680 332 LINE",
"868 332 LINE"
);
},
{
closed = 1;
nodes = (
"788 566 LINE",
"120 566 LINE",
"120 502 LINE",
"788 502 LINE"
);
}
);
width = 908;
}
);
unicode = 1E84F;
category = Letter;
},
{
glyphname = u1E850;
lastChange = "2021-12-15 15:11:38 +0000";
layers = (
{
layerId = UUID0;
paths = (
{
closed = 1;
nodes = (
"572 633 LINE",
"572 487 LINE",
"520 487 LINE",
"520 633 LINE",
"452 633 LINE",
"452 487 LINE",
"400 487 LINE",
"400 633 LINE",
"332 633 LINE",
"332 487 LINE",
"50 487 LINE",
"50 199 LINE",
"340 199 LINE",
"237 5 LINE",
"294 -23 LINE",
"414 199 LINE",
"481 199 LINE",
"377 5 LINE",
"434 -23 LINE",
"554 199 LINE",
"778 199 LINE SMOOTH",
"934 199 OFFCURVE",
"986 263 OFFCURVE",
"986 348 CURVE SMOOTH",
"986 434 OFFCURVE",
"908 487 OFFCURVE",
"778 487 CURVE SMOOTH",
"640 487 LINE",
"640 633 LINE"
);
},
{
closed = 1;
nodes = (
"778 419 LINE SMOOTH",
"872 419 OFFCURVE",
"910 394 OFFCURVE",
"910 348 CURVE SMOOTH",
"910 309 OFFCURVE",
"893 267 OFFCURVE",
"778 267 CURVE SMOOTH",
"120 267 LINE",
"120 419 LINE"
);
}
);
width = 1026;
}
);
unicode = 1E850;
category = Letter;
},
{
glyphname = u1E851;
lastChange = "2021-12-15 15:11:38 +0000";
layers = (
{
layerId = UUID0;
paths = (
{
closed = 1;
nodes = (
"698 680 LINE",
"40 680 LINE",
"40 612 LINE",
"555 360 LINE",
"40 360 LINE",
"40 292 LINE",
"698 292 LINE",
"698 359 LINE",
"182 612 LINE",
"698 612 LINE"
);
},
{
closed = 1;
nodes = (
"698 180 LINE",
"40 180 LINE",
"40 112 LINE",
"698 112 LINE"
);
}
);
width = 738;
}
);
unicode = 1E851;
category = Letter;
},
{
glyphname = u1E852;
lastChange = "2021-12-15 15:11:38 +0000";
layers = (
{
layerId = UUID0;
paths = (
{
closed = 1;
nodes = (
"305 40 LINE",
"305 400 LINE",
"597 400 LINE",
"597 268 LINE",
"665 268 LINE",
"665 400 LINE",
"843 400 LINE",
"843 468 LINE",
"665 468 LINE",
"665 606 LINE",
"597 606 LINE",
"597 468 LINE",
"305 468 LINE",
"305 506 LINE SMOOTH",
"305 586 OFFCURVE",
"277 670 OFFCURVE",
"176 670 CURVE SMOOTH",
"77 670 OFFCURVE",
"40 595 OFFCURVE",
"40 547 CURVE SMOOTH",
"40 461 OFFCURVE",
"110 401 OFFCURVE",
"231 400 CURVE",
"231 40 LINE"
);
},
{
closed = 1;
nodes = (
"109 573 OFFCURVE",
"123 607 OFFCURVE",
"168 607 CURVE SMOOTH",
"210 607 OFFCURVE",
"231 585 OFFCURVE",
"231 515 CURVE SMOOTH",
"231 468 LINE",
"148 468 OFFCURVE",
"109 491 OFFCURVE",
"109 547 CURVE SMOOTH"
);
}
);
width = 873;
}
);
unicode = 1E852;
category = Letter;
},
{
glyphname = u1E853;
lastChange = "2021-12-15 15:11:38 +0000";
layers = (
{
layerId = UUID0;
paths = (
{
closed = 1;
nodes = (
"277 714 LINE",
"277 420 LINE",
"152 439 OFFCURVE",
"128 560 OFFCURVE",
"125 714 CURVE",
"50 714 LINE",
"54 490 OFFCURVE",
"118 366 OFFCURVE",
"277 350 CURVE",
"277 0 LINE",
"351 0 LINE",
"351 350 LINE",
"506 366 OFFCURVE",
"574 491 OFFCURVE",
"579 714 CURVE",
"503 714 LINE",
"499 560 OFFCURVE",
"477 440 OFFCURVE",
"351 421 CURVE",
"351 714 LINE"
);
}
);
width = 629;
}
);
unicode = 1E853;
category = Letter;
},
{
glyphname = u1E856;
lastChange = "2021-12-15 15:11:38 +0000";
layers = (
{
layerId = UUID0;
paths = (
{
closed = 1;
nodes = (
"50 487 LINE",
"50 199 LINE",
"362 199 LINE",
"353 182 OFFCURVE",
"348 163 OFFCURVE",
"348 143 CURVE SMOOTH",
"348 80 OFFCURVE",
"402 29 OFFCURVE",
"466 29 CURVE SMOOTH",
"529 29 OFFCURVE",
"584 80 OFFCURVE",
"584 143 CURVE SMOOTH",
"584 163 OFFCURVE",
"578 182 OFFCURVE",
"569 199 CURVE",
"778 199 LINE SMOOTH",
"934 199 OFFCURVE",
"986 263 OFFCURVE",
"986 348 CURVE SMOOTH",
"986 434 OFFCURVE",
"908 487 OFFCURVE",
"778 487 CURVE SMOOTH",
"570 487 LINE",
"579 503 OFFCURVE",
"584 521 OFFCURVE",
"584 540 CURVE SMOOTH",
"584 605 OFFCURVE",
"529 655 OFFCURVE",
"466 655 CURVE SMOOTH",
"402 655 OFFCURVE",
"348 605 OFFCURVE",
"348 540 CURVE SMOOTH",
"348 521 OFFCURVE",
"353 503 OFFCURVE",
"361 487 CURVE"
);
},
{
closed = 1;
nodes = (
"778 419 LINE SMOOTH",
"872 419 OFFCURVE",
"910 394 OFFCURVE",
"910 348 CURVE SMOOTH",
"910 309 OFFCURVE",
"893 267 OFFCURVE",
"778 267 CURVE SMOOTH",
"120 267 LINE",
"120 419 LINE"
);
},
{
closed = 1;
nodes = (
"412 172 OFFCURVE",
"431 199 OFFCURVE",
"466 199 CURVE SMOOTH",
"497 199 OFFCURVE",
"520 178 OFFCURVE",
"520 145 CURVE SMOOTH",
"520 113 OFFCURVE",
"497 90 OFFCURVE",
"466 90 CURVE SMOOTH",
"437 90 OFFCURVE",
"412 113 OFFCURVE",
"412 145 CURVE SMOOTH"
);
},
{
closed = 1;
nodes = (
"412 574 OFFCURVE",
"437 596 OFFCURVE",
"466 596 CURVE SMOOTH",
"497 596 OFFCURVE",
"520 575 OFFCURVE",
"520 542 CURVE SMOOTH",
"520 510 OFFCURVE",
"497 487 OFFCURVE",
"466 487 CURVE SMOOTH",
"437 487 OFFCURVE",
"412 510 OFFCURVE",
"412 542 CURVE SMOOTH"
);
}
);
width = 1026;
}
);
unicode = 1E856;
category = Letter;
},
{
glyphname = u1E857;
lastChange = "2021-12-15 15:11:38 +0000";
layers = (
{
layerId = UUID0;
paths = (
{
closed = 1;
nodes = (
"124 524 LINE",
"656 375 LINE",
"676 445 LINE",
"257 552 LINE",
"676 659 LINE",
"656 729 LINE",
"124 580 LINE"
);
},
{
closed = 1;
nodes = (
"124 134 LINE",
"656 -15 LINE",
"676 55 LINE",
"257 162 LINE",
"676 269 LINE",
"656 339 LINE",
"124 190 LINE"
);
},
{
closed = 1;
nodes = (
"137 380 OFFCURVE",
"115 401 OFFCURVE",
"83 401 CURVE SMOOTH",
"52 401 OFFCURVE",
"30 380 OFFCURVE",
"30 347 CURVE SMOOTH",
"30 313 OFFCURVE",
"49 294 OFFCURVE",
"83 294 CURVE SMOOTH",
"115 294 OFFCURVE",
"137 313 OFFCURVE",
"137 347 CURVE SMOOTH"
);
},
{
closed = 1;
nodes = (
"827 380 OFFCURVE",
"805 401 OFFCURVE",
"773 401 CURVE SMOOTH",
"742 401 OFFCURVE",
"720 380 OFFCURVE",
"720 347 CURVE SMOOTH",
"720 313 OFFCURVE",
"739 294 OFFCURVE",
"773 294 CURVE SMOOTH",
"805 294 OFFCURVE",
"827 313 OFFCURVE",
"827 347 CURVE SMOOTH"
);
}
);
width = 857;
}
);
unicode = 1E857;
category = Letter;
},
{
glyphname = u1E858;
lastChange = "2021-12-15 15:11:38 +0000";
layers = (
{
layerId = UUID0;
paths = (
{
closed = 1;
nodes = (
"40 199 OFFCURVE",
"113 130 OFFCURVE",
"199 130 CURVE SMOOTH",
"285 130 OFFCURVE",
"358 199 OFFCURVE",
"358 285 CURVE SMOOTH",
"358 317 OFFCURVE",
"348 347 OFFCURVE",
"330 372 CURVE",
"514 372 LINE",
"514 223 LINE",
"588 223 LINE",
"588 372 LINE",
"746 372 LINE",
"746 440 LINE",
"588 440 LINE",
"588 572 LINE",
"514 572 LINE",
"514 440 LINE",
"199 440 LINE SMOOTH",
"113 440 OFFCURVE",
"40 371 OFFCURVE",
"40 285 CURVE SMOOTH"
);
},
{
closed = 1;
nodes = (
"109 335 OFFCURVE",
"149 375 OFFCURVE",
"199 375 CURVE SMOOTH",
"249 375 OFFCURVE",
"289 335 OFFCURVE",
"289 285 CURVE SMOOTH",
"289 235 OFFCURVE",
"249 195 OFFCURVE",
"199 195 CURVE SMOOTH",
"149 195 OFFCURVE",
"109 235 OFFCURVE",
"109 285 CURVE SMOOTH"
);
}
);
width = 766;
}
);
unicode = 1E858;
category = Letter;
},
{
glyphname = u1E859;
lastChange = "2021-12-15 15:11:38 +0000";
layers = (
{
layerId = UUID0;
paths = (
{
closed = 1;
nodes = (
"698 388 LINE",
"40 388 LINE",
"40 320 LINE",
"555 68 LINE",
"40 68 LINE",
"40 0 LINE",
"698 0 LINE",
"698 67 LINE",
"182 320 LINE",
"698 320 LINE"
);
},
{
closed = 1;
nodes = (
"263 523 LINE",
"446 429 LINE",
"469 487 LINE",
"326 554 LINE",
"469 620 LINE",
"446 676 LINE",
"263 582 LINE"
);
}
);
width = 738;
}
);
unicode = 1E859;
category = Letter;
},
{
glyphname = u1E85A;
lastChange = "2021-12-15 15:11:38 +0000";
layers = (
{
layerId = UUID0;
paths = (
{
closed = 1;
nodes = (
"221 301 OFFCURVE",
"278 248 OFFCURVE",
"345 248 CURVE SMOOTH",
"411 248 OFFCURVE",
"468 301 OFFCURVE",
"468 368 CURVE SMOOTH",
"468 436 OFFCURVE",
"411 489 OFFCURVE",
"345 489 CURVE SMOOTH",
"278 489 OFFCURVE",
"221 436 OFFCURVE",
"221 368 CURVE SMOOTH"
);
},
{
closed = 1;
nodes = (
"287 402 OFFCURVE",
"314 426 OFFCURVE",
"345 426 CURVE SMOOTH",
"376 426 OFFCURVE",
"402 403 OFFCURVE",
"402 369 CURVE SMOOTH",
"402 336 OFFCURVE",
"376 311 OFFCURVE",
"345 311 CURVE SMOOTH",
"314 311 OFFCURVE",
"287 336 OFFCURVE",
"287 369 CURVE SMOOTH"
);
},
{
closed = 1;
nodes = (
"60 209 OFFCURVE",
"188 85 OFFCURVE",
"343 85 CURVE SMOOTH",
"500 85 OFFCURVE",
"628 209 OFFCURVE",
"628 366 CURVE SMOOTH",
"628 522 OFFCURVE",
"500 650 OFFCURVE",
"343 650 CURVE SMOOTH",
"188 650 OFFCURVE",
"60 522 OFFCURVE",
"60 366 CURVE SMOOTH"
);
},
{
closed = 1;
nodes = (
"136 488 OFFCURVE",
"234 580 OFFCURVE",
"343 580 CURVE SMOOTH",
"454 580 OFFCURVE",
"552 488 OFFCURVE",
"552 366 CURVE SMOOTH",
"552 246 OFFCURVE",
"454 155 OFFCURVE",
"343 155 CURVE SMOOTH",
"234 155 OFFCURVE",
"136 246 OFFCURVE",
"136 366 CURVE SMOOTH"
);
}
);
width = 688;
}
);
unicode = 1E85A;
category = Letter;
},
{
glyphname = u1E85E;
lastChange = "2021-12-15 15:11:38 +0000";
layers = (
{
layerId = UUID0;
paths = (
{
closed = 1;
nodes = (
"381 714 LINE",
"381 589 LINE",
"228 589 LINE SMOOTH",
"98 589 OFFCURVE",
"30 546 OFFCURVE",
"30 470 CURVE SMOOTH",
"30 385 OFFCURVE",
"72 341 OFFCURVE",
"228 341 CURVE SMOOTH",
"254 341 LINE",
"254 409 LINE",
"228 409 LINE SMOOTH",
"113 409 OFFCURVE",
"99 431 OFFCURVE",
"99 470 CURVE SMOOTH",
"99 506 OFFCURVE",
"134 521 OFFCURVE",
"228 521 CURVE SMOOTH",
"381 521 LINE",
"381 220 LINE",
"271 220 LINE",
"271 156 LINE",
"381 156 LINE",
"381 0 LINE",
"455 0 LINE",
"455 156 LINE",
"565 156 LINE",
"565 220 LINE",
"455 220 LINE",
"455 521 LINE",
"736 521 LINE",
"736 589 LINE",
"455 589 LINE",
"455 714 LINE"
);
}
);
width = 756;
}
);
unicode = 1E85E;
category = Letter;
},
{
glyphname = u1E85F;
lastChange = "2021-12-15 15:11:38 +0000";
layers = (
{
layerId = UUID0;
paths = (
{
closed = 1;
nodes = (
"309 714 LINE",
"309 547 LINE",
"67 642 LINE",
"40 574 LINE",
"309 469 LINE",
"309 268 LINE",
"40 164 LINE",
"67 96 LINE",
"309 191 LINE",
"309 0 LINE",
"383 0 LINE",
"383 220 LINE",
"673 334 LINE",
"673 404 LINE",
"383 518 LINE",
"383 714 LINE"
);
},
{
closed = 1;
nodes = (
"567 369 LINE",
"383 297 LINE",
"383 440 LINE"
);
}
);
width = 713;
}
);
unicode = 1E85F;
category = Letter;
},
{
glyphname = u1E860;
lastChange = "2021-12-15 15:11:38 +0000";
layers = (
{
layerId = UUID0;
paths = (
{
closed = 1;
nodes = (
"1101 672 OFFCURVE",
"1044 725 OFFCURVE",
"977 725 CURVE SMOOTH",
"911 725 OFFCURVE",
"854 672 OFFCURVE",
"854 604 CURVE SMOOTH",
"854 596 OFFCURVE",
"855 588 OFFCURVE",
"856 580 CURVE",
"488 471 LINE",
"419 528 OFFCURVE",
"321 596 OFFCURVE",
"210 596 CURVE SMOOTH",
"110 596 OFFCURVE",
"40 553 OFFCURVE",
"40 469 CURVE SMOOTH",
"40 421 OFFCURVE",
"75 352 OFFCURVE",
"223 352 CURVE SMOOTH",
"286 352 OFFCURVE",
"370 372 OFFCURVE",
"447 395 CURVE SMOOTH",
"467 401 LINE",
"599 289 LINE",
"258 187 LINE",
"235 213 OFFCURVE",
"201 229 OFFCURVE",
"165 229 CURVE SMOOTH",
"98 229 OFFCURVE",
"41 176 OFFCURVE",
"41 109 CURVE SMOOTH",
"41 41 OFFCURVE",
"98 -12 OFFCURVE",
"165 -12 CURVE SMOOTH",
"231 -12 OFFCURVE",
"288 41 OFFCURVE",
"288 109 CURVE SMOOTH",
"288 117 OFFCURVE",
"287 125 OFFCURVE",
"285 132 CURVE",
"653 242 LINE",
"722 185 OFFCURVE",
"821 117 OFFCURVE",
"932 117 CURVE SMOOTH",
"1032 117 OFFCURVE",
"1102 160 OFFCURVE",
"1102 244 CURVE SMOOTH",
"1102 292 OFFCURVE",
"1067 361 OFFCURVE",
"919 361 CURVE SMOOTH",
"856 361 OFFCURVE",
"772 341 OFFCURVE",
"695 318 CURVE SMOOTH",
"675 312 LINE",
"543 424 LINE",
"884 526 LINE",
"907 500 OFFCURVE",
"940 484 OFFCURVE",
"977 484 CURVE SMOOTH",
"1044 484 OFFCURVE",
"1101 537 OFFCURVE",
"1101 604 CURVE SMOOTH"
);
},
{
closed = 1;
nodes = (
"767 276 LINE SMOOTH",
"807 288 OFFCURVE",
"860 298 OFFCURVE",
"910 298 CURVE SMOOTH",
"996 298 OFFCURVE",
"1036 274 OFFCURVE",
"1036 244 CURVE SMOOTH",
"1036 207 OFFCURVE",
"1006 180 OFFCURVE",
"930 180 CURVE SMOOTH",
"857 180 OFFCURVE",
"798 214 OFFCURVE",
"732 265 CURVE"
);
},
{
closed = 1;
nodes = (
"146 415 OFFCURVE",
"106 439 OFFCURVE",
"106 469 CURVE SMOOTH",
"106 506 OFFCURVE",
"136 533 OFFCURVE",
"212 533 CURVE SMOOTH",
"284 533 OFFCURVE",
"344 499 OFFCURVE",
"410 447 CURVE",
"375 437 LINE SMOOTH",
"335 425 OFFCURVE",
"282 415 OFFCURVE",
"232 415 CURVE SMOOTH"
);
},
{
closed = 1;
nodes = (
"1035 572 OFFCURVE",
"1008 547 OFFCURVE",
"977 547 CURVE SMOOTH",
"946 547 OFFCURVE",
"920 572 OFFCURVE",
"920 605 CURVE SMOOTH",
"920 639 OFFCURVE",
"946 662 OFFCURVE",
"977 662 CURVE SMOOTH",
"1008 662 OFFCURVE",
"1035 638 OFFCURVE",
"1035 605 CURVE SMOOTH"
);
},
{
closed = 1;
nodes = (
"107 141 OFFCURVE",
"134 166 OFFCURVE",
"165 166 CURVE SMOOTH",
"196 166 OFFCURVE",
"222 141 OFFCURVE",
"222 108 CURVE SMOOTH",
"222 74 OFFCURVE",
"196 51 OFFCURVE",
"165 51 CURVE SMOOTH",
"134 51 OFFCURVE",
"107 75 OFFCURVE",
"107 108 CURVE SMOOTH"
);
}
);
width = 1142;
}
);
unicode = 1E860;
category = Letter;
},
{
glyphname = u1E861;
lastChange = "2021-12-15 15:11:38 +0000";
layers = (
{
layerId = UUID0;
paths = (
{
closed = 1;
nodes = (
"186 555 LINE",
"186 400 LINE",
"128 400 LINE",
"128 555 LINE",
"60 555 LINE",
"60 210 LINE",
"128 210 LINE",
"128 332 LINE",
"186 332 LINE",
"186 210 LINE",
"254 210 LINE",
"254 332 LINE",
"416 332 LINE",
"403 311 OFFCURVE",
"396 287 OFFCURVE",
"396 261 CURVE SMOOTH",
"396 186 OFFCURVE",
"460 126 OFFCURVE",
"535 126 CURVE SMOOTH",
"610 126 OFFCURVE",
"674 186 OFFCURVE",
"674 261 CURVE SMOOTH",
"674 287 OFFCURVE",
"666 311 OFFCURVE",
"653 332 CURVE",
"806 332 LINE",
"793 311 OFFCURVE",
"786 287 OFFCURVE",
"786 261 CURVE SMOOTH",
"786 186 OFFCURVE",
"850 126 OFFCURVE",
"925 126 CURVE SMOOTH",
"1000 126 OFFCURVE",
"1064 186 OFFCURVE",
"1064 261 CURVE SMOOTH",
"1064 337 OFFCURVE",
"1000 400 OFFCURVE",
"925 400 CURVE SMOOTH",
"254 400 LINE",
"254 555 LINE"
);
},
{
closed = 1;
nodes = (
"855 301 OFFCURVE",
"887 332 OFFCURVE",
"925 332 CURVE SMOOTH",
"963 332 OFFCURVE",
"995 302 OFFCURVE",
"995 261 CURVE SMOOTH",
"995 222 OFFCURVE",
"963 191 OFFCURVE",
"925 191 CURVE SMOOTH",
"887 191 OFFCURVE",
"855 222 OFFCURVE",
"855 261 CURVE SMOOTH"
);
},
{
closed = 1;
nodes = (
"465 301 OFFCURVE",
"497 332 OFFCURVE",
"535 332 CURVE SMOOTH",
"573 332 OFFCURVE",
"605 302 OFFCURVE",
"605 261 CURVE SMOOTH",
"605 222 OFFCURVE",
"573 191 OFFCURVE",
"535 191 CURVE SMOOTH",
"497 191 OFFCURVE",
"465 222 OFFCURVE",
"465 261 CURVE SMOOTH"
);
}
);
width = 1104;
}
);
unicode = 1E861;
category = Letter;
},
{
glyphname = u1E862;
lastChange = "2021-12-15 15:11:38 +0000";
layers = (
{
layerId = UUID0;
paths = (
{
closed = 1;
nodes = (
"80 48 OFFCURVE",
"144 -12 OFFCURVE",
"219 -12 CURVE SMOOTH",
"294 -12 OFFCURVE",
"358 48 OFFCURVE",
"358 123 CURVE SMOOTH",
"358 187 OFFCURVE",
"313 239 OFFCURVE",
"254 254 CURVE",
"254 340 LINE",
"368 380 LINE",
"368 448 LINE",
"254 408 LINE",
"254 460 LINE",
"313 475 OFFCURVE",
"358 528 OFFCURVE",
"358 591 CURVE SMOOTH",
"358 667 OFFCURVE",
"294 727 OFFCURVE",
"219 727 CURVE SMOOTH",
"144 727 OFFCURVE",
"80 667 OFFCURVE",
"80 591 CURVE SMOOTH",
"80 528 OFFCURVE",
"125 475 OFFCURVE",
"184 460 CURVE",
"184 384 LINE",
"70 345 LINE",
"70 277 LINE",
"184 316 LINE",
"184 254 LINE",
"125 239 OFFCURVE",
"80 187 OFFCURVE",
"80 123 CURVE SMOOTH"
);
},
{
closed = 1;
nodes = (
"149 631 OFFCURVE",
"181 662 OFFCURVE",
"219 662 CURVE SMOOTH",
"257 662 OFFCURVE",
"289 632 OFFCURVE",
"289 591 CURVE SMOOTH",
"289 552 OFFCURVE",
"257 521 OFFCURVE",
"219 521 CURVE SMOOTH",
"181 521 OFFCURVE",
"149 552 OFFCURVE",
"149 591 CURVE SMOOTH"
);
},
{
closed = 1;
nodes = (
"149 163 OFFCURVE",
"181 194 OFFCURVE",
"219 194 CURVE SMOOTH",
"257 194 OFFCURVE",
"289 164 OFFCURVE",
"289 123 CURVE SMOOTH",
"289 84 OFFCURVE",
"257 53 OFFCURVE",
"219 53 CURVE SMOOTH",
"181 53 OFFCURVE",
"149 84 OFFCURVE",
"149 123 CURVE SMOOTH"
);
}
);
width = 438;
}
);
unicode = 1E862;
category = Letter;
},
{
glyphname = u1E863;
lastChange = "2021-12-15 15:11:38 +0000";
layers = (
{
layerId = UUID0;
paths = (
{
closed = 1;
nodes = (
"118 510 LINE",
"50 510 LINE",
"50 332 LINE",
"597 332 LINE",
"50 65 LINE",
"84 0 LINE",
"740 332 LINE",
"740 400 LINE",
"118 400 LINE"
);
}
);
width = 780;
}
);
unicode = 1E863;
category = Letter;
},
{
glyphname = u1E867;
lastChange = "2021-12-15 15:11:38 +0000";
layers = (
{
layerId = UUID0;
paths = (
{
closed = 1;
nodes = (
"147 650 LINE",
"147 102 LINE",
"221 102 LINE",
"221 650 LINE"
);
},
{
closed = 1;
nodes = (
"147 81 OFFCURVE",
"125 102 OFFCURVE",
"93 102 CURVE SMOOTH",
"62 102 OFFCURVE",
"40 81 OFFCURVE",
"40 48 CURVE SMOOTH",
"40 14 OFFCURVE",
"59 -5 OFFCURVE",
"93 -5 CURVE SMOOTH",
"125 -5 OFFCURVE",
"147 14 OFFCURVE",
"147 48 CURVE SMOOTH"
);
},
{
closed = 1;
nodes = (
"328 81 OFFCURVE",
"305 102 OFFCURVE",
"274 102 CURVE SMOOTH",
"243 102 OFFCURVE",
"221 81 OFFCURVE",
"221 48 CURVE SMOOTH",
"221 14 OFFCURVE",
"240 -5 OFFCURVE",
"274 -5 CURVE SMOOTH",
"306 -5 OFFCURVE",
"328 14 OFFCURVE",
"328 48 CURVE SMOOTH"
);
},
{
closed = 1;
nodes = (
"147 736 OFFCURVE",
"125 757 OFFCURVE",
"93 757 CURVE SMOOTH",
"62 757 OFFCURVE",
"40 736 OFFCURVE",
"40 703 CURVE SMOOTH",
"40 669 OFFCURVE",
"59 650 OFFCURVE",
"93 650 CURVE SMOOTH",
"125 650 OFFCURVE",
"147 669 OFFCURVE",
"147 703 CURVE SMOOTH"
);
},
{
closed = 1;
nodes = (
"328 736 OFFCURVE",
"305 757 OFFCURVE",
"274 757 CURVE SMOOTH",
"243 757 OFFCURVE",
"221 736 OFFCURVE",
"221 703 CURVE SMOOTH",
"221 669 OFFCURVE",
"240 650 OFFCURVE",
"274 650 CURVE SMOOTH",
"306 650 OFFCURVE",
"328 669 OFFCURVE",
"328 703 CURVE SMOOTH"
);
}
);
width = 368;
}
);
unicode = 1E867;
category = Letter;
},
{
glyphname = u1E868;
lastChange = "2021-12-15 15:11:38 +0000";
layers = (
{
layerId = UUID0;
paths = (
{
closed = 1;
nodes = (
"293 404 OFFCURVE",
"293 414 OFFCURVE",
"293 422 CURVE SMOOTH",
"293 512 OFFCURVE",
"242 556 OFFCURVE",
"166 556 CURVE SMOOTH",
"97 556 OFFCURVE",
"50 506 OFFCURVE",
"50 447 CURVE SMOOTH",
"50 368 OFFCURVE",
"103 313 OFFCURVE",
"203 313 CURVE SMOOTH",
"213 313 LINE",
"213 311 OFFCURVE",
"212 306 OFFCURVE",
"211 302 CURVE SMOOTH",
"145 0 LINE",
"216 0 LINE",
"277 279 LINE SMOOTH",
"280 294 OFFCURVE",
"283 310 OFFCURVE",
"285 326 CURVE",
"355 348 OFFCURVE",
"416 381 OFFCURVE",
"481 401 CURVE",
"481 374 LINE SMOOTH",
"481 284 OFFCURVE",
"532 240 OFFCURVE",
"608 240 CURVE SMOOTH",
"677 240 OFFCURVE",
"724 290 OFFCURVE",
"724 349 CURVE SMOOTH",
"724 428 OFFCURVE",
"671 483 OFFCURVE",
"571 483 CURVE SMOOTH",
"567 483 OFFCURVE",
"561 482 OFFCURVE",
"560 482 CURVE",
"576 554 LINE",
"704 554 LINE",
"704 612 LINE",
"588 612 LINE",
"611 714 LINE",
"540 714 LINE",
"517 612 LINE",
"410 612 LINE",
"410 554 LINE",
"505 554 LINE",
"493 501 OFFCURVE",
"491 485 OFFCURVE",
"488 469 CURVE",
"420 448 OFFCURVE",
"359 413 OFFCURVE",
"292 394 CURVE"
);
},
{
closed = 1;
nodes = (
"645 418 OFFCURVE",
"655 386 OFFCURVE",
"655 349 CURVE SMOOTH",
"655 323 OFFCURVE",
"631 305 OFFCURVE",
"608 305 CURVE SMOOTH",
"584 305 OFFCURVE",
"550 322 OFFCURVE",
"550 374 CURVE SMOOTH",
"550 389 OFFCURVE",
"550 403 OFFCURVE",
"551 417 CURVE",
"558 418 OFFCURVE",
"563 418 OFFCURVE",
"569 418 CURVE SMOOTH"
);
},
{
closed = 1;
nodes = (
"129 378 OFFCURVE",
"119 410 OFFCURVE",
"119 447 CURVE SMOOTH",
"119 473 OFFCURVE",
"143 491 OFFCURVE",
"166 491 CURVE SMOOTH",
"190 491 OFFCURVE",
"224 474 OFFCURVE",
"224 422 CURVE SMOOTH",
"224 407 OFFCURVE",
"223 393 OFFCURVE",
"222 379 CURVE",
"216 378 OFFCURVE",
"210 378 OFFCURVE",
"205 378 CURVE SMOOTH"
);
}
);
width = 774;
}
);
unicode = 1E868;
category = Letter;
},
{
glyphname = u1E86A;
lastChange = "2021-12-15 15:11:38 +0000";
layers = (
{
layerId = UUID0;
paths = (
{
closed = 1;
nodes = (
"395 312 LINE",
"147 312 LINE",
"165 432 LINE",
"495 432 LINE",
"495 496 LINE",
"174 496 LINE",
"207 714 LINE",
"137 714 LINE",
"30 0 LINE",
"101 0 LINE",
"138 248 LINE",
"395 248 LINE"
);
}
);
width = 525;
}
);
unicode = 1E86A;
category = Letter;
},
{
glyphname = u1E86B;
lastChange = "2021-12-15 15:11:38 +0000";
layers = (
{
layerId = UUID0;
paths = (
{
closed = 1;
nodes = (
"513 415 OFFCURVE",
"531 416 OFFCURVE",
"550 416 CURVE SMOOTH",
"672 416 OFFCURVE",
"736 317 OFFCURVE",
"742 248 CURVE",
"811 248 LINE",
"811 333 OFFCURVE",
"733 484 OFFCURVE",
"544 484 CURVE SMOOTH",
"500 484 OFFCURVE",
"457 477 OFFCURVE",
"420 462 CURVE",
"383 477 OFFCURVE",
"341 484 OFFCURVE",
"297 484 CURVE SMOOTH",
"111 484 OFFCURVE",
"30 333 OFFCURVE",
"30 248 CURVE",
"99 248 LINE",
"105 317 OFFCURVE",
"169 416 OFFCURVE",
"291 416 CURVE SMOOTH",
"310 416 OFFCURVE",
"328 415 OFFCURVE",
"345 412 CURVE",
"311 378 OFFCURVE",
"291 331 OFFCURVE",
"291 271 CURVE SMOOTH",
"291 187 OFFCURVE",
"337 118 OFFCURVE",
"418 118 CURVE SMOOTH",
"506 118 OFFCURVE",
"550 187 OFFCURVE",
"550 271 CURVE SMOOTH",
"550 331 OFFCURVE",
"529 378 OFFCURVE",
"496 412 CURVE"
);
},
{
closed = 1;
nodes = (
"455 366 OFFCURVE",
"476 331 OFFCURVE",
"476 275 CURVE SMOOTH",
"476 223 OFFCURVE",
"456 186 OFFCURVE",
"421 186 CURVE SMOOTH",
"374 186 OFFCURVE",
"365 240 OFFCURVE",
"365 275 CURVE SMOOTH",
"365 331 OFFCURVE",
"385 366 OFFCURVE",
"420 388 CURVE"
);
}
);
width = 841;
}
);
unicode = 1E86B;
category = Letter;
},
{
glyphname = u1E86C;
lastChange = "2021-12-15 15:11:38 +0000";
layers = (
{
layerId = UUID0;
paths = (
{
closed = 1;
nodes = (
"90 650 LINE",
"90 40 LINE",
"488 40 LINE",
"488 650 LINE"
);
},
{
closed = 1;
nodes = (
"164 582 LINE",
"414 582 LINE",
"414 108 LINE",
"164 108 LINE"
);
},
{
closed = 1;
nodes = (
"343 481 OFFCURVE",
"321 502 OFFCURVE",
"289 502 CURVE SMOOTH",
"258 502 OFFCURVE",
"236 481 OFFCURVE",
"236 448 CURVE SMOOTH",
"236 414 OFFCURVE",
"255 395 OFFCURVE",
"289 395 CURVE SMOOTH",
"321 395 OFFCURVE",
"343 414 OFFCURVE",
"343 448 CURVE SMOOTH"
);
},
{
closed = 1;
nodes = (
"343 291 OFFCURVE",
"321 312 OFFCURVE",
"289 312 CURVE SMOOTH",
"258 312 OFFCURVE",
"236 291 OFFCURVE",
"236 258 CURVE SMOOTH",
"236 224 OFFCURVE",
"255 205 OFFCURVE",
"289 205 CURVE SMOOTH",
"321 205 OFFCURVE",
"343 224 OFFCURVE",
"343 258 CURVE SMOOTH"
);
}
);
width = 634;
}
);
unicode = 1E86C;
category = Letter;
},
{
glyphname = u1E86F;
lastChange = "2021-12-15 15:11:38 +0000";
layers = (
{
layerId = UUID0;
paths = (
{
closed = 1;
nodes = (
"618 326 LINE",
"618 482 OFFCURVE",
"490 610 OFFCURVE",
"333 610 CURVE SMOOTH",
"178 610 OFFCURVE",
"50 482 OFFCURVE",
"50 326 CURVE",
"126 326 LINE",
"126 448 OFFCURVE",
"224 540 OFFCURVE",
"333 540 CURVE SMOOTH",
"444 540 OFFCURVE",
"542 448 OFFCURVE",
"542 326 CURVE"
);
},
{
closed = 1;
nodes = (
"762 360 LINE",
"762 238 OFFCURVE",
"664 146 OFFCURVE",
"553 146 CURVE SMOOTH",
"444 146 OFFCURVE",
"346 238 OFFCURVE",
"346 360 CURVE",
"270 360 LINE",
"270 204 OFFCURVE",
"398 76 OFFCURVE",
"553 76 CURVE SMOOTH",
"710 76 OFFCURVE",
"838 204 OFFCURVE",
"838 360 CURVE"
);
}
);
width = 888;
}
);
unicode = 1E86F;
category = Letter;
},
{
glyphname = u1E870;
lastChange = "2021-12-15 15:11:38 +0000";
layers = (
{
layerId = UUID0;
paths = (
{
closed = 1;
nodes = (
"212 118 OFFCURVE",
"260 163 OFFCURVE",
"260 221 CURVE SMOOTH",
"260 278 OFFCURVE",
"212 323 OFFCURVE",
"155 323 CURVE SMOOTH",
"145 323 OFFCURVE",
"135 321 OFFCURVE",
"126 319 CURVE",
"147 387 OFFCURVE",
"223 436 OFFCURVE",
"314 436 CURVE SMOOTH",
"352 436 OFFCURVE",
"383 431 OFFCURVE",
"408 422 CURVE",
"387 396 OFFCURVE",
"374 363 OFFCURVE",
"374 325 CURVE SMOOTH",
"374 267 OFFCURVE",
"410 212 OFFCURVE",
"467 212 CURVE SMOOTH",
"527 212 OFFCURVE",
"561 264 OFFCURVE",
"561 325 CURVE SMOOTH",
"561 363 OFFCURVE",
"548 396 OFFCURVE",
"526 422 CURVE",
"549 430 OFFCURVE",
"578 435 OFFCURVE",
"611 436 CURVE",
"611 328 LINE",
"679 328 LINE",
"679 429 LINE",
"743 413 OFFCURVE",
"792 372 OFFCURVE",
"809 319 CURVE",
"800 321 OFFCURVE",
"790 323 OFFCURVE",
"780 323 CURVE SMOOTH",
"723 323 OFFCURVE",
"675 278 OFFCURVE",
"675 221 CURVE SMOOTH",
"675 163 OFFCURVE",
"723 118 OFFCURVE",
"780 118 CURVE SMOOTH",
"837 118 OFFCURVE",
"885 162 OFFCURVE",
"885 236 CURVE SMOOTH",
"885 376 OFFCURVE",
"800 472 OFFCURVE",
"679 497 CURVE",
"679 650 LINE",
"611 650 LINE",
"611 504 LINE",
"559 503 OFFCURVE",
"508 492 OFFCURVE",
"467 470 CURVE",
"425 492 OFFCURVE",
"373 504 OFFCURVE",
"320 504 CURVE SMOOTH",
"166 504 OFFCURVE",
"50 400 OFFCURVE",
"50 236 CURVE SMOOTH",
"50 162 OFFCURVE",
"98 118 OFFCURVE",
"155 118 CURVE SMOOTH"
);
},
{
closed = 1;
nodes = (
"821 196 OFFCURVE",
"803 179 OFFCURVE",
"780 179 CURVE SMOOTH",
"757 179 OFFCURVE",
"739 195 OFFCURVE",
"739 220 CURVE SMOOTH",
"739 243 OFFCURVE",
"757 261 OFFCURVE",
"780 261 CURVE SMOOTH",
"803 261 OFFCURVE",
"821 243 OFFCURVE",
"821 220 CURVE SMOOTH"
);
},
{
closed = 1;
nodes = (
"114 243 OFFCURVE",
"132 261 OFFCURVE",
"155 261 CURVE SMOOTH",
"178 261 OFFCURVE",
"196 243 OFFCURVE",
"196 220 CURVE SMOOTH",
"196 195 OFFCURVE",
"178 179 OFFCURVE",
"155 179 CURVE SMOOTH",
"132 179 OFFCURVE",
"114 196 OFFCURVE",
"114 220 CURVE SMOOTH"
);
},
{
closed = 1;
nodes = (
"495 298 OFFCURVE",
"489 275 OFFCURVE",
"468 275 CURVE SMOOTH",
"446 275 OFFCURVE",
"440 298 OFFCURVE",
"440 323 CURVE SMOOTH",
"440 346 OFFCURVE",
"448 369 OFFCURVE",
"467 388 CURVE",
"486 369 OFFCURVE",
"495 346 OFFCURVE",
"495 323 CURVE SMOOTH"
);
}
);
width = 935;
}
);
unicode = 1E870;
category = Letter;
},
{
glyphname = u1E871;
lastChange = "2021-12-15 15:11:38 +0000";
layers = (
{
layerId = UUID0;
paths = (
{
closed = 1;
nodes = (
"85 405 LINE",
"197 353 LINE",
"127 295 OFFCURVE",
"60 234 OFFCURVE",
"60 158 CURVE SMOOTH",
"60 75 OFFCURVE",
"107 -12 OFFCURVE",
"242 -12 CURVE SMOOTH",
"378 -12 OFFCURVE",
"432 89 OFFCURVE",
"432 172 CURVE",
"359 172 LINE",
"359 113 OFFCURVE",
"333 56 OFFCURVE",
"243 56 CURVE SMOOTH",
"164 56 OFFCURVE",
"136 98 OFFCURVE",
"136 158 CURVE SMOOTH",
"136 217 OFFCURVE",
"196 269 OFFCURVE",
"262 323 CURVE",
"398 261 LINE",
"429 318 LINE",
"317 369 LINE",
"379 423 OFFCURVE",
"433 482 OFFCURVE",
"433 557 CURVE SMOOTH",
"433 640 OFFCURVE",
"386 727 OFFCURVE",
"251 727 CURVE SMOOTH",
"115 727 OFFCURVE",
"61 626 OFFCURVE",
"61 543 CURVE",
"134 543 LINE",
"134 602 OFFCURVE",
"160 659 OFFCURVE",
"250 659 CURVE SMOOTH",
"329 659 OFFCURVE",
"357 617 OFFCURVE",
"357 557 CURVE SMOOTH",
"357 498 OFFCURVE",
"309 448 OFFCURVE",
"252 399 CURVE",
"117 462 LINE"
);
}
);
width = 493;
}
);
unicode = 1E871;
category = Letter;
},
{
glyphname = u1E872;
lastChange = "2021-12-15 15:11:38 +0000";
layers = (
{
layerId = UUID0;
paths = (
{
closed = 1;
nodes = (
"60 675 LINE",
"133 623 OFFCURVE",
"197 552 OFFCURVE",
"252 473 CURVE",
"161 326 OFFCURVE",
"101 153 OFFCURVE",
"80 0 CURVE",
"157 0 LINE",
"171 123 OFFCURVE",
"220 270 OFFCURVE",
"296 402 CURVE",
"373 270 OFFCURVE",
"422 123 OFFCURVE",
"436 0 CURVE",
"513 0 LINE",
"491 153 OFFCURVE",
"432 326 OFFCURVE",
"341 473 CURVE",
"395 552 OFFCURVE",
"460 623 OFFCURVE",
"533 675 CURVE",
"496 732 LINE",
"420 684 OFFCURVE",
"353 617 OFFCURVE",
"296 539 CURVE",
"239 617 OFFCURVE",
"172 684 OFFCURVE",
"97 732 CURVE"
);
}
);
width = 593;
}
);
unicode = 1E872;
category = Letter;
},
{
glyphname = u1E873;
lastChange = "2021-12-15 15:11:38 +0000";
layers = (
{
layerId = UUID0;
paths = (
{
closed = 1;
nodes = (
"228 0 LINE",
"303 0 LINE",
"383 278 LINE",
"535 278 LINE",
"535 342 LINE",
"401 342 LINE",
"509 714 LINE",
"435 714 LINE",
"395 616 OFFCURVE",
"321 585 OFFCURVE",
"231 585 CURVE SMOOTH",
"135 585 OFFCURVE",
"96 638 OFFCURVE",
"96 714 CURVE",
"20 714 LINE",
"20 629 OFFCURVE",
"67 515 OFFCURVE",
"228 515 CURVE SMOOTH",
"291 515 OFFCURVE",
"347 532 OFFCURVE",
"389 558 CURVE",
"327 342 LINE",
"171 342 LINE",
"171 278 LINE",
"308 278 LINE"
);
}
);
width = 555;
}
);
unicode = 1E873;
category = Letter;
},
{
glyphname = u1E874;
lastChange = "2021-12-15 15:11:38 +0000";
layers = (
{
layerId = UUID0;
paths = (
{
closed = 1;
nodes = (
"587 493 LINE",
"524 472 LINE",
"524 567 LINE",
"333 567 LINE",
"333 638 LINE SMOOTH",
"333 667 OFFCURVE",
"346 686 OFFCURVE",
"374 686 CURVE SMOOTH",
"392 686 OFFCURVE",
"411 678 OFFCURVE",
"411 646 CURVE",
"475 646 LINE",
"475 709 OFFCURVE",
"438 747 OFFCURVE",
"365 747 CURVE SMOOTH",
"308 747 OFFCURVE",
"259 705 OFFCURVE",
"259 646 CURVE SMOOTH",
"259 567 LINE",
"106 567 LINE",
"106 336 LINE",
"20 308 LINE",
"38 249 LINE",
"106 271 LINE",
"106 167 LINE",
"297 167 LINE",
"297 97 LINE SMOOTH",
"297 68 OFFCURVE",
"284 49 OFFCURVE",
"256 49 CURVE SMOOTH",
"238 49 OFFCURVE",
"219 57 OFFCURVE",
"219 89 CURVE",
"155 89 LINE",
"155 26 OFFCURVE",
"192 -12 OFFCURVE",
"265 -12 CURVE SMOOTH",
"322 -12 OFFCURVE",
"371 30 OFFCURVE",
"371 89 CURVE SMOOTH",
"371 167 LINE",
"524 167 LINE",
"524 408 LINE",
"610 436 LINE"
);
},
{
closed = 1;
nodes = (
"176 294 LINE",
"454 385 LINE",
"454 231 LINE",
"176 231 LINE"
);
},
{
closed = 1;
nodes = (
"176 503 LINE",
"454 503 LINE",
"454 449 LINE",
"176 359 LINE"
);
}
);
width = 630;
}
);
unicode = 1E874;
category = Letter;
},
{
glyphname = u1E875;
lastChange = "2021-12-15 15:11:38 +0000";
layers = (
{
layerId = UUID0;
paths = (
{
closed = 1;
nodes = (
"228 0 LINE",
"303 0 LINE",
"509 714 LINE",
"435 714 LINE",
"406 630 OFFCURVE",
"321 585 OFFCURVE",
"231 585 CURVE SMOOTH",
"135 585 OFFCURVE",
"96 638 OFFCURVE",
"96 714 CURVE",
"20 714 LINE",
"20 629 OFFCURVE",
"67 515 OFFCURVE",
"228 515 CURVE SMOOTH",
"291 515 OFFCURVE",
"347 532 OFFCURVE",
"389 558 CURVE"
);
},
{
closed = 1;
nodes = (
"248 344 OFFCURVE",
"226 365 OFFCURVE",
"194 365 CURVE SMOOTH",
"163 365 OFFCURVE",
"141 344 OFFCURVE",
"141 311 CURVE SMOOTH",
"141 277 OFFCURVE",
"160 258 OFFCURVE",
"194 258 CURVE SMOOTH",
"226 258 OFFCURVE",
"248 277 OFFCURVE",
"248 311 CURVE SMOOTH"
);
}
);
width = 529;
}
);
unicode = 1E875;
category = Letter;
},
{
glyphname = u1E876;
lastChange = "2021-12-15 15:11:38 +0000";
layers = (
{
layerId = UUID0;
paths = (
{
closed = 1;
nodes = (
"549 522 LINE",
"664 637 LINE",
"620 681 LINE",
"505 566 LINE",
"370 701 LINE",
"38 369 LINE",
"359 50 LINE",
"691 382 LINE"
);
},
{
closed = 1;
nodes = (
"354 327 LINE",
"501 474 LINE",
"598 377 LINE",
"361 140 LINE",
"130 373 LINE",
"366 609 LINE",
"457 518 LINE",
"310 371 LINE"
);
}
);
width = 730;
}
);
unicode = 1E876;
category = Letter;
},
{
glyphname = u1E877;
lastChange = "2021-12-15 15:11:38 +0000";
layers = (
{
layerId = UUID0;
paths = (
{
closed = 1;
nodes = (
"119 546 LINE",
"109 565 OFFCURVE",
"106 582 OFFCURVE",
"106 597 CURVE SMOOTH",
"106 637 OFFCURVE",
"129 654 OFFCURVE",
"165 654 CURVE SMOOTH",
"239 654 OFFCURVE",
"250 591 OFFCURVE",
"362 591 CURVE SMOOTH",
"395 591 OFFCURVE",
"420 594 OFFCURVE",
"446 608 CURVE",
"356 386 LINE",
"306 386 LINE",
"292 426 OFFCURVE",
"252 455 OFFCURVE",
"207 455 CURVE SMOOTH",
"150 455 OFFCURVE",
"102 410 OFFCURVE",
"102 353 CURVE SMOOTH",
"102 295 OFFCURVE",
"150 250 OFFCURVE",
"207 250 CURVE SMOOTH",
"253 250 OFFCURVE",
"293 280 OFFCURVE",
"307 322 CURVE",
"331 322 LINE",
"202 0 LINE",
"281 0 LINE",
"410 322 LINE",
"459 322 LINE",
"473 279 OFFCURVE",
"513 250 OFFCURVE",
"560 250 CURVE SMOOTH",
"617 250 OFFCURVE",
"665 295 OFFCURVE",
"665 353 CURVE SMOOTH",
"665 410 OFFCURVE",
"617 455 OFFCURVE",
"560 455 CURVE SMOOTH",
"514 455 OFFCURVE",
"474 426 OFFCURVE",
"460 386 CURVE",
"435 386 LINE",
"567 714 LINE",
"499 714 LINE",
"475 669 OFFCURVE",
"418 657 OFFCURVE",
"374 657 CURVE SMOOTH",
"266 657 OFFCURVE",
"266 720 OFFCURVE",
"165 720 CURVE SMOOTH",
"98 720 OFFCURVE",
"30 676 OFFCURVE",
"30 594 CURVE SMOOTH",
"30 570 OFFCURVE",
"35 543 OFFCURVE",
"50 515 CURVE"
);
},
{
closed = 1;
nodes = (
"516 376 OFFCURVE",
"536 396 OFFCURVE",
"559 396 CURVE SMOOTH",
"584 396 OFFCURVE",
"604 376 OFFCURVE",
"604 351 CURVE SMOOTH",
"604 326 OFFCURVE",
"584 308 OFFCURVE",
"559 308 CURVE SMOOTH",
"536 308 OFFCURVE",
"516 327 OFFCURVE",
"516 351 CURVE SMOOTH"
);
},
{
closed = 1;
nodes = (
"163 376 OFFCURVE",
"183 396 OFFCURVE",
"206 396 CURVE SMOOTH",
"231 396 OFFCURVE",
"251 376 OFFCURVE",
"251 351 CURVE SMOOTH",
"251 326 OFFCURVE",
"231 308 OFFCURVE",
"206 308 CURVE SMOOTH",
"183 308 OFFCURVE",
"163 327 OFFCURVE",
"163 351 CURVE SMOOTH"
);
}
);
width = 685;
}
);
unicode = 1E877;
category = Letter;
},
{
glyphname = u1E879;
lastChange = "2021-12-15 15:11:38 +0000";
layers = (
{
layerId = UUID0;
paths = (
{
closed = 1;
nodes = (
"508 624 LINE",
"369 624 LINE",
"369 714 LINE",
"295 714 LINE",
"295 624 LINE",
"124 624 LINE",
"124 560 LINE",
"295 560 LINE",
"295 499 LINE",
"286 501 OFFCURVE",
"274 502 OFFCURVE",
"264 502 CURVE SMOOTH",
"154 502 OFFCURVE",
"60 424 OFFCURVE",
"60 312 CURVE SMOOTH",
"60 201 OFFCURVE",
"154 124 OFFCURVE",
"264 124 CURVE SMOOTH",
"274 124 OFFCURVE",
"285 124 OFFCURVE",
"295 126 CURVE",
"295 0 LINE",
"369 0 LINE",
"369 560 LINE",
"508 560 LINE"
);
},
{
closed = 1;
nodes = (
"195 194 OFFCURVE",
"136 241 OFFCURVE",
"136 312 CURVE SMOOTH",
"136 388 OFFCURVE",
"195 432 OFFCURVE",
"263 432 CURVE SMOOTH",
"274 432 OFFCURVE",
"285 431 OFFCURVE",
"295 428 CURVE",
"295 198 LINE",
"284 195 OFFCURVE",
"273 194 OFFCURVE",
"263 194 CURVE SMOOTH"
);
}
);
width = 528;
}
);
unicode = 1E879;
category = Letter;
},
{
glyphname = u1E87A;
lastChange = "2021-12-15 15:11:38 +0000";
layers = (
{
layerId = UUID0;
paths = (
{
closed = 1;
nodes = (
"646 280 LINE",
"635 326 OFFCURVE",
"594 360 OFFCURVE",
"544 360 CURVE SMOOTH",
"487 360 OFFCURVE",
"439 322 OFFCURVE",
"439 264 CURVE SMOOTH",
"439 238 OFFCURVE",
"452 219 OFFCURVE",
"471 206 CURVE",
"447 189 OFFCURVE",
"429 164 OFFCURVE",
"429 136 CURVE SMOOTH",
"429 78 OFFCURVE",
"467 36 OFFCURVE",
"544 36 CURVE SMOOTH",
"617 36 OFFCURVE",
"651 78 OFFCURVE",
"658 129 CURVE",
"596 129 LINE",
"593 105 OFFCURVE",
"574 94 OFFCURVE",
"543 94 CURVE SMOOTH",
"510 94 OFFCURVE",
"490 115 OFFCURVE",
"490 139 CURVE SMOOTH",
"490 164 OFFCURVE",
"510 183 OFFCURVE",
"533 183 CURVE SMOOTH",
"615 183 LINE",
"615 235 LINE",
"543 235 LINE SMOOTH",
"514 235 OFFCURVE",
"500 248 OFFCURVE",
"500 269 CURVE SMOOTH",
"500 285 OFFCURVE",
"516 302 OFFCURVE",
"543 302 CURVE SMOOTH",
"561 302 OFFCURVE",
"578 297 OFFCURVE",
"584 280 CURVE"
);
},
{
closed = 1;
nodes = (
"119 546 LINE",
"109 565 OFFCURVE",
"106 582 OFFCURVE",
"106 597 CURVE SMOOTH",
"106 637 OFFCURVE",
"129 654 OFFCURVE",
"165 654 CURVE SMOOTH",
"239 654 OFFCURVE",
"250 591 OFFCURVE",
"362 591 CURVE SMOOTH",
"395 591 OFFCURVE",
"422 594 OFFCURVE",
"448 608 CURVE",
"204 0 LINE",
"281 0 LINE",
"567 714 LINE",
"501 714 LINE",
"477 669 OFFCURVE",
"418 657 OFFCURVE",
"374 657 CURVE SMOOTH",
"266 657 OFFCURVE",
"266 720 OFFCURVE",
"165 720 CURVE SMOOTH",
"98 720 OFFCURVE",
"30 676 OFFCURVE",
"30 594 CURVE SMOOTH",
"30 570 OFFCURVE",
"35 543 OFFCURVE",
"50 515 CURVE"
);
}
);
width = 688;
}
);
unicode = 1E87A;
category = Letter;
},
{
glyphname = u1E87D;
lastChange = "2021-12-15 15:11:38 +0000";
layers = (
{
layerId = UUID0;
paths = (
{
closed = 1;
nodes = (
"50 -4 LINE",
"313 37 OFFCURVE",
"524 281 OFFCURVE",
"524 532 CURVE SMOOTH",
"524 625 OFFCURVE",
"467 727 OFFCURVE",
"309 727 CURVE SMOOTH",
"152 727 OFFCURVE",
"93 623 OFFCURVE",
"93 532 CURVE SMOOTH",
"93 422 OFFCURVE",
"162 333 OFFCURVE",
"309 333 CURVE SMOOTH",
"349 333 OFFCURVE",
"383 341 OFFCURVE",
"412 354 CURVE",
"346 215 OFFCURVE",
"207 95 OFFCURVE",
"50 64 CURVE"
);
},
{
closed = 1;
nodes = (
"166 593 OFFCURVE",
"203 658 OFFCURVE",
"308 658 CURVE SMOOTH",
"417 658 OFFCURVE",
"449 593 OFFCURVE",
"449 531 CURVE SMOOTH",
"449 470 OFFCURVE",
"416 400 OFFCURVE",
"308 400 CURVE SMOOTH",
"202 400 OFFCURVE",
"166 470 OFFCURVE",
"166 531 CURVE SMOOTH"
);
},
{
closed = 1;
nodes = (
"363 565 OFFCURVE",
"341 586 OFFCURVE",
"309 586 CURVE SMOOTH",
"278 586 OFFCURVE",
"256 565 OFFCURVE",
"256 532 CURVE SMOOTH",
"256 498 OFFCURVE",
"275 479 OFFCURVE",
"309 479 CURVE SMOOTH",
"341 479 OFFCURVE",
"363 498 OFFCURVE",
"363 532 CURVE SMOOTH"
);
}
);
width = 574;
}
);
unicode = 1E87D;
category = Letter;
},
{
glyphname = u1E87E;
lastChange = "2021-12-15 15:11:38 +0000";
layers = (
{
layerId = UUID0;
paths = (
{
closed = 1;
nodes = (
"119 546 LINE",
"109 565 OFFCURVE",
"106 582 OFFCURVE",
"106 597 CURVE SMOOTH",
"106 637 OFFCURVE",
"129 654 OFFCURVE",
"165 654 CURVE SMOOTH",
"239 654 OFFCURVE",
"250 591 OFFCURVE",
"362 591 CURVE SMOOTH",
"395 591 OFFCURVE",
"422 594 OFFCURVE",
"448 608 CURVE",
"204 0 LINE",
"281 0 LINE",
"393 281 LINE",
"413 262 OFFCURVE",
"439 250 OFFCURVE",
"469 250 CURVE SMOOTH",
"526 250 OFFCURVE",
"574 295 OFFCURVE",
"574 353 CURVE SMOOTH",
"574 410 OFFCURVE",
"526 455 OFFCURVE",
"469 455 CURVE SMOOTH",
"463 455 LINE",
"567 714 LINE",
"501 714 LINE",
"477 669 OFFCURVE",
"418 657 OFFCURVE",
"374 657 CURVE SMOOTH",
"266 657 OFFCURVE",
"266 720 OFFCURVE",
"165 720 CURVE SMOOTH",
"98 720 OFFCURVE",
"30 676 OFFCURVE",
"30 594 CURVE SMOOTH",
"30 570 OFFCURVE",
"35 543 OFFCURVE",
"50 515 CURVE"
);
},
{
closed = 1;
nodes = (
"268 384 OFFCURVE",
"246 405 OFFCURVE",
"214 405 CURVE SMOOTH",
"183 405 OFFCURVE",
"161 384 OFFCURVE",
"161 351 CURVE SMOOTH",
"161 317 OFFCURVE",
"180 298 OFFCURVE",
"214 298 CURVE SMOOTH",
"246 298 OFFCURVE",
"268 317 OFFCURVE",
"268 351 CURVE SMOOTH"
);
},
{
closed = 1;
nodes = (
"425 376 OFFCURVE",
"445 396 OFFCURVE",
"468 396 CURVE SMOOTH",
"493 396 OFFCURVE",
"513 376 OFFCURVE",
"513 351 CURVE SMOOTH",
"513 326 OFFCURVE",
"493 308 OFFCURVE",
"468 308 CURVE SMOOTH",
"445 308 OFFCURVE",
"425 327 OFFCURVE",
"425 351 CURVE SMOOTH"
);
}
);
width = 597;
}
);
unicode = 1E87E;
category = Letter;
},
{
glyphname = u1E87F;
lastChange = "2021-12-15 15:11:38 +0000";
layers = (
{
layerId = UUID0;
paths = (
{
closed = 1;
nodes = (
"651 486 LINE",
"541 486 LINE",
"541 583 LINE",
"471 583 LINE",
"471 486 LINE",
"361 486 LINE",
"361 428 LINE",
"471 428 LINE",
"471 344 LINE",
"223 344 LINE SMOOTH",
"139 344 OFFCURVE",
"116 371 OFFCURVE",
"116 415 CURVE SMOOTH",
"116 465 OFFCURVE",
"159 470 OFFCURVE",
"197 470 CURVE SMOOTH",
"223 470 LINE",
"223 538 LINE",
"197 538 LINE SMOOTH",
"89 538 OFFCURVE",
"40 487 OFFCURVE",
"40 415 CURVE SMOOTH",
"40 316 OFFCURVE",
"112 276 OFFCURVE",
"225 276 CURVE SMOOTH",
"749 276 LINE",
"768 184 OFFCURVE",
"852 117 OFFCURVE",
"949 117 CURVE SMOOTH",
"1060 117 OFFCURVE",
"1153 204 OFFCURVE",
"1153 315 CURVE SMOOTH",
"1153 427 OFFCURVE",
"1060 515 OFFCURVE",
"949 515 CURVE SMOOTH",
"848 515 OFFCURVE",
"761 442 OFFCURVE",
"747 344 CURVE",
"541 344 LINE",
"541 428 LINE",
"651 428 LINE"
);
},
{
closed = 1;
nodes = (
"1077 244 OFFCURVE",
"1018 187 OFFCURVE",
"948 187 CURVE SMOOTH",
"880 187 OFFCURVE",
"821 244 OFFCURVE",
"821 315 CURVE SMOOTH",
"821 391 OFFCURVE",
"880 445 OFFCURVE",
"948 445 CURVE SMOOTH",
"1018 445 OFFCURVE",
"1077 390 OFFCURVE",
"1077 315 CURVE SMOOTH"
);
}
);
width = 1203;
}
);
unicode = 1E87F;
category = Letter;
},
{
glyphname = u1E880;
lastChange = "2021-12-15 15:11:38 +0000";
layers = (
{
layerId = UUID0;
paths = (
{
closed = 1;
nodes = (
"980 470 LINE",
"1006 470 LINE SMOOTH",
"1044 470 OFFCURVE",
"1087 465 OFFCURVE",
"1087 415 CURVE SMOOTH",
"1087 371 OFFCURVE",
"1064 344 OFFCURVE",
"980 344 CURVE SMOOTH",
"732 344 LINE",
"732 428 LINE",
"842 428 LINE",
"842 486 LINE",
"732 486 LINE",
"732 583 LINE",
"662 583 LINE",
"662 486 LINE",
"552 486 LINE",
"552 428 LINE",
"662 428 LINE",
"662 344 LINE",
"456 344 LINE",
"441 442 OFFCURVE",
"354 515 OFFCURVE",
"254 515 CURVE SMOOTH",
"143 515 OFFCURVE",
"50 427 OFFCURVE",
"50 315 CURVE SMOOTH",
"50 204 OFFCURVE",
"143 117 OFFCURVE",
"254 117 CURVE SMOOTH",
"350 117 OFFCURVE",
"435 184 OFFCURVE",
"454 276 CURVE",
"662 276 LINE",
"662 95 LINE",
"732 95 LINE",
"732 276 LINE",
"978 276 LINE SMOOTH",
"1091 276 OFFCURVE",
"1163 316 OFFCURVE",
"1163 415 CURVE SMOOTH",
"1163 487 OFFCURVE",
"1114 538 OFFCURVE",
"1006 538 CURVE SMOOTH",
"980 538 LINE"
);
},
{
closed = 1;
nodes = (
"126 390 OFFCURVE",
"185 445 OFFCURVE",
"255 445 CURVE SMOOTH",
"323 445 OFFCURVE",
"382 391 OFFCURVE",
"382 315 CURVE SMOOTH",
"382 244 OFFCURVE",
"323 187 OFFCURVE",
"255 187 CURVE SMOOTH",
"185 187 OFFCURVE",
"126 244 OFFCURVE",
"126 315 CURVE SMOOTH"
);
}
);
width = 1203;
}
);
unicode = 1E880;
category = Letter;
},
{
glyphname = u1E881;
lastChange = "2021-12-15 15:11:38 +0000";
layers = (
{
layerId = UUID0;
paths = (
{
closed = 1;
nodes = (
"62 98 LINE",
"82 72 OFFCURVE",
"184 -12 OFFCURVE",
"320 -12 CURVE SMOOTH",
"555 -12 OFFCURVE",
"670 159 OFFCURVE",
"670 360 CURVE SMOOTH",
"670 562 OFFCURVE",
"549 727 OFFCURVE",
"329 727 CURVE SMOOTH",
"225 727 OFFCURVE",
"127 687 OFFCURVE",
"62 617 CURVE",
"101 566 LINE",
"121 588 OFFCURVE",
"144 606 OFFCURVE",
"170 620 CURVE",
"170 94 LINE",
"142 109 OFFCURVE",
"118 128 OFFCURVE",
"101 149 CURVE"
);
},
{
closed = 1;
nodes = (
"293 57 OFFCURVE",
"268 60 OFFCURVE",
"244 66 CURVE",
"244 336 LINE",
"593 336 LINE",
"586 169 OFFCURVE",
"506 57 OFFCURVE",
"319 57 CURVE SMOOTH"
);
},
{
closed = 1;
nodes = (
"481 658 OFFCURVE",
"579 560 OFFCURVE",
"592 400 CURVE",
"244 400 LINE",
"244 648 LINE",
"269 654 OFFCURVE",
"295 658 OFFCURVE",
"322 658 CURVE SMOOTH"
);
},
{
closed = 1;
nodes = (
"436 553 OFFCURVE",
"414 574 OFFCURVE",
"382 574 CURVE SMOOTH",
"351 574 OFFCURVE",
"329 553 OFFCURVE",
"329 520 CURVE SMOOTH",
"329 486 OFFCURVE",
"348 467 OFFCURVE",
"382 467 CURVE SMOOTH",
"414 467 OFFCURVE",
"436 486 OFFCURVE",
"436 520 CURVE SMOOTH"
);
}
);
width = 730;
}
);
unicode = 1E881;
category = Letter;
},
{
glyphname = u1E882;
lastChange = "2021-12-15 15:11:38 +0000";
layers = (
{
layerId = UUID0;
paths = (
{
closed = 1;
nodes = (
"100 714 LINE",
"100 0 LINE",
"174 0 LINE",
"174 317 LINE",
"205 379 OFFCURVE",
"266 426 OFFCURVE",
"351 426 CURVE SMOOTH",
"445 426 OFFCURVE",
"511 380 OFFCURVE",
"511 265 CURVE SMOOTH",
"511 240 LINE",
"490 252 OFFCURVE",
"465 259 OFFCURVE",
"440 259 CURVE SMOOTH",
"365 259 OFFCURVE",
"301 199 OFFCURVE",
"301 123 CURVE SMOOTH",
"301 48 OFFCURVE",
"365 -12 OFFCURVE",
"440 -12 CURVE SMOOTH",
"515 -12 OFFCURVE",
"579 48 OFFCURVE",
"579 123 CURVE SMOOTH",
"579 263 LINE SMOOTH",
"579 413 OFFCURVE",
"491 496 OFFCURVE",
"347 496 CURVE SMOOTH",
"291 496 OFFCURVE",
"218 467 OFFCURVE",
"174 422 CURVE",
"174 714 LINE"
);
},
{
closed = 1;
nodes = (
"370 163 OFFCURVE",
"402 194 OFFCURVE",
"440 194 CURVE SMOOTH",
"478 194 OFFCURVE",
"510 164 OFFCURVE",
"510 123 CURVE SMOOTH",
"510 84 OFFCURVE",
"478 53 OFFCURVE",
"440 53 CURVE SMOOTH",
"402 53 OFFCURVE",
"370 84 OFFCURVE",
"370 123 CURVE SMOOTH"
);
}
);
width = 629;
}
);
unicode = 1E882;
category = Letter;
},
{
glyphname = u1E883;
lastChange = "2021-12-15 15:11:38 +0000";
layers = (
{
layerId = UUID0;
paths = (
{
closed = 1;
nodes = (
"200 322 LINE",
"331 322 LINE",
"202 0 LINE",
"281 0 LINE",
"410 322 LINE",
"459 322 LINE",
"473 279 OFFCURVE",
"513 250 OFFCURVE",
"560 250 CURVE SMOOTH",
"617 250 OFFCURVE",
"665 295 OFFCURVE",
"665 353 CURVE SMOOTH",
"665 410 OFFCURVE",
"617 455 OFFCURVE",
"560 455 CURVE SMOOTH",
"514 455 OFFCURVE",
"474 426 OFFCURVE",
"460 386 CURVE",
"435 386 LINE",
"567 714 LINE",
"499 714 LINE",
"475 669 OFFCURVE",
"418 657 OFFCURVE",
"374 657 CURVE SMOOTH",
"266 657 OFFCURVE",
"266 720 OFFCURVE",
"165 720 CURVE SMOOTH",
"98 720 OFFCURVE",
"30 676 OFFCURVE",
"30 594 CURVE SMOOTH",
"30 570 OFFCURVE",
"35 543 OFFCURVE",
"50 515 CURVE",
"119 546 LINE",
"109 565 OFFCURVE",
"106 582 OFFCURVE",
"106 597 CURVE SMOOTH",
"106 637 OFFCURVE",
"129 654 OFFCURVE",
"165 654 CURVE SMOOTH",
"239 654 OFFCURVE",
"250 591 OFFCURVE",
"362 591 CURVE SMOOTH",
"395 591 OFFCURVE",
"420 594 OFFCURVE",
"446 608 CURVE",
"356 386 LINE",
"200 386 LINE"
);
},
{
closed = 1;
nodes = (
"516 376 OFFCURVE",
"536 396 OFFCURVE",
"559 396 CURVE SMOOTH",
"584 396 OFFCURVE",
"604 376 OFFCURVE",
"604 351 CURVE SMOOTH",
"604 326 OFFCURVE",
"584 308 OFFCURVE",
"559 308 CURVE SMOOTH",
"536 308 OFFCURVE",
"516 327 OFFCURVE",
"516 351 CURVE SMOOTH"
);
}
);
width = 685;
}
);
unicode = 1E883;
category = Letter;
},
{
glyphname = u1E884;
lastChange = "2021-12-15 15:11:38 +0000";
layers = (
{
layerId = UUID0;
paths = (
{
closed = 1;
nodes = (
"331 638 LINE",
"233 541 LINE",
"136 638 LINE",
"92 594 LINE",
"189 497 LINE",
"92 400 LINE",
"92 332 LINE",
"691 332 LINE",
"691 180 LINE",
"50 180 LINE",
"50 112 LINE",
"761 112 LINE",
"761 400 LINE",
"375 400 LINE",
"277 497 LINE",
"375 594 LINE"
);
},
{
closed = 1;
nodes = (
"233 453 LINE",
"287 400 LINE",
"180 400 LINE"
);
}
);
width = 811;
}
);
unicode = 1E884;
category = Letter;
},
{
glyphname = u1E885;
lastChange = "2021-12-15 15:11:38 +0000";
layers = (
{
layerId = UUID0;
paths = (
{
closed = 1;
nodes = (
"50 469 OFFCURVE",
"114 409 OFFCURVE",
"189 409 CURVE SMOOTH",
"256 409 OFFCURVE",
"313 456 OFFCURVE",
"325 520 CURVE",
"654 520 LINE SMOOTH",
"742 520 OFFCURVE",
"817 461 OFFCURVE",
"817 364 CURVE SMOOTH",
"817 275 OFFCURVE",
"766 204 OFFCURVE",
"654 204 CURVE SMOOTH",
"322 204 LINE",
"305 261 OFFCURVE",
"251 302 OFFCURVE",
"189 302 CURVE SMOOTH",
"114 302 OFFCURVE",
"50 242 OFFCURVE",
"50 166 CURVE SMOOTH",
"50 91 OFFCURVE",
"114 31 OFFCURVE",
"189 31 CURVE SMOOTH",
"253 31 OFFCURVE",
"310 75 OFFCURVE",
"324 136 CURVE",
"664 136 LINE SMOOTH",
"826 136 OFFCURVE",
"893 245 OFFCURVE",
"893 360 CURVE SMOOTH",
"893 487 OFFCURVE",
"795 588 OFFCURVE",
"664 588 CURVE SMOOTH",
"320 588 LINE",
"301 642 OFFCURVE",
"248 680 OFFCURVE",
"189 680 CURVE SMOOTH",
"114 680 OFFCURVE",
"50 620 OFFCURVE",
"50 544 CURVE SMOOTH"
);
},
{
closed = 1;
nodes = (
"119 584 OFFCURVE",
"151 615 OFFCURVE",
"189 615 CURVE SMOOTH",
"227 615 OFFCURVE",
"259 585 OFFCURVE",
"259 544 CURVE SMOOTH",
"259 505 OFFCURVE",
"227 474 OFFCURVE",
"189 474 CURVE SMOOTH",
"151 474 OFFCURVE",
"119 505 OFFCURVE",
"119 544 CURVE SMOOTH"
);
},
{
closed = 1;
nodes = (
"119 206 OFFCURVE",
"151 237 OFFCURVE",
"189 237 CURVE SMOOTH",
"227 237 OFFCURVE",
"259 207 OFFCURVE",
"259 166 CURVE SMOOTH",
"259 127 OFFCURVE",
"227 96 OFFCURVE",
"189 96 CURVE SMOOTH",
"151 96 OFFCURVE",
"119 127 OFFCURVE",
"119 166 CURVE SMOOTH"
);
},
{
closed = 1;
nodes = (
"548 729 OFFCURVE",
"526 750 OFFCURVE",
"494 750 CURVE SMOOTH",
"463 750 OFFCURVE",
"441 729 OFFCURVE",
"441 696 CURVE SMOOTH",
"441 662 OFFCURVE",
"460 643 OFFCURVE",
"494 643 CURVE SMOOTH",
"526 643 OFFCURVE",
"548 662 OFFCURVE",
"548 696 CURVE SMOOTH"
);
}
);
width = 943;
}
);
unicode = 1E885;
category = Letter;
},
{
glyphname = u1E886;
lastChange = "2021-12-15 15:11:38 +0000";
layers = (
{
layerId = UUID0;
paths = (
{
closed = 1;
nodes = (
"552 159 LINE",
"562 140 OFFCURVE",
"565 123 OFFCURVE",
"565 108 CURVE SMOOTH",
"565 68 OFFCURVE",
"542 51 OFFCURVE",
"506 51 CURVE SMOOTH",
"441 51 OFFCURVE",
"409 114 OFFCURVE",
"319 114 CURVE SMOOTH",
"293 114 OFFCURVE",
"278 110 OFFCURVE",
"265 105 CURVE",
"542 714 LINE",
"474 714 LINE",
"450 669 OFFCURVE",
"408 657 OFFCURVE",
"364 657 CURVE SMOOTH",
"298 657 OFFCURVE",
"244 720 OFFCURVE",
"165 720 CURVE SMOOTH",
"98 720 OFFCURVE",
"30 676 OFFCURVE",
"30 594 CURVE SMOOTH",
"30 570 OFFCURVE",
"35 543 OFFCURVE",
"50 515 CURVE",
"119 546 LINE",
"109 565 OFFCURVE",
"106 582 OFFCURVE",
"106 597 CURVE SMOOTH",
"106 637 OFFCURVE",
"129 654 OFFCURVE",
"165 654 CURVE SMOOTH",
"230 654 OFFCURVE",
"262 591 OFFCURVE",
"352 591 CURVE SMOOTH",
"385 591 OFFCURVE",
"405 597 OFFCURVE",
"421 604 CURVE",
"142 0 LINE",
"218 0 LINE",
"224 11 LINE SMOOTH",
"241 43 OFFCURVE",
"277 48 OFFCURVE",
"307 48 CURVE SMOOTH",
"373 48 OFFCURVE",
"427 -15 OFFCURVE",
"506 -15 CURVE SMOOTH",
"573 -15 OFFCURVE",
"641 29 OFFCURVE",
"641 111 CURVE SMOOTH",
"641 135 OFFCURVE",
"636 162 OFFCURVE",
"621 190 CURVE"
);
}
);
width = 671;
}
);
unicode = 1E886;
category = Letter;
},
{
glyphname = u1E887;
lastChange = "2021-12-15 15:11:38 +0000";
layers = (
{
layerId = UUID0;
paths = (
{
closed = 1;
nodes = (
"1076 495 LINE",
"1008 495 LINE",
"1008 385 LINE",
"863 385 LINE",
"850 558 OFFCURVE",
"722 635 OFFCURVE",
"554 635 CURVE SMOOTH",
"174 635 LINE SMOOTH",
"107 635 OFFCURVE",
"50 582 OFFCURVE",
"50 515 CURVE SMOOTH",
"50 447 OFFCURVE",
"107 394 OFFCURVE",
"174 394 CURVE SMOOTH",
"240 394 OFFCURVE",
"297 447 OFFCURVE",
"297 515 CURVE SMOOTH",
"297 533 OFFCURVE",
"292 551 OFFCURVE",
"284 567 CURVE",
"555 567 LINE SMOOTH",
"729 567 OFFCURVE",
"779 484 OFFCURVE",
"786 385 CURVE",
"529 385 LINE",
"529 495 LINE",
"461 495 LINE",
"461 207 LINE",
"529 207 LINE",
"529 327 LINE",
"787 327 LINE",
"779 223 OFFCURVE",
"727 144 OFFCURVE",
"555 144 CURVE SMOOTH",
"284 144 LINE",
"292 160 OFFCURVE",
"297 178 OFFCURVE",
"297 196 CURVE SMOOTH",
"297 264 OFFCURVE",
"240 317 OFFCURVE",
"174 317 CURVE SMOOTH",
"107 317 OFFCURVE",
"50 264 OFFCURVE",
"50 196 CURVE SMOOTH",
"50 129 OFFCURVE",
"107 76 OFFCURVE",
"174 76 CURVE SMOOTH",
"554 76 LINE SMOOTH",
"734 76 OFFCURVE",
"851 168 OFFCURVE",
"863 327 CURVE",
"1008 327 LINE",
"1008 207 LINE",
"1076 207 LINE"
);
},
{
closed = 1;
nodes = (
"116 229 OFFCURVE",
"143 253 OFFCURVE",
"174 253 CURVE SMOOTH",
"205 253 OFFCURVE",
"231 230 OFFCURVE",
"231 196 CURVE SMOOTH",
"231 163 OFFCURVE",
"205 138 OFFCURVE",
"174 138 CURVE SMOOTH",
"143 138 OFFCURVE",
"116 163 OFFCURVE",
"116 196 CURVE SMOOTH"
);
},
{
closed = 1;
nodes = (
"116 548 OFFCURVE",
"143 573 OFFCURVE",
"174 573 CURVE SMOOTH",
"205 573 OFFCURVE",
"231 548 OFFCURVE",
"231 515 CURVE SMOOTH",
"231 481 OFFCURVE",
"205 458 OFFCURVE",
"174 458 CURVE SMOOTH",
"143 458 OFFCURVE",
"116 482 OFFCURVE",
"116 515 CURVE SMOOTH"
);
}
);
width = 1126;
}
);
unicode = 1E887;
category = Letter;
},
{
glyphname = u1E888;
lastChange = "2021-12-15 15:11:38 +0000";
layers = (
{
layerId = UUID0;
paths = (
{
closed = 1;
nodes = (
"284 64 LINE",
"284 0 LINE",
"538 0 LINE",
"538 64 LINE",
"448 64 LINE",
"448 188 LINE",
"523 203 OFFCURVE",
"583 264 OFFCURVE",
"591 342 CURVE",
"706 342 LINE",
"706 252 LINE",
"774 252 LINE",
"774 480 LINE",
"706 480 LINE",
"706 400 LINE",
"587 400 LINE",
"571 466 OFFCURVE",
"516 518 OFFCURVE",
"448 531 CURVE",
"448 651 LINE",
"538 651 LINE",
"538 715 LINE",
"284 715 LINE",
"284 651 LINE",
"374 651 LINE",
"374 531 LINE",
"307 516 OFFCURVE",
"253 465 OFFCURVE",
"237 400 CURVE",
"118 400 LINE",
"118 480 LINE",
"50 480 LINE",
"50 252 LINE",
"118 252 LINE",
"118 342 LINE",
"234 342 LINE",
"242 265 OFFCURVE",
"300 205 OFFCURVE",
"374 189 CURVE",
"374 64 LINE"
);
},
{
closed = 1;
nodes = (
"302 423 OFFCURVE",
"354 470 OFFCURVE",
"414 470 CURVE SMOOTH",
"472 470 OFFCURVE",
"523 424 OFFCURVE",
"523 360 CURVE SMOOTH",
"523 298 OFFCURVE",
"472 250 OFFCURVE",
"414 250 CURVE SMOOTH",
"354 250 OFFCURVE",
"302 298 OFFCURVE",
"302 360 CURVE SMOOTH"
);
}
);
width = 824;
}
);
unicode = 1E888;
category = Letter;
},
{
glyphname = u1E889;
lastChange = "2021-12-15 15:11:38 +0000";
layers = (
{
layerId = UUID0;
paths = (
{
closed = 1;
nodes = (
"100 714 LINE",
"100 0 LINE",
"174 0 LINE",
"174 317 LINE",
"205 379 OFFCURVE",
"266 426 OFFCURVE",
"351 426 CURVE SMOOTH",
"445 426 OFFCURVE",
"503 365 OFFCURVE",
"503 270 CURVE SMOOTH",
"503 159 OFFCURVE",
"439 58 OFFCURVE",
"350 52 CURVE",
"370 -15 LINE",
"496 5 OFFCURVE",
"579 123 OFFCURVE",
"579 261 CURVE SMOOTH",
"579 409 OFFCURVE",
"490 496 OFFCURVE",
"347 496 CURVE SMOOTH",
"291 496 OFFCURVE",
"218 467 OFFCURVE",
"174 422 CURVE",
"174 714 LINE"
);
},
{
closed = 1;
nodes = (
"399 681 OFFCURVE",
"377 702 OFFCURVE",
"345 702 CURVE SMOOTH",
"314 702 OFFCURVE",
"292 681 OFFCURVE",
"292 648 CURVE SMOOTH",
"292 614 OFFCURVE",
"311 595 OFFCURVE",
"345 595 CURVE SMOOTH",
"377 595 OFFCURVE",
"399 614 OFFCURVE",
"399 648 CURVE SMOOTH"
);
}
);
width = 629;
}
);
unicode = 1E889;
category = Letter;
},
{
glyphname = u1E88A;
lastChange = "2021-12-15 15:11:38 +0000";
layers = (
{
layerId = UUID0;
paths = (
{
closed = 1;
nodes = (
"370 701 LINE",
"38 369 LINE",
"359 50 LINE",
"691 382 LINE"
);
},
{
closed = 1;
nodes = (
"130 373 LINE",
"366 609 LINE",
"598 377 LINE",
"361 140 LINE"
);
},
{
closed = 1;
nodes = (
"417 409 OFFCURVE",
"395 430 OFFCURVE",
"363 430 CURVE SMOOTH",
"332 430 OFFCURVE",
"310 409 OFFCURVE",
"310 376 CURVE SMOOTH",
"310 342 OFFCURVE",
"329 323 OFFCURVE",
"363 323 CURVE SMOOTH",
"395 323 OFFCURVE",
"417 342 OFFCURVE",
"417 376 CURVE SMOOTH"
);
}
);
width = 730;
}
);
unicode = 1E88A;
category = Letter;
},
{
glyphname = u1E88B;
lastChange = "2021-12-15 15:11:38 +0000";
layers = (
{
layerId = UUID0;
paths = (
{
closed = 1;
nodes = (
"549 522 LINE",
"664 637 LINE",
"620 681 LINE",
"505 566 LINE",
"370 701 LINE",
"38 369 LINE",
"175 232 LINE",
"61 118 LINE",
"105 74 LINE",
"219 188 LINE",
"359 50 LINE",
"691 382 LINE"
);
},
{
closed = 1;
nodes = (
"428 401 LINE",
"501 474 LINE",
"598 377 LINE",
"361 140 LINE",
"266 235 LINE",
"342 311 LINE",
"297 354 LINE",
"222 279 LINE",
"130 373 LINE",
"366 609 LINE",
"457 518 LINE",
"383 444 LINE"
);
}
);
width = 730;
}
);
unicode = 1E88B;
category = Letter;
},
{
glyphname = u1E88C;
lastChange = "2021-12-15 15:11:38 +0000";
layers = (
{
layerId = UUID0;
paths = (
{
closed = 1;
nodes = (
"493 650 LINE",
"493 400 LINE",
"206 400 LINE",
"206 461 LINE",
"264 477 OFFCURVE",
"308 529 OFFCURVE",
"308 592 CURVE SMOOTH",
"308 667 OFFCURVE",
"244 727 OFFCURVE",
"169 727 CURVE SMOOTH",
"94 727 OFFCURVE",
"30 667 OFFCURVE",
"30 592 CURVE SMOOTH",
"30 529 OFFCURVE",
"74 477 OFFCURVE",
"132 461 CURVE",
"132 57 LINE",
"206 57 LINE",
"206 332 LINE",
"493 332 LINE",
"493 246 LINE",
"435 230 OFFCURVE",
"391 178 OFFCURVE",
"391 115 CURVE SMOOTH",
"391 40 OFFCURVE",
"455 -20 OFFCURVE",
"530 -20 CURVE SMOOTH",
"605 -20 OFFCURVE",
"669 40 OFFCURVE",
"669 115 CURVE SMOOTH",
"669 178 OFFCURVE",
"625 230 OFFCURVE",
"567 246 CURVE",
"567 650 LINE"
);
},
{
closed = 1;
nodes = (
"460 155 OFFCURVE",
"492 186 OFFCURVE",
"530 186 CURVE SMOOTH",
"568 186 OFFCURVE",
"600 156 OFFCURVE",
"600 115 CURVE SMOOTH",
"600 76 OFFCURVE",
"568 45 OFFCURVE",
"530 45 CURVE SMOOTH",
"492 45 OFFCURVE",
"460 76 OFFCURVE",
"460 115 CURVE SMOOTH"
);
},
{
closed = 1;
nodes = (
"99 631 OFFCURVE",
"131 662 OFFCURVE",
"169 662 CURVE SMOOTH",
"207 662 OFFCURVE",
"239 631 OFFCURVE",
"239 592 CURVE SMOOTH",
"239 551 OFFCURVE",
"207 521 OFFCURVE",
"169 521 CURVE SMOOTH",
"131 521 OFFCURVE",
"99 552 OFFCURVE",
"99 592 CURVE SMOOTH"
);
}
);
width = 699;
}
);
unicode = 1E88C;
category = Letter;
},
{
glyphname = u1E88D;
lastChange = "2021-12-15 15:11:38 +0000";
layers = (
{
layerId = UUID0;
paths = (
{
closed = 1;
nodes = (
"398 80 LINE",
"703 714 LINE",
"621 714 LINE",
"361 160 LINE",
"102 714 LINE",
"20 714 LINE",
"324 80 LINE"
);
},
{
closed = 1;
nodes = (
"415 -34 OFFCURVE",
"393 -13 OFFCURVE",
"361 -13 CURVE SMOOTH",
"330 -13 OFFCURVE",
"308 -34 OFFCURVE",
"308 -67 CURVE SMOOTH",
"308 -101 OFFCURVE",
"327 -120 OFFCURVE",
"361 -120 CURVE SMOOTH",
"393 -120 OFFCURVE",
"415 -101 OFFCURVE",
"415 -67 CURVE SMOOTH"
);
}
);
width = 723;
}
);
unicode = 1E88D;
category = Letter;
},
{
glyphname = u1E88E;
lastChange = "2021-12-15 15:11:38 +0000";
layers = (
{
layerId = UUID0;
paths = (
{
closed = 1;
nodes = (
"84 28 LINE",
"140 -6 LINE",
"348 267 LINE",
"348 0 LINE",
"422 0 LINE",
"422 364 LINE",
"594 590 LINE",
"538 624 LINE",
"422 471 LINE",
"422 714 LINE",
"348 714 LINE",
"348 634 LINE",
"288 634 LINE SMOOTH",
"158 634 OFFCURVE",
"50 589 OFFCURVE",
"50 475 CURVE SMOOTH",
"50 378 OFFCURVE",
"101 326 OFFCURVE",
"278 326 CURVE SMOOTH",
"311 326 LINE"
);
},
{
closed = 1;
nodes = (
"126 545 OFFCURVE",
"204 566 OFFCURVE",
"298 566 CURVE SMOOTH",
"348 566 LINE",
"348 394 LINE",
"288 394 LINE SMOOTH",
"156 394 OFFCURVE",
"126 421 OFFCURVE",
"126 475 CURVE SMOOTH"
);
},
{
closed = 1;
nodes = (
"287 756 OFFCURVE",
"265 777 OFFCURVE",
"233 777 CURVE SMOOTH",
"202 777 OFFCURVE",
"180 756 OFFCURVE",
"180 723 CURVE SMOOTH",
"180 689 OFFCURVE",
"199 670 OFFCURVE",
"233 670 CURVE SMOOTH",
"265 670 OFFCURVE",
"287 689 OFFCURVE",
"287 723 CURVE SMOOTH"
);
}
);
width = 614;
}
);
unicode = 1E88E;
category = Letter;
},
{
glyphname = u1E88F;
lastChange = "2021-12-15 15:11:38 +0000";
layers = (
{
layerId = UUID0;
paths = (
{
closed = 1;
nodes = (
"324 714 LINE",
"20 80 LINE",
"102 80 LINE",
"231 356 LINE",
"491 356 LINE",
"621 80 LINE",
"703 80 LINE",
"398 714 LINE"
);
},
{
closed = 1;
nodes = (
"378 237 LINE",
"379 231 OFFCURVE",
"379 224 OFFCURVE",
"379 217 CURVE SMOOTH",
"379 15 OFFCURVE",
"-13 124 OFFCURVE",
"-13 -165 CURVE",
"59 -165 LINE",
"59 68 OFFCURVE",
"451 -46 OFFCURVE",
"451 217 CURVE SMOOTH",
"451 224 OFFCURVE",
"451 230 OFFCURVE",
"450 237 CURVE"
);
},
{
closed = 1;
nodes = (
"361 634 LINE",
"461 420 LINE",
"261 420 LINE"
);
}
);
width = 723;
}
);
unicode = 1E88F;
category = Letter;
},
{
glyphname = u1E890;
lastChange = "2021-12-15 15:11:38 +0000";
layers = (
{
layerId = UUID0;
paths = (
{
closed = 1;
nodes = (
"584 624 LINE",
"458 624 LINE",
"458 714 LINE",
"384 714 LINE",
"384 624 LINE",
"260 624 LINE",
"260 560 LINE",
"384 560 LINE",
"384 394 LINE",
"191 405 OFFCURVE",
"126 515 OFFCURVE",
"126 714 CURVE",
"50 714 LINE",
"50 544 OFFCURVE",
"108 416 OFFCURVE",
"238 358 CURVE",
"108 300 OFFCURVE",
"50 170 OFFCURVE",
"50 0 CURVE",
"126 0 LINE",
"126 199 OFFCURVE",
"191 312 OFFCURVE",
"384 324 CURVE",
"384 0 LINE",
"458 0 LINE",
"458 560 LINE",
"584 560 LINE"
);
}
);
width = 604;
}
);
unicode = 1E890;
category = Letter;
},
{
glyphname = u1E891;
lastChange = "2021-12-15 15:11:38 +0000";
layers = (
{
layerId = UUID0;
paths = (
{
closed = 1;
nodes = (
"310 449 LINE",
"206 351 LINE",
"206 461 LINE",
"264 477 OFFCURVE",
"308 529 OFFCURVE",
"308 592 CURVE SMOOTH",
"308 667 OFFCURVE",
"244 727 OFFCURVE",
"169 727 CURVE SMOOTH",
"94 727 OFFCURVE",
"30 667 OFFCURVE",
"30 592 CURVE SMOOTH",
"30 529 OFFCURVE",
"74 477 OFFCURVE",
"132 461 CURVE",
"132 282 LINE",
"5 164 LINE",
"45 118 LINE",
"132 199 LINE",
"141 67 OFFCURVE",
"227 -12 OFFCURVE",
"356 -12 CURVE SMOOTH",
"511 -12 OFFCURVE",
"601 74 OFFCURVE",
"601 221 CURVE SMOOTH",
"601 461 LINE",
"659 477 OFFCURVE",
"703 529 OFFCURVE",
"703 592 CURVE SMOOTH",
"703 667 OFFCURVE",
"639 727 OFFCURVE",
"564 727 CURVE SMOOTH",
"489 727 OFFCURVE",
"425 667 OFFCURVE",
"425 592 CURVE SMOOTH",
"425 529 OFFCURVE",
"469 477 OFFCURVE",
"527 461 CURVE",
"527 219 LINE SMOOTH",
"527 104 OFFCURVE",
"461 58 OFFCURVE",
"367 58 CURVE SMOOTH",
"272 58 OFFCURVE",
"206 104 OFFCURVE",
"206 219 CURVE SMOOTH",
"206 267 LINE",
"354 405 LINE"
);
},
{
closed = 1;
nodes = (
"99 631 OFFCURVE",
"131 662 OFFCURVE",
"169 662 CURVE SMOOTH",
"207 662 OFFCURVE",
"239 631 OFFCURVE",
"239 592 CURVE SMOOTH",
"239 551 OFFCURVE",
"207 521 OFFCURVE",
"169 521 CURVE SMOOTH",
"131 521 OFFCURVE",
"99 552 OFFCURVE",
"99 592 CURVE SMOOTH"
);
},
{
closed = 1;
nodes = (
"634 552 OFFCURVE",
"602 521 OFFCURVE",
"564 521 CURVE SMOOTH",
"526 521 OFFCURVE",
"494 551 OFFCURVE",
"494 592 CURVE SMOOTH",
"494 631 OFFCURVE",
"526 662 OFFCURVE",
"564 662 CURVE SMOOTH",
"602 662 OFFCURVE",
"634 631 OFFCURVE",
"634 592 CURVE SMOOTH"
);
}
);
width = 733;
}
);
unicode = 1E891;
category = Letter;
},
{
glyphname = u1E892;
lastChange = "2021-12-15 15:11:38 +0000";
layers = (
{
layerId = UUID0;
paths = (
{
closed = 1;
nodes = (
"60 588 LINE",
"60 136 LINE",
"577 136 LINE",
"592 75 OFFCURVE",
"648 31 OFFCURVE",
"713 31 CURVE SMOOTH",
"788 31 OFFCURVE",
"852 91 OFFCURVE",
"852 166 CURVE SMOOTH",
"852 242 OFFCURVE",
"788 302 OFFCURVE",
"713 302 CURVE SMOOTH",
"651 302 OFFCURVE",
"596 261 OFFCURVE",
"579 204 CURVE",
"134 204 LINE",
"134 520 LINE",
"576 520 LINE",
"588 456 OFFCURVE",
"646 409 OFFCURVE",
"713 409 CURVE SMOOTH",
"788 409 OFFCURVE",
"852 469 OFFCURVE",
"852 544 CURVE SMOOTH",
"852 620 OFFCURVE",
"788 680 OFFCURVE",
"713 680 CURVE SMOOTH",
"653 680 OFFCURVE",
"600 642 OFFCURVE",
"581 588 CURVE"
);
},
{
closed = 1;
nodes = (
"783 127 OFFCURVE",
"751 96 OFFCURVE",
"713 96 CURVE SMOOTH",
"675 96 OFFCURVE",
"643 127 OFFCURVE",
"643 166 CURVE SMOOTH",
"643 207 OFFCURVE",
"675 237 OFFCURVE",
"713 237 CURVE SMOOTH",
"751 237 OFFCURVE",
"783 206 OFFCURVE",
"783 166 CURVE SMOOTH"
);
},
{
closed = 1;
nodes = (
"783 505 OFFCURVE",
"751 474 OFFCURVE",
"713 474 CURVE SMOOTH",
"675 474 OFFCURVE",
"643 505 OFFCURVE",
"643 544 CURVE SMOOTH",
"643 585 OFFCURVE",
"675 615 OFFCURVE",
"713 615 CURVE SMOOTH",
"751 615 OFFCURVE",
"783 584 OFFCURVE",
"783 544 CURVE SMOOTH"
);
}
);
width = 902;
}
);
unicode = 1E892;
category = Letter;
},
{
glyphname = u1E893;
lastChange = "2021-12-15 15:11:38 +0000";
layers = (
{
layerId = UUID0;
paths = (
{
closed = 1;
nodes = (
"311 714 LINE",
"311 650 LINE",
"277 650 LINE SMOOTH",
"204 650 OFFCURVE",
"50 634 OFFCURVE",
"50 490 CURVE SMOOTH",
"50 433 OFFCURVE",
"86 392 OFFCURVE",
"135 366 CURVE",
"86 340 OFFCURVE",
"50 299 OFFCURVE",
"50 242 CURVE SMOOTH",
"50 98 OFFCURVE",
"204 82 OFFCURVE",
"277 82 CURVE SMOOTH",
"311 82 LINE",
"311 0 LINE",
"385 0 LINE",
"385 202 LINE",
"418 202 LINE SMOOTH",
"519 202 OFFCURVE",
"646 253 OFFCURVE",
"646 360 CURVE SMOOTH",
"646 504 OFFCURVE",
"492 520 OFFCURVE",
"419 520 CURVE SMOOTH",
"385 520 LINE",
"385 714 LINE"
);
},
{
closed = 1;
nodes = (
"126 576 OFFCURVE",
"215 582 OFFCURVE",
"278 582 CURVE SMOOTH",
"311 582 LINE",
"311 400 LINE",
"279 400 LINE SMOOTH",
"205 400 OFFCURVE",
"126 409 OFFCURVE",
"126 493 CURVE SMOOTH"
);
},
{
closed = 1;
nodes = (
"418 452 LINE SMOOTH",
"481 452 OFFCURVE",
"570 446 OFFCURVE",
"570 363 CURVE SMOOTH",
"570 279 OFFCURVE",
"491 270 OFFCURVE",
"417 270 CURVE SMOOTH",
"385 270 LINE",
"385 452 LINE"
);
},
{
closed = 1;
nodes = (
"126 323 OFFCURVE",
"205 332 OFFCURVE",
"279 332 CURVE SMOOTH",
"311 332 LINE",
"311 150 LINE",
"278 150 LINE SMOOTH",
"215 150 OFFCURVE",
"126 156 OFFCURVE",
"126 239 CURVE SMOOTH"
);
}
);
width = 696;
}
);
unicode = 1E893;
category = Letter;
},
{
glyphname = u1E894;
lastChange = "2021-12-15 15:11:38 +0000";
layers = (
{
layerId = UUID0;
paths = (
{
closed = 1;
nodes = (
"177 328 LINE",
"240 412 LINE",
"287 390 OFFCURVE",
"335 372 OFFCURVE",
"377 360 CURVE",
"219 316 OFFCURVE",
"20 203 OFFCURVE",
"20 91 CURVE SMOOTH",
"20 33 OFFCURVE",
"68 -12 OFFCURVE",
"125 -12 CURVE SMOOTH",
"182 -12 OFFCURVE",
"230 33 OFFCURVE",
"230 91 CURVE SMOOTH",
"230 132 OFFCURVE",
"204 167 OFFCURVE",
"168 183 CURVE",
"243 245 OFFCURVE",
"398 326 OFFCURVE",
"550 326 CURVE SMOOTH",
"565 326 LINE",
"565 394 LINE",
"550 394 LINE SMOOTH",
"454 394 OFFCURVE",
"357 426 OFFCURVE",
"279 465 CURVE",
"377 595 LINE",
"327 632 LINE",
"225 496 LINE",
"205 508 OFFCURVE",
"187 521 OFFCURVE",
"172 533 CURVE",
"206 550 OFFCURVE",
"230 584 OFFCURVE",
"230 625 CURVE SMOOTH",
"230 682 OFFCURVE",
"182 727 OFFCURVE",
"125 727 CURVE SMOOTH",
"68 727 OFFCURVE",
"20 682 OFFCURVE",
"20 625 CURVE SMOOTH",
"20 559 OFFCURVE",
"94 493 OFFCURVE",
"184 442 CURVE",
"126 364 LINE"
);
},
{
closed = 1;
nodes = (
"81 114 OFFCURVE",
"101 134 OFFCURVE",
"124 134 CURVE SMOOTH",
"149 134 OFFCURVE",
"169 114 OFFCURVE",
"169 89 CURVE SMOOTH",
"169 64 OFFCURVE",
"149 46 OFFCURVE",
"124 46 CURVE SMOOTH",
"101 46 OFFCURVE",
"81 65 OFFCURVE",
"81 89 CURVE SMOOTH"
);
},
{
closed = 1;
nodes = (
"81 648 OFFCURVE",
"101 668 OFFCURVE",
"124 668 CURVE SMOOTH",
"149 668 OFFCURVE",
"169 648 OFFCURVE",
"169 623 CURVE SMOOTH",
"169 598 OFFCURVE",
"149 580 OFFCURVE",
"124 580 CURVE SMOOTH",
"101 580 OFFCURVE",
"81 599 OFFCURVE",
"81 623 CURVE SMOOTH"
);
}
);
width = 585;
}
);
unicode = 1E894;
category = Letter;
},
{
glyphname = u1E895;
lastChange = "2021-12-15 15:11:38 +0000";
layers = (
{
layerId = UUID0;
paths = (
{
closed = 1;
nodes = (
"534 509 LINE",
"464 479 LINE",
"464 714 LINE",
"90 714 LINE",
"90 320 LINE",
"20 291 LINE",
"20 225 LINE",
"90 254 LINE",
"90 0 LINE",
"464 0 LINE",
"464 411 LINE",
"534 441 LINE"
);
},
{
closed = 1;
nodes = (
"164 285 LINE",
"390 380 LINE",
"390 68 LINE",
"164 68 LINE"
);
},
{
closed = 1;
nodes = (
"164 646 LINE",
"390 646 LINE",
"390 448 LINE",
"164 352 LINE"
);
}
);
width = 554;
}
);
unicode = 1E895;
category = Letter;
},
{
glyphname = u1E896;
lastChange = "2021-12-15 15:11:38 +0000";
layers = (
{
layerId = UUID0;
paths = (
{
closed = 1;
nodes = (
"359 498 LINE",
"307 498 LINE",
"292 481 OFFCURVE",
"258 476 OFFCURVE",
"236 476 CURVE SMOOTH",
"169 476 OFFCURVE",
"126 505 OFFCURVE",
"126 567 CURVE SMOOTH",
"126 629 OFFCURVE",
"169 659 OFFCURVE",
"236 659 CURVE SMOOTH",
"280 659 OFFCURVE",
"308 646 OFFCURVE",
"326 625 CURVE",
"370 678 LINE",
"339 707 OFFCURVE",
"295 727 OFFCURVE",
"235 727 CURVE SMOOTH",
"102 727 OFFCURVE",
"50 643 OFFCURVE",
"50 571 CURVE SMOOTH",
"50 494 OFFCURVE",
"100 408 OFFCURVE",
"235 408 CURVE SMOOTH",
"255 408 OFFCURVE",
"274 411 OFFCURVE",
"291 415 CURVE",
"291 371 LINE",
"150 312 LINE",
"150 246 LINE",
"291 305 LINE",
"291 217 LINE",
"343 217 LINE",
"358 234 OFFCURVE",
"392 239 OFFCURVE",
"414 239 CURVE SMOOTH",
"481 239 OFFCURVE",
"524 210 OFFCURVE",
"524 148 CURVE SMOOTH",
"524 86 OFFCURVE",
"481 56 OFFCURVE",
"414 56 CURVE SMOOTH",
"370 56 OFFCURVE",
"342 69 OFFCURVE",
"324 90 CURVE",
"280 37 LINE",
"311 8 OFFCURVE",
"355 -12 OFFCURVE",
"415 -12 CURVE SMOOTH",
"548 -12 OFFCURVE",
"600 72 OFFCURVE",
"600 144 CURVE SMOOTH",
"600 221 OFFCURVE",
"550 307 OFFCURVE",
"415 307 CURVE SMOOTH",
"395 307 OFFCURVE",
"376 304 OFFCURVE",
"359 300 CURVE",
"359 333 LINE",
"500 392 LINE",
"500 460 LINE",
"359 400 LINE"
);
}
);
width = 650;
}
);
unicode = 1E896;
category = Letter;
},
{
glyphname = u1E897;
lastChange = "2021-12-15 15:11:38 +0000";
layers = (
{
layerId = UUID0;
paths = (
{
closed = 1;
nodes = (
"20 33 OFFCURVE",
"68 -12 OFFCURVE",
"125 -12 CURVE SMOOTH",
"182 -12 OFFCURVE",
"230 33 OFFCURVE",
"230 91 CURVE SMOOTH",
"230 129 OFFCURVE",
"209 161 OFFCURVE",
"178 179 CURVE",
"391 634 LINE",
"604 179 LINE",
"573 162 OFFCURVE",
"552 129 OFFCURVE",
"552 91 CURVE SMOOTH",
"552 33 OFFCURVE",
"600 -12 OFFCURVE",
"657 -12 CURVE SMOOTH",
"714 -12 OFFCURVE",
"762 33 OFFCURVE",
"762 91 CURVE SMOOTH",
"762 140 OFFCURVE",
"726 180 OFFCURVE",
"680 190 CURVE",
"428 714 LINE",
"354 714 LINE",
"102 190 LINE",
"55 180 OFFCURVE",
"20 140 OFFCURVE",
"20 91 CURVE SMOOTH"
);
},
{
closed = 1;
nodes = (
"701 65 OFFCURVE",
"681 46 OFFCURVE",
"658 46 CURVE SMOOTH",
"633 46 OFFCURVE",
"613 64 OFFCURVE",
"613 89 CURVE SMOOTH",
"613 114 OFFCURVE",
"633 134 OFFCURVE",
"658 134 CURVE SMOOTH",
"681 134 OFFCURVE",
"701 114 OFFCURVE",
"701 89 CURVE SMOOTH"
);
},
{
closed = 1;
nodes = (
"81 114 OFFCURVE",
"101 134 OFFCURVE",
"124 134 CURVE SMOOTH",
"149 134 OFFCURVE",
"169 114 OFFCURVE",
"169 89 CURVE SMOOTH",
"169 64 OFFCURVE",
"149 46 OFFCURVE",
"124 46 CURVE SMOOTH",
"101 46 OFFCURVE",
"81 65 OFFCURVE",
"81 89 CURVE SMOOTH"
);
}
);
width = 782;
}
);
unicode = 1E897;
category = Letter;
},
{
glyphname = u1E898;
lastChange = "2021-12-15 15:11:38 +0000";
layers = (
{
layerId = UUID0;
paths = (
{
closed = 1;
nodes = (
"565 394 LINE",
"550 394 LINE SMOOTH",
"401 394 OFFCURVE",
"249 472 OFFCURVE",
"172 533 CURVE",
"206 550 OFFCURVE",
"230 584 OFFCURVE",
"230 625 CURVE SMOOTH",
"230 682 OFFCURVE",
"182 727 OFFCURVE",
"125 727 CURVE SMOOTH",
"68 727 OFFCURVE",
"20 682 OFFCURVE",
"20 625 CURVE SMOOTH",
"20 513 OFFCURVE",
"236 400 OFFCURVE",
"377 360 CURVE",
"219 316 OFFCURVE",
"20 203 OFFCURVE",
"20 91 CURVE SMOOTH",
"20 33 OFFCURVE",
"68 -12 OFFCURVE",
"125 -12 CURVE SMOOTH",
"182 -12 OFFCURVE",
"230 33 OFFCURVE",
"230 91 CURVE SMOOTH",
"230 132 OFFCURVE",
"204 167 OFFCURVE",
"168 183 CURVE",
"243 245 OFFCURVE",
"398 326 OFFCURVE",
"550 326 CURVE SMOOTH",
"565 326 LINE"
);
},
{
closed = 1;
nodes = (
"81 648 OFFCURVE",
"101 668 OFFCURVE",
"124 668 CURVE SMOOTH",
"149 668 OFFCURVE",
"169 648 OFFCURVE",
"169 623 CURVE SMOOTH",
"169 598 OFFCURVE",
"149 580 OFFCURVE",
"124 580 CURVE SMOOTH",
"101 580 OFFCURVE",
"81 599 OFFCURVE",
"81 623 CURVE SMOOTH"
);
},
{
closed = 1;
nodes = (
"81 114 OFFCURVE",
"101 134 OFFCURVE",
"124 134 CURVE SMOOTH",
"149 134 OFFCURVE",
"169 114 OFFCURVE",
"169 89 CURVE SMOOTH",
"169 64 OFFCURVE",
"149 46 OFFCURVE",
"124 46 CURVE SMOOTH",
"101 46 OFFCURVE",
"81 65 OFFCURVE",
"81 89 CURVE SMOOTH"
);
}
);
width = 585;
}
);
unicode = 1E898;
category = Letter;
},
{
glyphname = u1E899;
lastChange = "2021-12-15 15:11:38 +0000";
layers = (
{
layerId = UUID0;
paths = (
{
closed = 1;
nodes = (
"95 511 LINE",
"280 511 LINE",
"270 493 OFFCURVE",
"260 476 OFFCURVE",
"252 458 CURVE",
"95 458 LINE",
"95 394 LINE",
"225 394 LINE",
"215 365 OFFCURVE",
"206 336 OFFCURVE",
"201 306 CURVE",
"110 274 OFFCURVE",
"48 200 OFFCURVE",
"10 117 CURVE",
"66 79 LINE",
"102 147 OFFCURVE",
"136 200 OFFCURVE",
"192 229 CURVE",
"192 212 LINE SMOOTH",
"192 90 OFFCURVE",
"243 -12 OFFCURVE",
"374 -12 CURVE SMOOTH",
"460 -12 OFFCURVE",
"538 46 OFFCURVE",
"538 141 CURVE SMOOTH",
"538 246 OFFCURVE",
"464 323 OFFCURVE",
"305 323 CURVE SMOOTH",
"297 323 OFFCURVE",
"289 323 OFFCURVE",
"281 322 CURVE",
"287 346 OFFCURVE",
"294 370 OFFCURVE",
"303 394 CURVE",
"519 394 LINE",
"519 458 LINE",
"332 458 LINE",
"341 476 OFFCURVE",
"351 493 OFFCURVE",
"362 511 CURVE",
"519 511 LINE",
"519 575 LINE",
"407 575 LINE",
"436 613 OFFCURVE",
"468 648 OFFCURVE",
"501 680 CURVE",
"453 726 LINE",
"406 682 OFFCURVE",
"361 631 OFFCURVE",
"321 575 CURVE",
"95 575 LINE"
);
},
{
closed = 1;
nodes = (
"316 56 OFFCURVE",
"268 86 OFFCURVE",
"268 213 CURVE SMOOTH",
"268 226 OFFCURVE",
"268 238 OFFCURVE",
"269 251 CURVE",
"282 252 OFFCURVE",
"295 253 OFFCURVE",
"309 253 CURVE SMOOTH",
"362 253 OFFCURVE",
"461 239 OFFCURVE",
"461 148 CURVE SMOOTH",
"461 85 OFFCURVE",
"425 56 OFFCURVE",
"375 56 CURVE SMOOTH"
);
}
);
width = 598;
}
);
unicode = 1E899;
category = Letter;
},
{
glyphname = u1E89A;
lastChange = "2021-12-15 15:11:38 +0000";
layers = (
{
layerId = UUID0;
paths = (
{
closed = 1;
nodes = (
"805 400 LINE",
"438 400 LINE",
"438 536 LINE",
"370 536 LINE",
"370 400 LINE",
"164 400 LINE",
"164 624 LINE",
"90 624 LINE",
"90 100 LINE",
"164 100 LINE",
"164 332 LINE",
"370 332 LINE",
"370 198 LINE",
"438 198 LINE",
"438 332 LINE",
"805 332 LINE"
);
},
{
closed = 1;
nodes = (
"666 523 OFFCURVE",
"644 544 OFFCURVE",
"612 544 CURVE SMOOTH",
"581 544 OFFCURVE",
"559 523 OFFCURVE",
"559 490 CURVE SMOOTH",
"559 456 OFFCURVE",
"578 437 OFFCURVE",
"612 437 CURVE SMOOTH",
"644 437 OFFCURVE",
"666 456 OFFCURVE",
"666 490 CURVE SMOOTH"
);
}
);
width = 825;
}
);
unicode = 1E89A;
category = Letter;
},
{
glyphname = u1E89B;
lastChange = "2021-12-15 15:11:38 +0000";
layers = (
{
layerId = UUID0;
paths = (
{
closed = 1;
nodes = (
"187 207 LINE",
"239 207 LINE",
"254 224 OFFCURVE",
"288 229 OFFCURVE",
"310 229 CURVE SMOOTH",
"377 229 OFFCURVE",
"420 205 OFFCURVE",
"420 143 CURVE SMOOTH",
"420 81 OFFCURVE",
"377 56 OFFCURVE",
"310 56 CURVE SMOOTH",
"266 56 OFFCURVE",
"238 69 OFFCURVE",
"220 90 CURVE",
"176 37 LINE",
"207 8 OFFCURVE",
"251 -12 OFFCURVE",
"311 -12 CURVE SMOOTH",
"444 -12 OFFCURVE",
"496 67 OFFCURVE",
"496 139 CURVE SMOOTH",
"496 216 OFFCURVE",
"446 297 OFFCURVE",
"311 297 CURVE SMOOTH",
"291 297 OFFCURVE",
"272 293 OFFCURVE",
"255 289 CURVE",
"255 326 LINE",
"578 326 LINE",
"578 394 LINE",
"255 394 LINE",
"255 426 LINE",
"272 422 OFFCURVE",
"291 418 OFFCURVE",
"311 418 CURVE SMOOTH",
"446 418 OFFCURVE",
"496 499 OFFCURVE",
"496 576 CURVE SMOOTH",
"496 648 OFFCURVE",
"444 727 OFFCURVE",
"311 727 CURVE SMOOTH",
"251 727 OFFCURVE",
"207 707 OFFCURVE",
"176 678 CURVE",
"220 625 LINE",
"238 646 OFFCURVE",
"266 659 OFFCURVE",
"310 659 CURVE SMOOTH",
"377 659 OFFCURVE",
"420 634 OFFCURVE",
"420 572 CURVE SMOOTH",
"420 510 OFFCURVE",
"377 486 OFFCURVE",
"310 486 CURVE SMOOTH",
"288 486 OFFCURVE",
"254 491 OFFCURVE",
"239 508 CURVE",
"187 508 LINE",
"187 394 LINE",
"20 394 LINE",
"20 326 LINE",
"187 326 LINE"
);
},
{
closed = 1;
nodes = (
"634 285 OFFCURVE",
"612 306 OFFCURVE",
"580 306 CURVE SMOOTH",
"549 306 OFFCURVE",
"527 285 OFFCURVE",
"527 252 CURVE SMOOTH",
"527 218 OFFCURVE",
"546 199 OFFCURVE",
"580 199 CURVE SMOOTH",
"612 199 OFFCURVE",
"634 218 OFFCURVE",
"634 252 CURVE SMOOTH"
);
},
{
closed = 1;
nodes = (
"634 495 OFFCURVE",
"612 516 OFFCURVE",
"580 516 CURVE SMOOTH",
"549 516 OFFCURVE",
"527 495 OFFCURVE",
"527 462 CURVE SMOOTH",
"527 428 OFFCURVE",
"546 409 OFFCURVE",
"580 409 CURVE SMOOTH",
"612 409 OFFCURVE",
"634 428 OFFCURVE",
"634 462 CURVE SMOOTH"
);
}
);
width = 664;
}
);
unicode = 1E89B;
category = Letter;
},
{
glyphname = u1E89C;
lastChange = "2021-12-15 15:11:38 +0000";
layers = (
{
layerId = UUID0;
paths = (
{
closed = 1;
nodes = (
"552 508 LINE",
"552 344 LINE",
"223 344 LINE SMOOTH",
"139 344 OFFCURVE",
"116 371 OFFCURVE",
"116 415 CURVE SMOOTH",
"116 465 OFFCURVE",
"159 470 OFFCURVE",
"197 470 CURVE SMOOTH",
"223 470 LINE",
"223 538 LINE",
"197 538 LINE SMOOTH",
"89 538 OFFCURVE",
"40 487 OFFCURVE",
"40 415 CURVE SMOOTH",
"40 316 OFFCURVE",
"112 276 OFFCURVE",
"225 276 CURVE SMOOTH",
"552 276 LINE",
"552 100 LINE",
"622 100 LINE",
"622 276 LINE",
"796 276 LINE",
"796 344 LINE",
"622 344 LINE",
"622 508 LINE"
);
},
{
closed = 1;
nodes = (
"427 493 OFFCURVE",
"405 514 OFFCURVE",
"373 514 CURVE SMOOTH",
"342 514 OFFCURVE",
"320 493 OFFCURVE",
"320 460 CURVE SMOOTH",
"320 426 OFFCURVE",
"339 407 OFFCURVE",
"373 407 CURVE SMOOTH",
"405 407 OFFCURVE",
"427 426 OFFCURVE",
"427 460 CURVE SMOOTH"
);
}
);
width = 816;
}
);
unicode = 1E89C;
category = Letter;
},
{
glyphname = u1E89D;
lastChange = "2021-12-15 15:11:38 +0000";
layers = (
{
layerId = UUID0;
paths = (
{
closed = 1;
nodes = (
"50 205 LINE",
"661 205 LINE",
"661 315 LINE",
"1041 315 LINE",
"1041 215 LINE",
"1111 215 LINE",
"1111 475 LINE",
"1041 475 LINE",
"1041 379 LINE",
"661 379 LINE",
"661 485 LINE",
"50 485 LINE"
);
},
{
closed = 1;
nodes = (
"591 273 LINE",
"120 273 LINE",
"120 417 LINE",
"591 417 LINE"
);
}
);
width = 1161;
}
);
unicode = 1E89D;
category = Letter;
},
{
glyphname = u1E89E;
lastChange = "2021-12-15 15:11:38 +0000";
layers = (
{
layerId = UUID0;
paths = (
{
closed = 1;
nodes = (
"84 129 LINE",
"414 129 LINE",
"414 187 LINE",
"284 187 LINE",
"284 302 LINE",
"385 312 OFFCURVE",
"438 366 OFFCURVE",
"438 471 CURVE SMOOTH",
"438 714 LINE",
"364 714 LINE",
"364 476 LINE SMOOTH",
"364 405 OFFCURVE",
"326 371 OFFCURVE",
"249 371 CURVE SMOOTH",
"172 371 OFFCURVE",
"134 405 OFFCURVE",
"134 476 CURVE SMOOTH",
"134 714 LINE",
"60 714 LINE",
"60 471 LINE SMOOTH",
"60 366 OFFCURVE",
"113 312 OFFCURVE",
"214 302 CURVE",
"214 187 LINE",
"84 187 LINE"
);
},
{
closed = 1;
nodes = (
"398 74 OFFCURVE",
"376 95 OFFCURVE",
"344 95 CURVE SMOOTH",
"313 95 OFFCURVE",
"291 74 OFFCURVE",
"291 41 CURVE SMOOTH",
"291 7 OFFCURVE",
"310 -12 OFFCURVE",
"344 -12 CURVE SMOOTH",
"376 -12 OFFCURVE",
"398 7 OFFCURVE",
"398 41 CURVE SMOOTH"
);
},
{
closed = 1;
nodes = (
"207 74 OFFCURVE",
"185 95 OFFCURVE",
"153 95 CURVE SMOOTH",
"122 95 OFFCURVE",
"100 74 OFFCURVE",
"100 41 CURVE SMOOTH",
"100 7 OFFCURVE",
"119 -12 OFFCURVE",
"153 -12 CURVE SMOOTH",
"185 -12 OFFCURVE",
"207 7 OFFCURVE",
"207 41 CURVE SMOOTH"
);
}
);
width = 498;
}
);
unicode = 1E89E;
category = Letter;
},
{
glyphname = u1E8A0;
lastChange = "2021-12-15 15:11:38 +0000";
layers = (
{
layerId = UUID0;
paths = (
{
closed = 1;
nodes = (
"636 122 LINE",
"730 216 LINE",
"861 93 LINE",
"903 140 LINE",
"776 262 LINE",
"872 358 LINE",
"828 402 LINE",
"732 306 LINE",
"604 430 LINE",
"580 430 LINE",
"397 179 LINE",
"65 497 LINE",
"20 445 LINE",
"387 95 LINE",
"415 95 LINE",
"594 343 LINE",
"684 258 LINE",
"591 165 LINE"
);
}
);
width = 923;
}
);
unicode = 1E8A0;
category = Letter;
},
{
glyphname = u1E8A2;
lastChange = "2021-12-15 15:11:38 +0000";
layers = (
{
layerId = UUID0;
paths = (
{
closed = 1;
nodes = (
"50 278 OFFCURVE",
"114 218 OFFCURVE",
"189 218 CURVE SMOOTH",
"252 218 OFFCURVE",
"308 261 OFFCURVE",
"324 320 CURVE",
"535 320 LINE",
"535 187 LINE",
"603 187 LINE",
"603 320 LINE",
"814 320 LINE",
"829 261 OFFCURVE",
"885 218 OFFCURVE",
"949 218 CURVE SMOOTH",
"1024 218 OFFCURVE",
"1088 278 OFFCURVE",
"1088 353 CURVE SMOOTH",
"1088 429 OFFCURVE",
"1024 489 OFFCURVE",
"949 489 CURVE SMOOTH",
"886 489 OFFCURVE",
"830 446 OFFCURVE",
"814 388 CURVE",
"603 388 LINE",
"603 519 LINE",
"535 519 LINE",
"535 388 LINE",
"323 388 LINE",
"307 446 OFFCURVE",
"252 489 OFFCURVE",
"189 489 CURVE SMOOTH",
"114 489 OFFCURVE",
"50 429 OFFCURVE",
"50 353 CURVE SMOOTH"
);
},
{
closed = 1;
nodes = (
"119 393 OFFCURVE",
"151 424 OFFCURVE",
"189 424 CURVE SMOOTH",
"227 424 OFFCURVE",
"259 394 OFFCURVE",
"259 353 CURVE SMOOTH",
"259 314 OFFCURVE",
"227 283 OFFCURVE",
"189 283 CURVE SMOOTH",
"151 283 OFFCURVE",
"119 314 OFFCURVE",
"119 353 CURVE SMOOTH"
);
},
{
closed = 1;
nodes = (
"879 393 OFFCURVE",
"911 424 OFFCURVE",
"949 424 CURVE SMOOTH",
"987 424 OFFCURVE",
"1019 394 OFFCURVE",
"1019 353 CURVE SMOOTH",
"1019 314 OFFCURVE",
"987 283 OFFCURVE",
"949 283 CURVE SMOOTH",
"911 283 OFFCURVE",
"879 314 OFFCURVE",
"879 353 CURVE SMOOTH"
);
}
);
width = 1138;
}
);
unicode = 1E8A2;
category = Letter;
},
{
glyphname = u1E8A3;
lastChange = "2021-12-15 15:11:38 +0000";
layers = (
{
layerId = UUID0;
paths = (
{
closed = 1;
nodes = (
"40 505 LINE",
"206 260 LINE",
"47 26 LINE",
"101 -10 LINE",
"245 202 LINE",
"389 -10 LINE",
"443 26 LINE",
"284 260 LINE",
"450 505 LINE",
"450 563 LINE",
"280 563 LINE",
"280 714 LINE",
"210 714 LINE",
"210 563 LINE",
"40 563 LINE"
);
},
{
closed = 1;
nodes = (
"118 505 LINE",
"372 505 LINE",
"245 317 LINE"
);
}
);
width = 490;
}
);
unicode = 1E8A3;
category = Letter;
},
{
glyphname = u1E8A4;
lastChange = "2021-12-15 15:11:38 +0000";
layers = (
{
layerId = UUID0;
paths = (
{
closed = 1;
nodes = (
"315 0 LINE",
"315 267 LINE",
"443 267 LINE",
"443 331 LINE",
"315 331 LINE",
"315 439 LINE",
"538 439 LINE",
"538 0 LINE",
"612 0 LINE",
"612 439 LINE",
"732 440 OFFCURVE",
"803 508 OFFCURVE",
"803 604 CURVE SMOOTH",
"803 652 OFFCURVE",
"766 727 OFFCURVE",
"667 727 CURVE SMOOTH",
"566 727 OFFCURVE",
"538 643 OFFCURVE",
"538 563 CURVE SMOOTH",
"538 507 LINE",
"315 507 LINE",
"315 563 LINE SMOOTH",
"315 643 OFFCURVE",
"287 727 OFFCURVE",
"186 727 CURVE SMOOTH",
"87 727 OFFCURVE",
"50 652 OFFCURVE",
"50 604 CURVE SMOOTH",
"50 508 OFFCURVE",
"120 440 OFFCURVE",
"241 439 CURVE",
"241 331 LINE",
"113 331 LINE",
"113 267 LINE",
"241 267 LINE",
"241 0 LINE"
);
},
{
closed = 1;
nodes = (
"119 630 OFFCURVE",
"133 664 OFFCURVE",
"178 664 CURVE SMOOTH",
"220 664 OFFCURVE",
"241 642 OFFCURVE",
"241 572 CURVE SMOOTH",
"241 507 LINE",
"158 508 OFFCURVE",
"119 538 OFFCURVE",
"119 604 CURVE SMOOTH"
);
},
{
closed = 1;
nodes = (
"612 572 LINE SMOOTH",
"612 642 OFFCURVE",
"633 664 OFFCURVE",
"675 664 CURVE SMOOTH",
"720 664 OFFCURVE",
"734 630 OFFCURVE",
"734 604 CURVE SMOOTH",
"734 538 OFFCURVE",
"694 508 OFFCURVE",
"612 507 CURVE"
);
}
);
width = 853;
}
);
unicode = 1E8A4;
category = Letter;
},
{
glyphname = u1E8A5;
lastChange = "2021-12-15 15:11:38 +0000";
layers = (
{
layerId = UUID0;
paths = (
{
closed = 1;
nodes = (
"50 332 LINE",
"366 332 LINE",
"140 25 LINE",
"194 -12 LINE",
"450 332 LINE",
"450 400 LINE",
"124 400 LINE",
"124 574 LINE",
"521 574 LINE",
"535 522 OFFCURVE",
"584 484 OFFCURVE",
"640 484 CURVE SMOOTH",
"707 484 OFFCURVE",
"764 537 OFFCURVE",
"764 604 CURVE SMOOTH",
"764 672 OFFCURVE",
"707 725 OFFCURVE",
"640 725 CURVE SMOOTH",
"587 725 OFFCURVE",
"540 690 OFFCURVE",
"523 642 CURVE",
"50 642 LINE"
);
},
{
closed = 1;
nodes = (
"698 572 OFFCURVE",
"671 547 OFFCURVE",
"640 547 CURVE SMOOTH",
"609 547 OFFCURVE",
"583 572 OFFCURVE",
"583 605 CURVE SMOOTH",
"583 639 OFFCURVE",
"609 662 OFFCURVE",
"640 662 CURVE SMOOTH",
"671 662 OFFCURVE",
"698 638 OFFCURVE",
"698 605 CURVE SMOOTH"
);
},
{
closed = 1;
nodes = (
"167 251 OFFCURVE",
"145 272 OFFCURVE",
"113 272 CURVE SMOOTH",
"82 272 OFFCURVE",
"60 251 OFFCURVE",
"60 218 CURVE SMOOTH",
"60 184 OFFCURVE",
"79 165 OFFCURVE",
"113 165 CURVE SMOOTH",
"145 165 OFFCURVE",
"167 184 OFFCURVE",
"167 218 CURVE SMOOTH"
);
}
);
width = 784;
}
);
unicode = 1E8A5;
category = Letter;
},
{
glyphname = u1E8A7;
lastChange = "2021-12-15 15:11:38 +0000";
layers = (
{
layerId = UUID0;
paths = (
{
closed = 1;
nodes = (
"311 714 LINE",
"311 400 LINE",
"277 400 LINE SMOOTH",
"186 400 OFFCURVE",
"50 374 OFFCURVE",
"50 240 CURVE SMOOTH",
"50 125 OFFCURVE",
"157 82 OFFCURVE",
"278 82 CURVE SMOOTH",
"311 82 LINE",
"311 0 LINE",
"385 0 LINE",
"385 332 LINE",
"418 332 LINE SMOOTH",
"539 332 OFFCURVE",
"646 375 OFFCURVE",
"646 490 CURVE SMOOTH",
"646 624 OFFCURVE",
"510 650 OFFCURVE",
"419 650 CURVE SMOOTH",
"385 650 LINE",
"385 714 LINE"
);
},
{
closed = 1;
nodes = (
"126 326 OFFCURVE",
"215 332 OFFCURVE",
"278 332 CURVE SMOOTH",
"311 332 LINE",
"311 150 LINE",
"279 150 LINE SMOOTH",
"205 150 OFFCURVE",
"126 159 OFFCURVE",
"126 243 CURVE SMOOTH"
);
},
{
closed = 1;
nodes = (
"418 582 LINE SMOOTH",
"481 582 OFFCURVE",
"570 576 OFFCURVE",
"570 493 CURVE SMOOTH",
"570 409 OFFCURVE",
"491 400 OFFCURVE",
"417 400 CURVE SMOOTH",
"385 400 LINE",
"385 582 LINE"
);
},
{
closed = 1;
nodes = (
"236 581 OFFCURVE",
"214 602 OFFCURVE",
"182 602 CURVE SMOOTH",
"151 602 OFFCURVE",
"129 581 OFFCURVE",
"129 548 CURVE SMOOTH",
"129 514 OFFCURVE",
"148 495 OFFCURVE",
"182 495 CURVE SMOOTH",
"214 495 OFFCURVE",
"236 514 OFFCURVE",
"236 548 CURVE SMOOTH"
);
}
);
width = 696;
}
);
unicode = 1E8A7;
category = Letter;
},
{
glyphname = u1E8A9;
lastChange = "2021-12-15 15:11:38 +0000";
layers = (
{
layerId = UUID0;
paths = (
{
closed = 1;
nodes = (
"30 58 LINE",
"30 0 LINE",
"536 0 LINE",
"536 58 LINE",
"323 363 LINE",
"536 669 LINE",
"536 727 LINE",
"30 727 LINE",
"30 669 LINE",
"243 363 LINE"
);
},
{
closed = 1;
nodes = (
"117 659 LINE",
"449 659 LINE",
"283 421 LINE"
);
},
{
closed = 1;
nodes = (
"449 68 LINE",
"117 68 LINE",
"283 306 LINE"
);
}
);
width = 566;
}
);
unicode = 1E8A9;
category = Letter;
},
{
glyphname = u1E8AA;
lastChange = "2021-12-15 15:11:38 +0000";
layers = (
{
layerId = UUID0;
paths = (
{
closed = 1;
nodes = (
"50 347 LINE",
"50 59 LINE",
"578 59 LINE SMOOTH",
"734 59 OFFCURVE",
"786 123 OFFCURVE",
"786 208 CURVE SMOOTH",
"786 294 OFFCURVE",
"708 347 OFFCURVE",
"578 347 CURVE SMOOTH",
"433 347 LINE",
"433 566 LINE",
"563 566 LINE",
"563 624 LINE",
"233 624 LINE",
"233 566 LINE",
"363 566 LINE",
"363 347 LINE"
);
},
{
closed = 1;
nodes = (
"578 279 LINE SMOOTH",
"672 279 OFFCURVE",
"710 254 OFFCURVE",
"710 208 CURVE SMOOTH",
"710 169 OFFCURVE",
"693 127 OFFCURVE",
"578 127 CURVE SMOOTH",
"120 127 LINE",
"120 279 LINE"
);
},
{
closed = 1;
nodes = (
"312 484 OFFCURVE",
"290 505 OFFCURVE",
"258 505 CURVE SMOOTH",
"227 505 OFFCURVE",
"205 484 OFFCURVE",
"205 451 CURVE SMOOTH",
"205 417 OFFCURVE",
"224 398 OFFCURVE",
"258 398 CURVE SMOOTH",
"290 398 OFFCURVE",
"312 417 OFFCURVE",
"312 451 CURVE SMOOTH"
);
},
{
closed = 1;
nodes = (
"592 484 OFFCURVE",
"570 505 OFFCURVE",
"538 505 CURVE SMOOTH",
"507 505 OFFCURVE",
"485 484 OFFCURVE",
"485 451 CURVE SMOOTH",
"485 417 OFFCURVE",
"504 398 OFFCURVE",
"538 398 CURVE SMOOTH",
"570 398 OFFCURVE",
"592 417 OFFCURVE",
"592 451 CURVE SMOOTH"
);
}
);
width = 826;
}
);
unicode = 1E8AA;
category = Letter;
},
{
glyphname = u1E8AC;
lastChange = "2021-12-15 15:11:38 +0000";
layers = (
{
layerId = UUID0;
paths = (
{
closed = 1;
nodes = (
"50 209 LINE",
"320 209 LINE",
"320 277 LINE",
"124 277 LINE",
"124 451 LINE",
"521 451 LINE",
"535 399 OFFCURVE",
"584 361 OFFCURVE",
"640 361 CURVE SMOOTH",
"707 361 OFFCURVE",
"764 414 OFFCURVE",
"764 481 CURVE SMOOTH",
"764 549 OFFCURVE",
"707 602 OFFCURVE",
"640 602 CURVE SMOOTH",
"587 602 OFFCURVE",
"540 567 OFFCURVE",
"523 519 CURVE",
"419 519 LINE",
"282 704 LINE",
"228 667 LINE",
"337 519 LINE",
"50 519 LINE"
);
},
{
closed = 1;
nodes = (
"698 449 OFFCURVE",
"671 424 OFFCURVE",
"640 424 CURVE SMOOTH",
"609 424 OFFCURVE",
"583 449 OFFCURVE",
"583 482 CURVE SMOOTH",
"583 516 OFFCURVE",
"609 539 OFFCURVE",
"640 539 CURVE SMOOTH",
"671 539 OFFCURVE",
"698 515 OFFCURVE",
"698 482 CURVE SMOOTH"
);
}
);
width = 784;
}
);
unicode = 1E8AC;
category = Letter;
},
{
glyphname = u1E8AD;
lastChange = "2021-12-15 15:11:38 +0000";
layers = (
{
layerId = UUID0;
paths = (
{
closed = 1;
nodes = (
"431 511 LINE",
"289 511 LINE",
"289 714 LINE",
"215 714 LINE",
"215 511 LINE",
"65 511 LINE",
"65 447 LINE",
"213 447 LINE",
"200 277 OFFCURVE",
"129 163 OFFCURVE",
"0 40 CURVE",
"49 -11 LINE",
"208 139 OFFCURVE",
"273 292 OFFCURVE",
"286 447 CURVE",
"431 447 LINE"
);
}
);
width = 451;
}
);
unicode = 1E8AD;
category = Letter;
},
{
glyphname = u1E8AE;
lastChange = "2021-12-15 15:11:38 +0000";
layers = (
{
layerId = UUID0;
paths = (
{
closed = 1;
nodes = (
"921 370 LINE",
"20 370 LINE",
"20 302 LINE",
"921 302 LINE"
);
},
{
closed = 1;
nodes = (
"921 188 LINE",
"20 188 LINE",
"20 120 LINE",
"921 120 LINE"
);
},
{
closed = 1;
nodes = (
"524 565 OFFCURVE",
"502 586 OFFCURVE",
"470 586 CURVE SMOOTH",
"439 586 OFFCURVE",
"417 565 OFFCURVE",
"417 532 CURVE SMOOTH",
"417 498 OFFCURVE",
"436 479 OFFCURVE",
"470 479 CURVE SMOOTH",
"502 479 OFFCURVE",
"524 498 OFFCURVE",
"524 532 CURVE SMOOTH"
);
},
{
closed = 1;
nodes = (
"324 565 OFFCURVE",
"302 586 OFFCURVE",
"270 586 CURVE SMOOTH",
"239 586 OFFCURVE",
"217 565 OFFCURVE",
"217 532 CURVE SMOOTH",
"217 498 OFFCURVE",
"236 479 OFFCURVE",
"270 479 CURVE SMOOTH",
"302 479 OFFCURVE",
"324 498 OFFCURVE",
"324 532 CURVE SMOOTH"
);
},
{
closed = 1;
nodes = (
"724 565 OFFCURVE",
"702 586 OFFCURVE",
"670 586 CURVE SMOOTH",
"639 586 OFFCURVE",
"617 565 OFFCURVE",
"617 532 CURVE SMOOTH",
"617 498 OFFCURVE",
"636 479 OFFCURVE",
"670 479 CURVE SMOOTH",
"702 479 OFFCURVE",
"724 498 OFFCURVE",
"724 532 CURVE SMOOTH"
);
}
);
width = 941;
}
);
unicode = 1E8AE;
category = Letter;
},
{
glyphname = u1E8AF;
lastChange = "2021-12-15 15:11:38 +0000";
layers = (
{
layerId = UUID0;
paths = (
{
closed = 1;
nodes = (
"863 650 LINE",
"863 610 LINE SMOOTH",
"863 533 OFFCURVE",
"839 461 OFFCURVE",
"799 402 CURVE",
"720 478 OFFCURVE",
"612 525 OFFCURVE",
"493 525 CURVE SMOOTH",
"374 525 OFFCURVE",
"266 478 OFFCURVE",
"187 402 CURVE",
"147 461 OFFCURVE",
"124 533 OFFCURVE",
"124 610 CURVE SMOOTH",
"124 650 LINE",
"50 650 LINE",
"50 609 LINE SMOOTH",
"50 510 OFFCURVE",
"82 419 OFFCURVE",
"137 345 CURVE",
"82 271 OFFCURVE",
"50 180 OFFCURVE",
"50 81 CURVE SMOOTH",
"50 40 LINE",
"124 40 LINE",
"124 80 LINE SMOOTH",
"124 157 OFFCURVE",
"147 228 OFFCURVE",
"187 288 CURVE",
"266 212 OFFCURVE",
"374 165 OFFCURVE",
"493 165 CURVE SMOOTH",
"612 165 OFFCURVE",
"720 212 OFFCURVE",
"799 288 CURVE",
"839 228 OFFCURVE",
"863 157 OFFCURVE",
"863 80 CURVE SMOOTH",
"863 40 LINE",
"937 40 LINE",
"937 81 LINE SMOOTH",
"937 180 OFFCURVE",
"905 271 OFFCURVE",
"850 345 CURVE",
"905 419 OFFCURVE",
"937 510 OFFCURVE",
"937 609 CURVE SMOOTH",
"937 650 LINE"
);
},
{
closed = 1;
nodes = (
"593 455 OFFCURVE",
"685 413 OFFCURVE",
"753 345 CURVE",
"685 277 OFFCURVE",
"593 235 OFFCURVE",
"494 235 CURVE SMOOTH",
"393 235 OFFCURVE",
"301 277 OFFCURVE",
"233 345 CURVE",
"301 413 OFFCURVE",
"393 455 OFFCURVE",
"494 455 CURVE SMOOTH"
);
},
{
closed = 1;
nodes = (
"547 693 OFFCURVE",
"525 714 OFFCURVE",
"493 714 CURVE SMOOTH",
"462 714 OFFCURVE",
"440 693 OFFCURVE",
"440 660 CURVE SMOOTH",
"440 626 OFFCURVE",
"459 607 OFFCURVE",
"493 607 CURVE SMOOTH",
"525 607 OFFCURVE",
"547 626 OFFCURVE",
"547 660 CURVE SMOOTH"
);
}
);
width = 987;
}
);
unicode = 1E8AF;
category = Letter;
},
{
glyphname = u1E8B0;
lastChange = "2021-12-15 15:11:38 +0000";
layers = (
{
layerId = UUID0;
paths = (
{
closed = 1;
nodes = (
"50 507 LINE",
"50 219 LINE",
"472 219 LINE",
"492 122 LINE",
"456 88 OFFCURVE",
"427 47 OFFCURVE",
"405 -1 CURVE",
"461 -29 LINE",
"475 2 OFFCURVE",
"491 30 OFFCURVE",
"511 55 CURVE",
"527 17 OFFCURVE",
"555 -12 OFFCURVE",
"606 -12 CURVE SMOOTH",
"663 -12 OFFCURVE",
"711 29 OFFCURVE",
"711 87 CURVE SMOOTH",
"711 144 OFFCURVE",
"665 182 OFFCURVE",
"610 182 CURVE SMOOTH",
"583 182 OFFCURVE",
"564 175 OFFCURVE",
"548 166 CURVE",
"537 219 LINE",
"778 219 LINE SMOOTH",
"934 219 OFFCURVE",
"986 283 OFFCURVE",
"986 368 CURVE SMOOTH",
"986 454 OFFCURVE",
"908 507 OFFCURVE",
"778 507 CURVE SMOOTH",
"480 507 LINE",
"442 696 LINE",
"378 696 LINE",
"415 507 LINE"
);
},
{
closed = 1;
nodes = (
"778 439 LINE SMOOTH",
"872 439 OFFCURVE",
"910 414 OFFCURVE",
"910 368 CURVE SMOOTH",
"910 329 OFFCURVE",
"893 287 OFFCURVE",
"778 287 CURVE SMOOTH",
"524 287 LINE",
"493 439 LINE"
);
},
{
closed = 1;
nodes = (
"120 439 LINE",
"429 439 LINE",
"459 287 LINE",
"120 287 LINE"
);
},
{
closed = 1;
nodes = (
"572 117 OFFCURVE",
"585 126 OFFCURVE",
"602 126 CURVE SMOOTH",
"635 126 OFFCURVE",
"652 110 OFFCURVE",
"652 85 CURVE SMOOTH",
"652 60 OFFCURVE",
"630 44 OFFCURVE",
"605 44 CURVE SMOOTH",
"582 44 OFFCURVE",
"569 80 OFFCURVE",
"563 106 CURVE"
);
}
);
width = 1026;
}
);
unicode = 1E8B0;
category = Letter;
},
{
glyphname = u1E8B1;
lastChange = "2021-12-15 15:11:38 +0000";
layers = (
{
layerId = UUID0;
paths = (
{
closed = 1;
nodes = (
"50 487 LINE",
"50 199 LINE",
"392 199 LINE",
"295 67 LINE",
"349 30 LINE",
"474 199 LINE",
"778 199 LINE SMOOTH",
"934 199 OFFCURVE",
"986 263 OFFCURVE",
"986 348 CURVE SMOOTH",
"986 434 OFFCURVE",
"908 487 OFFCURVE",
"778 487 CURVE SMOOTH"
);
},
{
closed = 1;
nodes = (
"778 419 LINE SMOOTH",
"872 419 OFFCURVE",
"910 394 OFFCURVE",
"910 348 CURVE SMOOTH",
"910 309 OFFCURVE",
"893 267 OFFCURVE",
"778 267 CURVE SMOOTH",
"120 267 LINE",
"120 419 LINE"
);
}
);
width = 1026;
}
);
unicode = 1E8B1;
category = Letter;
},
{
glyphname = u1E8B2;
lastChange = "2021-12-15 15:11:38 +0000";
layers = (
{
layerId = UUID0;
paths = (
{
closed = 1;
nodes = (
"413 443 LINE",
"299 403 LINE",
"299 467 LINE",
"508 676 LINE",
"466 724 LINE",
"264 527 LINE",
"62 724 LINE",
"20 676 LINE",
"229 467 LINE",
"229 379 LINE",
"115 340 LINE",
"115 272 LINE",
"229 311 LINE",
"229 238 LINE",
"20 29 LINE",
"62 -19 LINE",
"264 178 LINE",
"466 -19 LINE",
"508 29 LINE",
"299 238 LINE",
"299 335 LINE",
"413 375 LINE"
);
}
);
width = 528;
}
);
unicode = 1E8B2;
category = Letter;
},
{
glyphname = u1E8B3;
lastChange = "2021-12-15 15:11:38 +0000";
layers = (
{
layerId = UUID0;
paths = (
{
closed = 1;
nodes = (
"448 410 LINE",
"380 410 LINE",
"380 337 LINE",
"284 337 LINE",
"284 460 LINE",
"343 475 OFFCURVE",
"388 528 OFFCURVE",
"388 591 CURVE SMOOTH",
"388 667 OFFCURVE",
"324 727 OFFCURVE",
"249 727 CURVE SMOOTH",
"174 727 OFFCURVE",
"110 667 OFFCURVE",
"110 591 CURVE SMOOTH",
"110 528 OFFCURVE",
"155 475 OFFCURVE",
"214 460 CURVE",
"214 337 LINE",
"118 337 LINE",
"118 410 LINE",
"50 410 LINE",
"50 181 LINE",
"118 181 LINE",
"118 273 LINE",
"214 273 LINE",
"214 0 LINE",
"284 0 LINE",
"284 273 LINE",
"380 273 LINE",
"380 181 LINE",
"448 181 LINE"
);
},
{
closed = 1;
nodes = (
"179 631 OFFCURVE",
"211 662 OFFCURVE",
"249 662 CURVE SMOOTH",
"287 662 OFFCURVE",
"319 632 OFFCURVE",
"319 591 CURVE SMOOTH",
"319 552 OFFCURVE",
"287 521 OFFCURVE",
"249 521 CURVE SMOOTH",
"211 521 OFFCURVE",
"179 552 OFFCURVE",
"179 591 CURVE SMOOTH"
);
}
);
width = 498;
}
);
unicode = 1E8B3;
category = Letter;
},
{
glyphname = u1E8B4;
lastChange = "2021-12-15 15:11:38 +0000";
layers = (
{
layerId = UUID0;
paths = (
{
closed = 1;
nodes = (
"30 188 LINE",
"208 188 LINE",
"208 152 LINE SMOOTH",
"208 72 OFFCURVE",
"236 -12 OFFCURVE",
"337 -12 CURVE SMOOTH",
"436 -12 OFFCURVE",
"473 63 OFFCURVE",
"473 111 CURVE SMOOTH",
"473 207 OFFCURVE",
"423 255 OFFCURVE",
"282 256 CURVE",
"282 364 LINE",
"453 364 LINE SMOOTH",
"566 364 OFFCURVE",
"634 400 OFFCURVE",
"634 499 CURVE SMOOTH",
"634 537 OFFCURVE",
"623 565 OFFCURVE",
"605 585 CURVE",
"544 542 LINE",
"555 532 OFFCURVE",
"562 518 OFFCURVE",
"562 499 CURVE SMOOTH",
"562 455 OFFCURVE",
"539 428 OFFCURVE",
"455 428 CURVE SMOOTH",
"282 428 LINE",
"282 560 LINE",
"407 560 LINE",
"407 624 LINE",
"282 624 LINE",
"282 714 LINE",
"208 714 LINE",
"208 624 LINE",
"93 624 LINE",
"93 560 LINE",
"208 560 LINE",
"208 256 LINE",
"30 256 LINE"
);
},
{
closed = 1;
nodes = (
"404 85 OFFCURVE",
"390 51 OFFCURVE",
"345 51 CURVE SMOOTH",
"303 51 OFFCURVE",
"282 73 OFFCURVE",
"282 143 CURVE SMOOTH",
"282 188 LINE",
"364 187 OFFCURVE",
"404 177 OFFCURVE",
"404 111 CURVE SMOOTH"
);
}
);
width = 664;
}
);
unicode = 1E8B4;
category = Letter;
},
{
glyphname = u1E8B5;
lastChange = "2021-12-15 15:11:38 +0000";
layers = (
{
layerId = UUID0;
paths = (
{
closed = 1;
nodes = (
"503 319 LINE SMOOTH",
"597 319 OFFCURVE",
"680 370 OFFCURVE",
"680 465 CURVE SMOOTH",
"680 540 OFFCURVE",
"628 597 OFFCURVE",
"540 597 CURVE SMOOTH",
"441 597 OFFCURVE",
"389 512 OFFCURVE",
"389 422 CURVE SMOOTH",
"389 409 OFFCURVE",
"390 395 OFFCURVE",
"391 383 CURVE",
"215 383 LINE SMOOTH",
"102 383 OFFCURVE",
"30 347 OFFCURVE",
"30 248 CURVE SMOOTH",
"30 183 OFFCURVE",
"63 148 OFFCURVE",
"106 130 CURVE",
"131 197 LINE",
"113 208 OFFCURVE",
"102 223 OFFCURVE",
"102 248 CURVE SMOOTH",
"102 292 OFFCURVE",
"129 319 OFFCURVE",
"213 319 CURVE SMOOTH",
"408 319 LINE",
"446 224 OFFCURVE",
"538 159 OFFCURVE",
"657 159 CURVE SMOOTH",
"793 159 OFFCURVE",
"905 258 OFFCURVE",
"921 390 CURVE",
"849 390 LINE",
"833 295 OFFCURVE",
"750 229 OFFCURVE",
"657 229 CURVE SMOOTH",
"590 229 OFFCURVE",
"528 263 OFFCURVE",
"493 319 CURVE"
);
},
{
closed = 1;
nodes = (
"466 383 LINE",
"464 395 OFFCURVE",
"463 408 OFFCURVE",
"463 422 CURVE SMOOTH",
"463 474 OFFCURVE",
"485 529 OFFCURVE",
"539 529 CURVE SMOOTH",
"574 529 OFFCURVE",
"606 504 OFFCURVE",
"606 465 CURVE SMOOTH",
"606 424 OFFCURVE",
"579 383 OFFCURVE",
"503 383 CURVE SMOOTH"
);
},
{
closed = 1;
nodes = (
"303 546 OFFCURVE",
"281 567 OFFCURVE",
"249 567 CURVE SMOOTH",
"218 567 OFFCURVE",
"196 546 OFFCURVE",
"196 513 CURVE SMOOTH",
"196 479 OFFCURVE",
"215 460 OFFCURVE",
"249 460 CURVE SMOOTH",
"281 460 OFFCURVE",
"303 479 OFFCURVE",
"303 513 CURVE SMOOTH"
);
}
);
width = 951;
}
);
unicode = 1E8B5;
category = Letter;
},
{
glyphname = u1E8B7;
lastChange = "2021-12-15 15:11:38 +0000";
layers = (
{
layerId = UUID0;
paths = (
{
closed = 1;
nodes = (
"50 487 LINE",
"50 199 LINE",
"778 199 LINE SMOOTH",
"934 199 OFFCURVE",
"986 263 OFFCURVE",
"986 348 CURVE SMOOTH",
"986 434 OFFCURVE",
"908 487 OFFCURVE",
"778 487 CURVE SMOOTH",
"585 487 LINE",
"594 504 OFFCURVE",
"600 523 OFFCURVE",
"600 544 CURVE SMOOTH",
"600 612 OFFCURVE",
"543 665 OFFCURVE",
"477 665 CURVE SMOOTH",
"410 665 OFFCURVE",
"353 612 OFFCURVE",
"353 544 CURVE SMOOTH",
"353 523 OFFCURVE",
"358 504 OFFCURVE",
"368 487 CURVE"
);
},
{
closed = 1;
nodes = (
"778 419 LINE SMOOTH",
"872 419 OFFCURVE",
"910 394 OFFCURVE",
"910 348 CURVE SMOOTH",
"910 309 OFFCURVE",
"893 267 OFFCURVE",
"778 267 CURVE SMOOTH",
"120 267 LINE",
"120 419 LINE"
);
},
{
closed = 1;
nodes = (
"419 578 OFFCURVE",
"446 602 OFFCURVE",
"477 602 CURVE SMOOTH",
"508 602 OFFCURVE",
"534 579 OFFCURVE",
"534 545 CURVE SMOOTH",
"534 512 OFFCURVE",
"508 487 OFFCURVE",
"477 487 CURVE SMOOTH",
"446 487 OFFCURVE",
"419 512 OFFCURVE",
"419 545 CURVE SMOOTH"
);
}
);
width = 1026;
}
);
unicode = 1E8B7;
category = Letter;
},
{
glyphname = u1E8B8;
lastChange = "2021-12-15 15:11:38 +0000";
layers = (
{
layerId = UUID0;
paths = (
{
closed = 1;
nodes = (
"40 199 OFFCURVE",
"113 130 OFFCURVE",
"199 130 CURVE SMOOTH",
"285 130 OFFCURVE",
"358 199 OFFCURVE",
"358 285 CURVE SMOOTH",
"358 317 OFFCURVE",
"348 347 OFFCURVE",
"330 372 CURVE",
"434 372 LINE",
"434 223 LINE",
"508 223 LINE",
"508 372 LINE",
"594 372 LINE",
"594 223 LINE",
"668 223 LINE",
"668 372 LINE",
"846 372 LINE",
"846 440 LINE",
"668 440 LINE",
"668 572 LINE",
"594 572 LINE",
"594 440 LINE",
"508 440 LINE",
"508 572 LINE",
"434 572 LINE",
"434 440 LINE",
"199 440 LINE SMOOTH",
"113 440 OFFCURVE",
"40 371 OFFCURVE",
"40 285 CURVE SMOOTH"
);
},
{
closed = 1;
nodes = (
"109 335 OFFCURVE",
"149 375 OFFCURVE",
"199 375 CURVE SMOOTH",
"249 375 OFFCURVE",
"289 335 OFFCURVE",
"289 285 CURVE SMOOTH",
"289 235 OFFCURVE",
"249 195 OFFCURVE",
"199 195 CURVE SMOOTH",
"149 195 OFFCURVE",
"109 235 OFFCURVE",
"109 285 CURVE SMOOTH"
);
}
);
width = 866;
}
);
unicode = 1E8B8;
category = Letter;
},
{
glyphname = u1E8BA;
lastChange = "2021-12-15 15:11:38 +0000";
layers = (
{
layerId = UUID0;
paths = (
{
closed = 1;
nodes = (
"60 209 OFFCURVE",
"188 85 OFFCURVE",
"343 85 CURVE SMOOTH",
"500 85 OFFCURVE",
"628 209 OFFCURVE",
"628 366 CURVE SMOOTH",
"628 439 OFFCURVE",
"599 507 OFFCURVE",
"552 557 CURVE",
"699 704 LINE",
"655 748 LINE",
"505 599 LINE",
"459 631 OFFCURVE",
"403 650 OFFCURVE",
"343 650 CURVE SMOOTH",
"188 650 OFFCURVE",
"60 522 OFFCURVE",
"60 366 CURVE SMOOTH"
);
},
{
closed = 1;
nodes = (
"136 488 OFFCURVE",
"234 580 OFFCURVE",
"343 580 CURVE SMOOTH",
"454 580 OFFCURVE",
"552 488 OFFCURVE",
"552 366 CURVE SMOOTH",
"552 246 OFFCURVE",
"454 155 OFFCURVE",
"343 155 CURVE SMOOTH",
"234 155 OFFCURVE",
"136 246 OFFCURVE",
"136 366 CURVE SMOOTH"
);
},
{
closed = 1;
nodes = (
"221 301 OFFCURVE",
"278 248 OFFCURVE",
"345 248 CURVE SMOOTH",
"411 248 OFFCURVE",
"468 301 OFFCURVE",
"468 368 CURVE SMOOTH",
"468 436 OFFCURVE",
"411 489 OFFCURVE",
"345 489 CURVE SMOOTH",
"278 489 OFFCURVE",
"221 436 OFFCURVE",
"221 368 CURVE SMOOTH"
);
},
{
closed = 1;
nodes = (
"287 402 OFFCURVE",
"314 426 OFFCURVE",
"345 426 CURVE SMOOTH",
"376 426 OFFCURVE",
"402 403 OFFCURVE",
"402 369 CURVE SMOOTH",
"402 336 OFFCURVE",
"376 311 OFFCURVE",
"345 311 CURVE SMOOTH",
"314 311 OFFCURVE",
"287 336 OFFCURVE",
"287 369 CURVE SMOOTH"
);
},
{
closed = 1;
nodes = (
"397 786 OFFCURVE",
"375 807 OFFCURVE",
"343 807 CURVE SMOOTH",
"312 807 OFFCURVE",
"290 786 OFFCURVE",
"290 753 CURVE SMOOTH",
"290 719 OFFCURVE",
"309 700 OFFCURVE",
"343 700 CURVE SMOOTH",
"375 700 OFFCURVE",
"397 719 OFFCURVE",
"397 753 CURVE SMOOTH"
);
}
);
width = 688;
}
);
unicode = 1E8BA;
category = Letter;
},
{
glyphname = u1E8BB;
lastChange = "2021-12-15 15:11:38 +0000";
layers = (
{
layerId = UUID0;
paths = (
{
closed = 1;
nodes = (
"60 91 OFFCURVE",
"164 -12 OFFCURVE",
"293 -12 CURVE SMOOTH",
"402 -12 OFFCURVE",
"494 63 OFFCURVE",
"519 165 CURVE",
"624 187 OFFCURVE",
"703 279 OFFCURVE",
"703 391 CURVE SMOOTH",
"703 445 OFFCURVE",
"685 495 OFFCURVE",
"654 535 CURVE",
"797 679 LINE",
"749 723 LINE",
"606 580 LINE",
"568 608 OFFCURVE",
"521 624 OFFCURVE",
"471 624 CURVE SMOOTH",
"361 624 OFFCURVE",
"270 548 OFFCURVE",
"245 447 CURVE",
"139 425 OFFCURVE",
"60 331 OFFCURVE",
"60 219 CURVE SMOOTH"
);
},
{
closed = 1;
nodes = (
"560 558 OFFCURVE",
"632 489 OFFCURVE",
"632 390 CURVE SMOOTH",
"632 314 OFFCURVE",
"587 256 OFFCURVE",
"524 235 CURVE",
"517 347 OFFCURVE",
"429 438 OFFCURVE",
"319 450 CURVE",
"342 516 OFFCURVE",
"403 558 OFFCURVE",
"471 558 CURVE SMOOTH"
);
},
{
closed = 1;
nodes = (
"131 295 OFFCURVE",
"177 354 OFFCURVE",
"238 376 CURVE",
"245 264 OFFCURVE",
"333 174 OFFCURVE",
"445 161 CURVE",
"423 96 OFFCURVE",
"363 54 OFFCURVE",
"293 54 CURVE SMOOTH",
"206 54 OFFCURVE",
"131 122 OFFCURVE",
"131 218 CURVE SMOOTH"
);
},
{
closed = 1;
nodes = (
"388 378 OFFCURVE",
"450 315 OFFCURVE",
"454 227 CURVE",
"376 235 OFFCURVE",
"311 298 OFFCURVE",
"309 385 CURVE"
);
}
);
width = 817;
}
);
unicode = 1E8BB;
category = Letter;
},
{
glyphname = u1E8BD;
lastChange = "2021-12-15 15:11:38 +0000";
layers = (
{
layerId = UUID0;
paths = (
{
closed = 1;
nodes = (
"287 585 LINE",
"193 491 LINE",
"62 614 LINE",
"20 567 LINE",
"146 444 LINE",
"51 349 LINE",
"95 305 LINE",
"191 401 LINE",
"319 277 LINE",
"343 277 LINE",
"536 528 LINE",
"734 336 LINE",
"726 320 OFFCURVE",
"722 302 OFFCURVE",
"722 284 CURVE SMOOTH",
"722 217 OFFCURVE",
"779 164 OFFCURVE",
"845 164 CURVE SMOOTH",
"912 164 OFFCURVE",
"969 217 OFFCURVE",
"969 284 CURVE SMOOTH",
"969 352 OFFCURVE",
"912 405 OFFCURVE",
"845 405 CURVE SMOOTH",
"821 405 OFFCURVE",
"799 398 OFFCURVE",
"780 386 CURVE",
"546 612 LINE",
"518 612 LINE",
"329 364 LINE",
"238 448 LINE",
"332 542 LINE"
);
},
{
closed = 1;
nodes = (
"903 252 OFFCURVE",
"876 227 OFFCURVE",
"845 227 CURVE SMOOTH",
"814 227 OFFCURVE",
"788 252 OFFCURVE",
"788 285 CURVE SMOOTH",
"788 319 OFFCURVE",
"814 342 OFFCURVE",
"845 342 CURVE SMOOTH",
"876 342 OFFCURVE",
"903 318 OFFCURVE",
"903 285 CURVE SMOOTH"
);
}
);
width = 989;
}
);
unicode = 1E8BD;
category = Letter;
},
{
glyphname = u1E8BE;
lastChange = "2021-12-15 15:11:38 +0000";
layers = (
{
layerId = UUID0;
paths = (
{
closed = 1;
nodes = (
"69 375 LINE",
"311 610 LINE",
"311 0 LINE",
"385 0 LINE",
"385 608 LINE",
"627 375 LINE",
"675 424 LINE",
"375 714 LINE",
"321 714 LINE",
"20 425 LINE"
);
},
{
closed = 1;
nodes = (
"251 246 OFFCURVE",
"229 267 OFFCURVE",
"197 267 CURVE SMOOTH",
"166 267 OFFCURVE",
"144 246 OFFCURVE",
"144 213 CURVE SMOOTH",
"144 179 OFFCURVE",
"163 160 OFFCURVE",
"197 160 CURVE SMOOTH",
"229 160 OFFCURVE",
"251 179 OFFCURVE",
"251 213 CURVE SMOOTH"
);
},
{
closed = 1;
nodes = (
"551 246 OFFCURVE",
"529 267 OFFCURVE",
"497 267 CURVE SMOOTH",
"466 267 OFFCURVE",
"444 246 OFFCURVE",
"444 213 CURVE SMOOTH",
"444 179 OFFCURVE",
"463 160 OFFCURVE",
"497 160 CURVE SMOOTH",
"529 160 OFFCURVE",
"551 179 OFFCURVE",
"551 213 CURVE SMOOTH"
);
}
);
width = 695;
}
);
unicode = 1E8BE;
category = Letter;
},
{
glyphname = u1E8BF;
lastChange = "2021-12-15 15:11:38 +0000";
layers = (
{
layerId = UUID0;
paths = (
{
closed = 1;
nodes = (
"124 -12 LINE",
"146 100 OFFCURVE",
"203 204 OFFCURVE",
"294 252 CURVE",
"302 225 LINE SMOOTH",
"330 132 OFFCURVE",
"373 101 OFFCURVE",
"445 101 CURVE SMOOTH",
"514 101 OFFCURVE",
"563 158 OFFCURVE",
"563 217 CURVE SMOOTH",
"563 296 OFFCURVE",
"508 344 OFFCURVE",
"408 344 CURVE SMOOTH",
"386 344 OFFCURVE",
"365 342 OFFCURVE",
"345 338 CURVE",
"335 387 LINE",
"461 446 OFFCURVE",
"539 584 OFFCURVE",
"556 714 CURVE",
"489 714 LINE",
"467 602 OFFCURVE",
"410 499 OFFCURVE",
"319 451 CURVE",
"311 478 LINE SMOOTH",
"283 571 OFFCURVE",
"240 602 OFFCURVE",
"168 602 CURVE SMOOTH",
"99 602 OFFCURVE",
"50 545 OFFCURVE",
"50 486 CURVE SMOOTH",
"50 407 OFFCURVE",
"105 359 OFFCURVE",
"205 359 CURVE SMOOTH",
"227 359 OFFCURVE",
"248 361 OFFCURVE",
"268 365 CURVE",
"278 316 LINE",
"152 257 OFFCURVE",
"74 118 OFFCURVE",
"57 -12 CURVE"
);
},
{
closed = 1;
nodes = (
"482 279 OFFCURVE",
"494 246 OFFCURVE",
"494 220 CURVE SMOOTH",
"494 189 OFFCURVE",
"468 166 OFFCURVE",
"445 166 CURVE SMOOTH",
"416 166 OFFCURVE",
"392 169 OFFCURVE",
"370 244 CURVE SMOOTH",
"361 275 LINE",
"376 278 OFFCURVE",
"391 279 OFFCURVE",
"406 279 CURVE SMOOTH"
);
},
{
closed = 1;
nodes = (
"131 424 OFFCURVE",
"119 457 OFFCURVE",
"119 483 CURVE SMOOTH",
"119 514 OFFCURVE",
"145 537 OFFCURVE",
"168 537 CURVE SMOOTH",
"197 537 OFFCURVE",
"221 534 OFFCURVE",
"243 459 CURVE SMOOTH",
"252 428 LINE",
"237 425 OFFCURVE",
"222 424 OFFCURVE",
"207 424 CURVE SMOOTH"
);
}
);
width = 613;
}
);
unicode = 1E8BF;
category = Letter;
},
{
glyphname = u1E8C0;
lastChange = "2021-12-15 15:11:38 +0000";
layers = (
{
layerId = UUID0;
paths = (
{
closed = 1;
nodes = (
"421 187 LINE",
"564 309 LINE",
"712 0 LINE",
"794 0 LINE",
"620 357 LINE",
"769 483 LINE",
"727 533 LINE",
"591 416 LINE",
"444 720 LINE",
"370 720 LINE",
"20 0 LINE",
"102 0 LINE",
"407 640 LINE",
"536 369 LINE",
"379 234 LINE"
);
}
);
width = 814;
}
);
unicode = 1E8C0;
category = Letter;
},
{
glyphname = u1E8C1;
lastChange = "2021-12-15 15:11:38 +0000";
layers = (
{
layerId = UUID0;
paths = (
{
closed = 1;
nodes = (
"430 448 LINE",
"430 255 LINE",
"414 255 LINE SMOOTH",
"213 255 OFFCURVE",
"124 402 OFFCURVE",
"124 609 CURVE SMOOTH",
"124 714 LINE",
"50 714 LINE",
"50 608 LINE SMOOTH",
"50 363 OFFCURVE",
"168 185 OFFCURVE",
"413 185 CURVE SMOOTH",
"430 185 LINE",
"430 0 LINE",
"504 0 LINE",
"504 185 LINE",
"722 185 LINE",
"722 255 LINE",
"504 255 LINE",
"504 448 LINE"
);
}
);
width = 742;
}
);
unicode = 1E8C1;
category = Letter;
},
{
glyphname = u1E8C2;
lastChange = "2021-12-15 15:11:38 +0000";
layers = (
{
layerId = UUID0;
paths = (
{
closed = 1;
nodes = (
"959 520 LINE",
"208 520 LINE",
"208 452 LINE",
"959 452 LINE"
);
},
{
closed = 1;
nodes = (
"959 258 LINE",
"208 258 LINE",
"208 190 LINE",
"959 190 LINE"
);
},
{
closed = 1;
nodes = (
"137 387 OFFCURVE",
"115 408 OFFCURVE",
"83 408 CURVE SMOOTH",
"52 408 OFFCURVE",
"30 387 OFFCURVE",
"30 354 CURVE SMOOTH",
"30 320 OFFCURVE",
"49 301 OFFCURVE",
"83 301 CURVE SMOOTH",
"115 301 OFFCURVE",
"137 320 OFFCURVE",
"137 354 CURVE SMOOTH"
);
}
);
width = 979;
}
);
unicode = 1E8C2;
category = Letter;
},
{
glyphname = u1E8C3;
lastChange = "2021-12-15 15:11:38 +0000";
layers = (
{
layerId = UUID0;
paths = (
{
closed = 1;
nodes = (
"624 199 LINE",
"579 146 OFFCURVE",
"493 107 OFFCURVE",
"406 107 CURVE SMOOTH",
"210 107 OFFCURVE",
"136 230 OFFCURVE",
"136 360 CURVE SMOOTH",
"136 494 OFFCURVE",
"231 608 OFFCURVE",
"403 608 CURVE SMOOTH",
"486 608 OFFCURVE",
"568 577 OFFCURVE",
"624 516 CURVE",
"663 567 LINE",
"598 637 OFFCURVE",
"500 677 OFFCURVE",
"396 677 CURVE SMOOTH",
"176 677 OFFCURVE",
"60 518 OFFCURVE",
"60 361 CURVE SMOOTH",
"60 187 OFFCURVE",
"170 38 OFFCURVE",
"405 38 CURVE SMOOTH",
"541 38 OFFCURVE",
"643 122 OFFCURVE",
"663 148 CURVE"
);
},
{
closed = 1;
nodes = (
"427 387 OFFCURVE",
"405 408 OFFCURVE",
"373 408 CURVE SMOOTH",
"342 408 OFFCURVE",
"320 387 OFFCURVE",
"320 354 CURVE SMOOTH",
"320 320 OFFCURVE",
"339 301 OFFCURVE",
"373 301 CURVE SMOOTH",
"405 301 OFFCURVE",
"427 320 OFFCURVE",
"427 354 CURVE SMOOTH"
);
}
);
width = 683;
}
);
unicode = 1E8C3;
category = Letter;
},
{
glyphname = u1E8C8;
lastChange = "2021-12-15 15:11:38 +0000";
layers = (
{
layerId = UUID0;
paths = (
{
closed = 1;
nodes = (
"654 278 LINE",
"193 278 LINE",
"646 499 LINE",
"611 562 LINE",
"50 278 LINE",
"50 210 LINE",
"654 210 LINE"
);
}
);
width = 674;
}
);
unicode = 1E8C8;
category = Letter;
},
{
glyphname = u1E8C9;
lastChange = "2021-12-15 15:11:38 +0000";
layers = (
{
layerId = UUID0;
paths = (
{
closed = 1;
nodes = (
"740 570 LINE",
"666 570 LINE",
"666 350 LINE SMOOTH",
"666 279 OFFCURVE",
"616 245 OFFCURVE",
"559 245 CURVE SMOOTH",
"503 245 OFFCURVE",
"452 277 OFFCURVE",
"452 344 CURVE SMOOTH",
"452 570 LINE",
"378 570 LINE",
"378 345 LINE SMOOTH",
"378 277 OFFCURVE",
"326 245 OFFCURVE",
"271 245 CURVE SMOOTH",
"214 245 OFFCURVE",
"164 279 OFFCURVE",
"164 350 CURVE SMOOTH",
"164 570 LINE",
"90 570 LINE",
"90 0 LINE",
"164 0 LINE",
"164 200 LINE",
"193 183 OFFCURVE",
"230 175 OFFCURVE",
"271 175 CURVE SMOOTH",
"329 175 OFFCURVE",
"379 198 OFFCURVE",
"411 235 CURVE",
"443 194 OFFCURVE",
"496 175 OFFCURVE",
"559 175 CURVE SMOOTH",
"663 175 OFFCURVE",
"740 249 OFFCURVE",
"740 345 CURVE SMOOTH"
);
}
);
width = 830;
}
);
unicode = 1E8C9;
category = Letter;
},
{
glyphname = u1E8CB;
lastChange = "2021-12-15 15:11:38 +0000";
layers = (
{
layerId = UUID0;
paths = (
{
closed = 1;
nodes = (
"60 456 OFFCURVE",
"96 394 OFFCURVE",
"151 357 CURVE",
"96 321 OFFCURVE",
"60 258 OFFCURVE",
"60 188 CURVE SMOOTH",
"60 73 OFFCURVE",
"153 -12 OFFCURVE",
"264 -12 CURVE SMOOTH",
"374 -12 OFFCURVE",
"468 73 OFFCURVE",
"468 188 CURVE SMOOTH",
"468 258 OFFCURVE",
"431 321 OFFCURVE",
"376 357 CURVE",
"431 394 OFFCURVE",
"468 457 OFFCURVE",
"468 527 CURVE SMOOTH",
"468 642 OFFCURVE",
"374 727 OFFCURVE",
"264 727 CURVE SMOOTH",
"153 727 OFFCURVE",
"60 642 OFFCURVE",
"60 527 CURVE SMOOTH"
);
},
{
closed = 1;
nodes = (
"136 266 OFFCURVE",
"195 322 OFFCURVE",
"265 322 CURVE SMOOTH",
"333 322 OFFCURVE",
"392 267 OFFCURVE",
"392 188 CURVE SMOOTH",
"392 117 OFFCURVE",
"333 58 OFFCURVE",
"265 58 CURVE SMOOTH",
"195 58 OFFCURVE",
"136 117 OFFCURVE",
"136 188 CURVE SMOOTH"
);
},
{
closed = 1;
nodes = (
"136 598 OFFCURVE",
"195 657 OFFCURVE",
"265 657 CURVE SMOOTH",
"333 657 OFFCURVE",
"392 598 OFFCURVE",
"392 527 CURVE SMOOTH",
"392 448 OFFCURVE",
"333 393 OFFCURVE",
"265 393 CURVE SMOOTH",
"195 393 OFFCURVE",
"136 449 OFFCURVE",
"136 527 CURVE SMOOTH"
);
}
);
width = 528;
}
);
unicode = 1E8CB;
category = Letter;
},
{
glyphname = u1E8CC;
lastChange = "2021-12-15 15:11:38 +0000";
layers = (
{
layerId = UUID0;
paths = (
{
closed = 1;
nodes = (
"10 666 LINE",
"192 654 OFFCURVE",
"355 526 OFFCURVE",
"428 378 CURVE",
"399 391 OFFCURVE",
"365 400 OFFCURVE",
"325 400 CURVE SMOOTH",
"178 400 OFFCURVE",
"109 301 OFFCURVE",
"109 191 CURVE SMOOTH",
"109 100 OFFCURVE",
"168 -4 OFFCURVE",
"325 -4 CURVE SMOOTH",
"482 -4 OFFCURVE",
"540 107 OFFCURVE",
"540 200 CURVE SMOOTH",
"540 490 OFFCURVE",
"265 727 OFFCURVE",
"10 734 CURVE"
);
},
{
closed = 1;
nodes = (
"182 253 OFFCURVE",
"218 333 OFFCURVE",
"324 333 CURVE SMOOTH",
"432 333 OFFCURVE",
"465 263 OFFCURVE",
"465 202 CURVE SMOOTH",
"465 140 OFFCURVE",
"433 65 OFFCURVE",
"324 65 CURVE SMOOTH",
"219 65 OFFCURVE",
"182 130 OFFCURVE",
"182 192 CURVE SMOOTH"
);
}
);
width = 601;
}
);
unicode = 1E8CC;
category = Letter;
},
{
glyphname = u1E8CD;
lastChange = "2021-12-15 15:11:38 +0000";
layers = (
{
layerId = UUID0;
paths = (
{
closed = 1;
nodes = (
"10 666 LINE",
"78 661 OFFCURVE",
"144 640 OFFCURVE",
"203 608 CURVE",
"60 485 LINE",
"102 438 LINE",
"260 572 LINE",
"333 520 OFFCURVE",
"391 452 OFFCURVE",
"428 378 CURVE",
"399 391 OFFCURVE",
"365 400 OFFCURVE",
"325 400 CURVE SMOOTH",
"178 400 OFFCURVE",
"109 301 OFFCURVE",
"109 191 CURVE SMOOTH",
"109 100 OFFCURVE",
"168 -4 OFFCURVE",
"325 -4 CURVE SMOOTH",
"482 -4 OFFCURVE",
"540 107 OFFCURVE",
"540 200 CURVE SMOOTH",
"540 370 OFFCURVE",
"445 521 OFFCURVE",
"316 619 CURVE",
"422 709 LINE",
"380 759 LINE",
"260 657 LINE",
"182 704 OFFCURVE",
"95 731 OFFCURVE",
"10 734 CURVE"
);
},
{
closed = 1;
nodes = (
"182 253 OFFCURVE",
"218 333 OFFCURVE",
"324 333 CURVE SMOOTH",
"432 333 OFFCURVE",
"465 263 OFFCURVE",
"465 202 CURVE SMOOTH",
"465 140 OFFCURVE",
"433 65 OFFCURVE",
"324 65 CURVE SMOOTH",
"219 65 OFFCURVE",
"182 130 OFFCURVE",
"182 192 CURVE SMOOTH"
);
}
);
width = 601;
}
);
unicode = 1E8CD;
category = Letter;
},
{
glyphname = u1E8CE;
lastChange = "2021-12-15 15:11:38 +0000";
layers = (
{
layerId = UUID0;
paths = (
{
closed = 1;
nodes = (
"130 666 LINE",
"316 650 OFFCURVE",
"564 486 OFFCURVE",
"564 266 CURVE SMOOTH",
"564 165 OFFCURVE",
"496 58 OFFCURVE",
"319 58 CURVE SMOOTH",
"222 58 OFFCURVE",
"136 95 OFFCURVE",
"136 171 CURVE SMOOTH",
"136 231 OFFCURVE",
"169 269 OFFCURVE",
"248 269 CURVE SMOOTH",
"338 269 OFFCURVE",
"364 222 OFFCURVE",
"364 163 CURVE",
"437 163 LINE",
"437 246 OFFCURVE",
"383 337 OFFCURVE",
"247 337 CURVE SMOOTH",
"112 337 OFFCURVE",
"60 254 OFFCURVE",
"60 171 CURVE SMOOTH",
"60 86 OFFCURVE",
"141 -12 OFFCURVE",
"316 -12 CURVE SMOOTH",
"547 -12 OFFCURVE",
"639 144 OFFCURVE",
"639 269 CURVE SMOOTH",
"639 503 OFFCURVE",
"395 715 OFFCURVE",
"130 730 CURVE"
);
},
{
closed = 1;
nodes = (
"288 481 OFFCURVE",
"266 502 OFFCURVE",
"234 502 CURVE SMOOTH",
"203 502 OFFCURVE",
"181 481 OFFCURVE",
"181 448 CURVE SMOOTH",
"181 414 OFFCURVE",
"200 395 OFFCURVE",
"234 395 CURVE SMOOTH",
"266 395 OFFCURVE",
"288 414 OFFCURVE",
"288 448 CURVE SMOOTH"
);
}
);
width = 699;
}
);
unicode = 1E8CE;
category = Letter;
},
{
glyphname = u1E8D0;
lastChange = "2017-10-24 18:47:33 +0000";
layers = (
{
anchors = (
{
name = _Anchor3;
position = "{280, 0}";
}
);
layerId = UUID0;
paths = (
{
closed = 1;
nodes = (
"578 407 LINE",
"0 44 LINE",
"36 -12 LINE",
"614 352 LINE"
);
}
);
width = 0;
}
);
unicode = 1E8D0;
category = Mark;
subCategory = Nonspacing;
},
{
glyphname = u1E8D1;
lastChange = "2017-10-24 18:47:33 +0000";
layers = (
{
anchors = (
{
name = _Anchor3;
position = "{255, 0}";
}
);
layerId = UUID0;
paths = (
{
closed = 1;
nodes = (
"111 -91 LINE",
"158 -120 LINE",
"304 69 LINE",
"304 -110 LINE",
"368 -110 LINE",
"368 152 LINE",
"544 381 LINE",
"497 410 LINE",
"368 243 LINE",
"368 400 LINE",
"248 400 LINE SMOOTH",
"137 400 OFFCURVE",
"50 362 OFFCURVE",
"50 265 CURVE SMOOTH",
"50 182 OFFCURVE",
"89 137 OFFCURVE",
"239 137 CURVE SMOOTH",
"286 137 LINE"
);
},
{
closed = 1;
nodes = (
"116 324 OFFCURVE",
"176 343 OFFCURVE",
"256 343 CURVE SMOOTH",
"304 343 LINE",
"304 195 LINE",
"248 195 LINE SMOOTH",
"136 195 OFFCURVE",
"116 219 OFFCURVE",
"116 265 CURVE SMOOTH"
);
}
);
width = 0;
}
);
unicode = 1E8D1;
category = Mark;
subCategory = Nonspacing;
},
{
glyphname = u1E8D2;
lastChange = "2017-10-24 18:47:33 +0000";
layers = (
{
anchors = (
{
name = _Anchor3;
position = "{325, 0}";
}
);
layerId = UUID0;
paths = (
{
closed = 1;
nodes = (
"295 213 LINE",
"295 37 LINE SMOOTH",
"295 -30 OFFCURVE",
"258 -62 OFFCURVE",
"204 -62 CURVE SMOOTH",
"150 -62 OFFCURVE",
"114 -30 OFFCURVE",
"114 37 CURVE SMOOTH",
"114 43 LINE",
"50 43 LINE",
"50 33 LINE SMOOTH",
"50 -58 OFFCURVE",
"106 -120 OFFCURVE",
"204 -120 CURVE SMOOTH",
"302 -120 OFFCURVE",
"359 -58 OFFCURVE",
"359 33 CURVE SMOOTH",
"359 213 LINE"
);
},
{
closed = 1;
nodes = (
"285 251 LINE",
"285 400 LINE",
"227 400 LINE",
"227 251 LINE"
);
},
{
closed = 1;
nodes = (
"427 251 LINE",
"427 400 LINE",
"369 400 LINE",
"369 251 LINE"
);
}
);
width = 0;
}
);
unicode = 1E8D2;
category = Mark;
subCategory = Nonspacing;
},
{
glyphname = u1E8D3;
lastChange = "2017-10-24 18:47:33 +0000";
layers = (
{
anchors = (
{
name = _Anchor3;
position = "{325, 0}";
}
);
layerId = UUID0;
paths = (
{
closed = 1;
nodes = (
"295 213 LINE",
"295 37 LINE SMOOTH",
"295 -30 OFFCURVE",
"258 -62 OFFCURVE",
"204 -62 CURVE SMOOTH",
"150 -62 OFFCURVE",
"114 -30 OFFCURVE",
"114 37 CURVE SMOOTH",
"114 43 LINE",
"50 43 LINE",
"50 33 LINE SMOOTH",
"50 -58 OFFCURVE",
"106 -120 OFFCURVE",
"204 -120 CURVE SMOOTH",
"302 -120 OFFCURVE",
"359 -58 OFFCURVE",
"359 33 CURVE SMOOTH",
"359 213 LINE"
);
},
{
closed = 1;
nodes = (
"238 251 LINE",
"238 400 LINE",
"180 400 LINE",
"180 251 LINE"
);
},
{
closed = 1;
nodes = (
"474 251 LINE",
"474 400 LINE",
"416 400 LINE",
"416 251 LINE"
);
},
{
closed = 1;
nodes = (
"356 251 LINE",
"356 400 LINE",
"298 400 LINE",
"298 251 LINE"
);
}
);
width = 0;
}
);
unicode = 1E8D3;
category = Mark;
subCategory = Nonspacing;
},
{
glyphname = u1E8D4;
lastChange = "2017-10-24 18:47:33 +0000";
layers = (
{
anchors = (
{
name = _Anchor3;
position = "{325, 0}";
}
);
layerId = UUID0;
paths = (
{
closed = 1;
nodes = (
"295 213 LINE",
"295 37 LINE SMOOTH",
"295 -30 OFFCURVE",
"258 -62 OFFCURVE",
"204 -62 CURVE SMOOTH",
"150 -62 OFFCURVE",
"114 -30 OFFCURVE",
"114 37 CURVE SMOOTH",
"114 43 LINE",
"50 43 LINE",
"50 33 LINE SMOOTH",
"50 -58 OFFCURVE",
"106 -120 OFFCURVE",
"204 -120 CURVE SMOOTH",
"302 -120 OFFCURVE",
"359 -58 OFFCURVE",
"359 33 CURVE SMOOTH",
"359 213 LINE"
);
},
{
closed = 1;
nodes = (
"295 251 LINE",
"295 400 LINE",
"237 400 LINE",
"237 251 LINE"
);
},
{
closed = 1;
nodes = (
"417 251 LINE",
"417 400 LINE",
"359 400 LINE",
"359 251 LINE"
);
},
{
closed = 1;
nodes = (
"175 251 LINE",
"175 400 LINE",
"117 400 LINE",
"117 251 LINE"
);
},
{
closed = 1;
nodes = (
"537 251 LINE",
"537 400 LINE",
"479 400 LINE",
"479 251 LINE"
);
}
);
width = 0;
}
);
unicode = 1E8D4;
category = Mark;
subCategory = Nonspacing;
},
{
glyphname = u1E8D5;
lastChange = "2017-10-24 18:47:33 +0000";
layers = (
{
anchors = (
{
name = _Anchor3;
position = "{325, 0}";
}
);
layerId = UUID0;
paths = (
{
closed = 1;
nodes = (
"295 213 LINE",
"295 37 LINE SMOOTH",
"295 -30 OFFCURVE",
"258 -62 OFFCURVE",
"204 -62 CURVE SMOOTH",
"150 -62 OFFCURVE",
"114 -30 OFFCURVE",
"114 37 CURVE SMOOTH",
"114 43 LINE",
"50 43 LINE",
"50 33 LINE SMOOTH",
"50 -58 OFFCURVE",
"106 -120 OFFCURVE",
"204 -120 CURVE SMOOTH",
"302 -120 OFFCURVE",
"359 -58 OFFCURVE",
"359 33 CURVE SMOOTH",
"359 213 LINE"
);
},
{
closed = 1;
nodes = (
"237 251 LINE",
"237 400 LINE",
"179 400 LINE",
"179 251 LINE"
);
},
{
closed = 1;
nodes = (
"475 251 LINE",
"475 400 LINE",
"417 400 LINE",
"417 251 LINE"
);
},
{
closed = 1;
nodes = (
"356 251 LINE",
"356 400 LINE",
"298 400 LINE",
"298 251 LINE"
);
},
{
closed = 1;
nodes = (
"595 251 LINE",
"595 400 LINE",
"537 400 LINE",
"537 251 LINE"
);
},
{
closed = 1;
nodes = (
"117 251 LINE",
"117 400 LINE",
"59 400 LINE",
"59 251 LINE"
);
}
);
width = 0;
}
);
unicode = 1E8D5;
category = Mark;
subCategory = Nonspacing;
},
{
glyphname = u1E8D6;
lastChange = "2017-10-24 18:47:33 +0000";
layers = (
{
anchors = (
{
name = _Anchor3;
position = "{380, 0}";
}
);
layerId = UUID0;
paths = (
{
closed = 1;
nodes = (
"348 213 LINE",
"348 37 LINE SMOOTH",
"348 -30 OFFCURVE",
"311 -62 OFFCURVE",
"257 -62 CURVE SMOOTH",
"203 -62 OFFCURVE",
"167 -30 OFFCURVE",
"167 37 CURVE SMOOTH",
"167 43 LINE",
"103 43 LINE",
"103 33 LINE SMOOTH",
"103 -58 OFFCURVE",
"159 -120 OFFCURVE",
"257 -120 CURVE SMOOTH",
"355 -120 OFFCURVE",
"412 -58 OFFCURVE",
"412 33 CURVE SMOOTH",
"412 213 LINE"
);
},
{
closed = 1;
nodes = (
"348 251 LINE",
"348 400 LINE",
"290 400 LINE",
"290 251 LINE"
);
},
{
closed = 1;
nodes = (
"470 251 LINE",
"470 400 LINE",
"412 400 LINE",
"412 251 LINE"
);
},
{
closed = 1;
nodes = (
"228 251 LINE",
"228 400 LINE",
"170 400 LINE",
"170 251 LINE"
);
},
{
closed = 1;
nodes = (
"590 251 LINE",
"590 400 LINE",
"532 400 LINE",
"532 251 LINE"
);
},
{
closed = 1;
nodes = (
"710 251 LINE",
"710 400 LINE",
"652 400 LINE",
"652 251 LINE"
);
},
{
closed = 1;
nodes = (
"108 251 LINE",
"108 400 LINE",
"50 400 LINE",
"50 251 LINE"
);
}
);
width = 0;
}
);
unicode = 1E8D6;
category = Mark;
subCategory = Nonspacing;
},
{
glyphname = u1E8CA.alt;
lastChange = "2017-10-24 18:47:33 +0000";
layers = (
{
anchors = (
{
name = Anchor3;
position = "{220, 0}";
}
);
layerId = UUID0;
paths = (
{
closed = 1;
nodes = (
"39 745 LINE",
"39 612 LINE",
"333 612 LINE",
"48 481 LINE",
"73 432 LINE",
"411 600 LINE",
"411 664 LINE",
"97 664 LINE",
"97 745 LINE"
);
},
{
closed = 1;
nodes = (
"261 747 OFFCURVE",
"246 761 OFFCURVE",
"226 761 CURVE SMOOTH",
"205 761 OFFCURVE",
"191 747 OFFCURVE",
"191 725 CURVE SMOOTH",
"191 703 OFFCURVE",
"203 691 OFFCURVE",
"226 691 CURVE SMOOTH",
"246 691 OFFCURVE",
"261 703 OFFCURVE",
"261 725 CURVE SMOOTH"
);
}
);
width = 450;
}
);
},
{
glyphname = u1E8CB.alt;
lastChange = "2017-10-24 18:47:33 +0000";
layers = (
{
anchors = (
{
name = Anchor3;
position = "{220, 0}";
}
);
layerId = UUID0;
paths = (
{
closed = 1;
nodes = (
"107 692 OFFCURVE",
"124 661 OFFCURVE",
"149 640 CURVE",
"124 620 OFFCURVE",
"107 588 OFFCURVE",
"107 553 CURVE SMOOTH",
"107 486 OFFCURVE",
"161 440 OFFCURVE",
"224 440 CURVE SMOOTH",
"288 440 OFFCURVE",
"342 486 OFFCURVE",
"342 553 CURVE SMOOTH",
"342 588 OFFCURVE",
"325 620 OFFCURVE",
"299 640 CURVE",
"325 661 OFFCURVE",
"342 692 OFFCURVE",
"342 728 CURVE SMOOTH",
"342 795 OFFCURVE",
"288 840 OFFCURVE",
"224 840 CURVE SMOOTH",
"161 840 OFFCURVE",
"107 795 OFFCURVE",
"107 728 CURVE SMOOTH"
);
},
{
closed = 1;
nodes = (
"165 588 OFFCURVE",
"192 614 OFFCURVE",
"225 614 CURVE SMOOTH",
"256 614 OFFCURVE",
"285 589 OFFCURVE",
"285 553 CURVE SMOOTH",
"285 520 OFFCURVE",
"256 494 OFFCURVE",
"225 494 CURVE SMOOTH",
"192 494 OFFCURVE",
"165 520 OFFCURVE",
"165 553 CURVE SMOOTH"
);
},
{
closed = 1;
nodes = (
"165 761 OFFCURVE",
"192 786 OFFCURVE",
"225 786 CURVE SMOOTH",
"256 786 OFFCURVE",
"285 761 OFFCURVE",
"285 728 CURVE SMOOTH",
"285 694 OFFCURVE",
"257 667 OFFCURVE",
"225 667 CURVE SMOOTH",
"190 667 OFFCURVE",
"165 694 OFFCURVE",
"165 728 CURVE SMOOTH"
);
}
);
width = 450;
}
);
},
{
glyphname = u1E8CC.alt;
lastChange = "2017-10-24 18:47:33 +0000";
layers = (
{
anchors = (
{
name = Anchor3;
position = "{260, 0}";
}
);
layerId = UUID0;
paths = (
{
closed = 1;
nodes = (
"80 797 LINE",
"163 792 OFFCURVE",
"237 737 OFFCURVE",
"279 673 CURVE",
"269 675 OFFCURVE",
"258 677 OFFCURVE",
"247 677 CURVE SMOOTH",
"179 677 OFFCURVE",
"125 622 OFFCURVE",
"125 558 CURVE SMOOTH",
"125 491 OFFCURVE",
"179 440 OFFCURVE",
"247 440 CURVE SMOOTH",
"316 440 OFFCURVE",
"370 491 OFFCURVE",
"370 558 CURVE SMOOTH",
"370 563 LINE SMOOTH",
"370 716 OFFCURVE",
"219 846 OFFCURVE",
"80 850 CURVE"
);
},
{
closed = 1;
nodes = (
"183 593 OFFCURVE",
"210 624 OFFCURVE",
"248 624 CURVE SMOOTH",
"284 624 OFFCURVE",
"313 594 OFFCURVE",
"313 558 CURVE SMOOTH",
"313 525 OFFCURVE",
"284 494 OFFCURVE",
"248 494 CURVE SMOOTH",
"211 494 OFFCURVE",
"183 525 OFFCURVE",
"183 558 CURVE SMOOTH"
);
}
);
width = 450;
}
);
},
{
glyphname = u1E8CD.alt;
lastChange = "2017-10-24 18:47:33 +0000";
layers = (
{
anchors = (
{
name = Anchor3;
position = "{260, 0}";
}
);
layerId = UUID0;
paths = (
{
closed = 1;
nodes = (
"80 797 LINE",
"110 795 OFFCURVE",
"140 786 OFFCURVE",
"167 773 CURVE",
"103 720 LINE",
"134 686 LINE",
"208 747 LINE",
"237 726 OFFCURVE",
"261 700 OFFCURVE",
"279 673 CURVE",
"269 675 OFFCURVE",
"258 677 OFFCURVE",
"247 677 CURVE SMOOTH",
"179 677 OFFCURVE",
"125 622 OFFCURVE",
"125 558 CURVE SMOOTH",
"125 491 OFFCURVE",
"179 440 OFFCURVE",
"247 440 CURVE SMOOTH",
"316 440 OFFCURVE",
"370 491 OFFCURVE",
"370 558 CURVE SMOOTH",
"370 563 LINE SMOOTH",
"370 650 OFFCURVE",
"320 730 OFFCURVE",
"252 783 CURVE",
"291 816 LINE",
"259 848 LINE",
"212 810 LINE",
"170 834 OFFCURVE",
"125 848 OFFCURVE",
"80 850 CURVE"
);
},
{
closed = 1;
nodes = (
"183 593 OFFCURVE",
"210 624 OFFCURVE",
"248 624 CURVE SMOOTH",
"284 624 OFFCURVE",
"313 594 OFFCURVE",
"313 558 CURVE SMOOTH",
"313 525 OFFCURVE",
"284 494 OFFCURVE",
"248 494 CURVE SMOOTH",
"211 494 OFFCURVE",
"183 525 OFFCURVE",
"183 558 CURVE SMOOTH"
);
}
);
width = 450;
}
);
},
{
glyphname = u1E8CE.alt;
lastChange = "2017-10-24 18:47:33 +0000";
layers = (
{
anchors = (
{
name = Anchor3;
position = "{220, 0}";
}
);
layerId = UUID0;
paths = (
{
closed = 1;
nodes = (
"93 794 LINE",
"210 788 OFFCURVE",
"329 709 OFFCURVE",
"329 597 CURVE SMOOTH",
"329 549 OFFCURVE",
"294 494 OFFCURVE",
"207 494 CURVE SMOOTH",
"161 494 OFFCURVE",
"122 513 OFFCURVE",
"122 547 CURVE SMOOTH",
"122 573 OFFCURVE",
"137 590 OFFCURVE",
"171 590 CURVE SMOOTH",
"212 590 OFFCURVE",
"223 568 OFFCURVE",
"223 543 CURVE",
"278 543 LINE",
"278 591 OFFCURVE",
"247 644 OFFCURVE",
"171 644 CURVE SMOOTH",
"100 644 OFFCURVE",
"64 596 OFFCURVE",
"64 547 CURVE SMOOTH",
"64 497 OFFCURVE",
"109 440 OFFCURVE",
"208 440 CURVE SMOOTH",
"337 440 OFFCURVE",
"386 529 OFFCURVE",
"386 599 CURVE SMOOTH",
"386 728 OFFCURVE",
"238 841 OFFCURVE",
"93 850 CURVE"
);
},
{
closed = 1;
nodes = (
"198 724 OFFCURVE",
"183 738 OFFCURVE",
"163 738 CURVE SMOOTH",
"142 738 OFFCURVE",
"128 724 OFFCURVE",
"128 702 CURVE SMOOTH",
"128 680 OFFCURVE",
"140 668 OFFCURVE",
"163 668 CURVE SMOOTH",
"183 668 OFFCURVE",
"198 680 OFFCURVE",
"198 702 CURVE SMOOTH"
);
}
);
width = 450;
}
);
},
{
glyphname = u1E8CF.alt;
lastChange = "2017-10-24 18:47:33 +0000";
layers = (
{
anchors = (
{
name = Anchor3;
position = "{220, 0}";
}
);
layerId = UUID0;
paths = (
{
closed = 1;
nodes = (
"332 728 LINE",
"332 795 OFFCURVE",
"288 840 OFFCURVE",
"224 840 CURVE SMOOTH",
"162 840 OFFCURVE",
"117 797 OFFCURVE",
"117 733 CURVE SMOOTH",
"117 450 LINE",
"177 450 LINE",
"177 733 LINE SMOOTH",
"177 763 OFFCURVE",
"193 786 OFFCURVE",
"225 786 CURVE SMOOTH",
"256 786 OFFCURVE",
"275 761 OFFCURVE",
"275 728 CURVE"
);
},
{
closed = 1;
nodes = (
"281 649 OFFCURVE",
"266 663 OFFCURVE",
"246 663 CURVE SMOOTH",
"225 663 OFFCURVE",
"211 649 OFFCURVE",
"211 627 CURVE SMOOTH",
"211 605 OFFCURVE",
"223 593 OFFCURVE",
"246 593 CURVE SMOOTH",
"266 593 OFFCURVE",
"281 605 OFFCURVE",
"281 627 CURVE SMOOTH"
);
}
);
width = 450;
}
);
},
{
glyphname = u1E8C9.alt;
lastChange = "2017-10-24 18:47:33 +0000";
layers = (
{
anchors = (
{
name = Anchor3;
position = "{220, 0}";
}
);
layerId = UUID0;
paths = (
{
closed = 1;
nodes = (
"258 790 LINE",
"198 790 LINE",
"198 637 LINE SMOOTH",
"198 607 OFFCURVE",
"168 595 OFFCURVE",
"146 595 CURVE SMOOTH",
"123 595 OFFCURVE",
"95 609 OFFCURVE",
"95 637 CURVE SMOOTH",
"95 790 LINE",
"35 790 LINE",
"35 450 LINE",
"95 450 LINE",
"95 550 LINE",
"110 544 OFFCURVE",
"127 541 OFFCURVE",
"146 541 CURVE SMOOTH",
"176 541 OFFCURVE",
"204 556 OFFCURVE",
"224 576 CURVE",
"243 556 OFFCURVE",
"271 541 OFFCURVE",
"304 541 CURVE SMOOTH",
"366 541 OFFCURVE",
"415 585 OFFCURVE",
"415 643 CURVE SMOOTH",
"415 790 LINE",
"355 790 LINE",
"355 637 LINE SMOOTH",
"355 609 OFFCURVE",
"326 595 OFFCURVE",
"304 595 CURVE SMOOTH",
"281 595 OFFCURVE",
"258 609 OFFCURVE",
"258 637 CURVE SMOOTH"
);
}
);
width = 450;
}
);
},
{
glyphname = u1E8C8.alt;
lastChange = "2017-10-24 18:47:33 +0000";
layers = (
{
anchors = (
{
name = Anchor3;
position = "{220, 0}";
}
);
layerId = UUID0;
paths = (
{
closed = 1;
nodes = (
"411 502 LINE",
"117 502 LINE",
"402 633 LINE",
"377 682 LINE",
"39 514 LINE",
"39 450 LINE",
"411 450 LINE"
);
}
);
width = 450;
}
);
},
{
glyphname = u1E8C7.alt;
lastChange = "2017-10-24 18:47:33 +0000";
layers = (
{
anchors = (
{
name = Anchor3;
position = "{220, 0}";
}
);
layerId = UUID0;
paths = (
{
closed = 1;
nodes = (
"195 803 LINE",
"195 450 LINE",
"255 450 LINE",
"255 803 LINE"
);
}
);
width = 450;
}
);
},
{
export = 0;
glyphname = arrow;
lastChange = "2017-10-24 19:13:07 +0000";
layers = (
{
layerId = UUID0;
paths = (
{
closed = 1;
nodes = (
"40 233 LINE",
"223 139 LINE",
"246 197 LINE",
"103 264 LINE",
"246 330 LINE",
"223 386 LINE",
"40 292 LINE"
);
}
);
width = 295;
}
);
},
{
export = 0;
glyphname = horizontal;
lastChange = "2017-10-24 19:13:07 +0000";
layers = (
{
layerId = UUID0;
paths = (
{
closed = 1;
nodes = (
"437 894 LINE",
"13 894 LINE",
"13 830 LINE",
"437 830 LINE"
);
}
);
width = 450;
}
);
},
{
export = 0;
glyphname = u1E822.short;
lastChange = "2017-10-24 19:13:07 +0000";
layers = (
{
layerId = UUID0;
paths = (
{
closed = 1;
nodes = (
"100 714 LINE",
"100 40 LINE",
"174 40 LINE",
"174 714 LINE"
);
}
);
width = 274;
}
);
},
{
export = 0;
glyphname = horiz.2;
lastChange = "2017-10-24 19:13:07 +0000";
layers = (
{
layerId = UUID0;
paths = (
{
closed = 1;
nodes = (
"267 894 LINE",
"13 894 LINE",
"13 830 LINE",
"267 830 LINE"
);
}
);
width = 280;
}
);
},
{
export = 0;
glyphname = vert.2;
lastChange = "2017-10-24 19:13:07 +0000";
layers = (
{
layerId = UUID0;
paths = (
{
closed = 1;
nodes = (
"202 650 LINE",
"202 213 LINE",
"270 213 LINE",
"270 650 LINE"
);
}
);
width = 471;
}
);
},
{
export = 0;
glyphname = vertical;
lastChange = "2017-10-24 19:13:07 +0000";
layers = (
{
layerId = UUID0;
paths = (
{
closed = 1;
nodes = (
"201 650 LINE",
"201 455 LINE",
"269 455 LINE",
"269 650 LINE"
);
}
);
width = 471;
}
);
},
{
export = 0;
glyphname = horiz.1;
lastChange = "2017-10-24 19:13:07 +0000";
layers = (
{
layerId = UUID0;
paths = (
{
closed = 1;
nodes = (
"367 894 LINE",
"13 894 LINE",
"13 830 LINE",
"367 830 LINE"
);
}
);
width = 380;
}
);
},
{
export = 0;
glyphname = dot3;
lastChange = "2017-10-24 19:13:07 +0000";
layers = (
{
layerId = UUID0;
paths = (
{
closed = 1;
nodes = (
"207 495 OFFCURVE",
"185 516 OFFCURVE",
"153 516 CURVE SMOOTH",
"122 516 OFFCURVE",
"100 495 OFFCURVE",
"100 462 CURVE SMOOTH",
"100 428 OFFCURVE",
"119 409 OFFCURVE",
"153 409 CURVE SMOOTH",
"185 409 OFFCURVE",
"207 428 OFFCURVE",
"207 462 CURVE SMOOTH"
);
},
{
closed = 1;
nodes = (
"207 285 OFFCURVE",
"185 306 OFFCURVE",
"153 306 CURVE SMOOTH",
"122 306 OFFCURVE",
"100 285 OFFCURVE",
"100 252 CURVE SMOOTH",
"100 218 OFFCURVE",
"119 199 OFFCURVE",
"153 199 CURVE SMOOTH",
"185 199 OFFCURVE",
"207 218 OFFCURVE",
"207 252 CURVE SMOOTH"
);
}
);
width = 307;
}
);
},
{
export = 0;
glyphname = dot2;
lastChange = "2017-10-24 19:13:07 +0000";
layers = (
{
layerId = UUID0;
paths = (
{
closed = 1;
nodes = (
"188 856 OFFCURVE",
"166 877 OFFCURVE",
"134 877 CURVE SMOOTH",
"103 877 OFFCURVE",
"81 856 OFFCURVE",
"81 823 CURVE SMOOTH",
"81 789 OFFCURVE",
"100 770 OFFCURVE",
"134 770 CURVE SMOOTH",
"166 770 OFFCURVE",
"188 789 OFFCURVE",
"188 823 CURVE SMOOTH"
);
},
{
closed = 1;
nodes = (
"369 856 OFFCURVE",
"346 877 OFFCURVE",
"315 877 CURVE SMOOTH",
"284 877 OFFCURVE",
"262 856 OFFCURVE",
"262 823 CURVE SMOOTH",
"262 789 OFFCURVE",
"281 770 OFFCURVE",
"315 770 CURVE SMOOTH",
"347 770 OFFCURVE",
"369 789 OFFCURVE",
"369 823 CURVE SMOOTH"
);
}
);
width = 450;
}
);
},
{
export = 0;
glyphname = dot1;
lastChange = "2017-10-24 19:13:07 +0000";
layers = (
{
layerId = UUID0;
paths = (
{
closed = 1;
nodes = (
"278 856 OFFCURVE",
"256 877 OFFCURVE",
"224 877 CURVE SMOOTH",
"193 877 OFFCURVE",
"171 856 OFFCURVE",
"171 823 CURVE SMOOTH",
"171 789 OFFCURVE",
"190 770 OFFCURVE",
"224 770 CURVE SMOOTH",
"256 770 OFFCURVE",
"278 789 OFFCURVE",
"278 823 CURVE SMOOTH"
);
}
);
width = 450;
}
);
},
{
glyphname = uni25CC;
lastChange = "2017-10-24 18:47:33 +0000";
layers = (
{
layerId = UUID0;
paths = (
{
closed = 1;
nodes = (
"199 522 OFFCURVE",
"187 510 OFFCURVE",
"187 496 CURVE SMOOTH",
"187 482 OFFCURVE",
"199 470 OFFCURVE",
"213 470 CURVE SMOOTH",
"227 470 OFFCURVE",
"239 482 OFFCURVE",
"239 496 CURVE SMOOTH",
"239 510 OFFCURVE",
"227 522 OFFCURVE",
"213 522 CURVE SMOOTH"
);
},
{
closed = 1;
nodes = (
"367 522 OFFCURVE",
"355 510 OFFCURVE",
"355 496 CURVE SMOOTH",
"355 482 OFFCURVE",
"367 470 OFFCURVE",
"381 470 CURVE SMOOTH",
"395 470 OFFCURVE",
"407 482 OFFCURVE",
"407 496 CURVE SMOOTH",
"407 510 OFFCURVE",
"395 522 OFFCURVE",
"381 522 CURVE SMOOTH"
);
},
{
closed = 1;
nodes = (
"199 112 OFFCURVE",
"187 100 OFFCURVE",
"187 86 CURVE SMOOTH",
"187 72 OFFCURVE",
"199 60 OFFCURVE",
"213 60 CURVE SMOOTH",
"227 60 OFFCURVE",
"239 72 OFFCURVE",
"239 86 CURVE SMOOTH",
"239 100 OFFCURVE",
"227 112 OFFCURVE",
"213 112 CURVE SMOOTH"
);
},
{
closed = 1;
nodes = (
"367 112 OFFCURVE",
"355 100 OFFCURVE",
"355 86 CURVE SMOOTH",
"355 72 OFFCURVE",
"367 60 OFFCURVE",
"381 60 CURVE SMOOTH",
"395 60 OFFCURVE",
"407 72 OFFCURVE",
"407 86 CURVE SMOOTH",
"407 100 OFFCURVE",
"395 112 OFFCURVE",
"381 112 CURVE SMOOTH"
);
},
{
closed = 1;
nodes = (
"283 540 OFFCURVE",
"271 528 OFFCURVE",
"271 514 CURVE SMOOTH",
"271 500 OFFCURVE",
"283 488 OFFCURVE",
"297 488 CURVE SMOOTH",
"311 488 OFFCURVE",
"323 500 OFFCURVE",
"323 514 CURVE SMOOTH",
"323 528 OFFCURVE",
"311 540 OFFCURVE",
"297 540 CURVE SMOOTH"
);
},
{
closed = 1;
nodes = (
"283 94 OFFCURVE",
"271 82 OFFCURVE",
"271 68 CURVE SMOOTH",
"271 54 OFFCURVE",
"283 42 OFFCURVE",
"297 42 CURVE SMOOTH",
"311 42 OFFCURVE",
"323 54 OFFCURVE",
"323 68 CURVE SMOOTH",
"323 82 OFFCURVE",
"311 94 OFFCURVE",
"297 94 CURVE SMOOTH"
);
},
{
closed = 1;
nodes = (
"48 277 OFFCURVE",
"60 265 OFFCURVE",
"74 265 CURVE SMOOTH",
"88 265 OFFCURVE",
"100 277 OFFCURVE",
"100 291 CURVE SMOOTH",
"100 305 OFFCURVE",
"88 317 OFFCURVE",
"74 317 CURVE SMOOTH",
"60 317 OFFCURVE",
"48 305 OFFCURVE",
"48 291 CURVE SMOOTH"
);
},
{
closed = 1;
nodes = (
"494 277 OFFCURVE",
"506 265 OFFCURVE",
"520 265 CURVE SMOOTH",
"534 265 OFFCURVE",
"546 277 OFFCURVE",
"546 291 CURVE SMOOTH",
"546 305 OFFCURVE",
"534 317 OFFCURVE",
"520 317 CURVE SMOOTH",
"506 317 OFFCURVE",
"494 305 OFFCURVE",
"494 291 CURVE SMOOTH"
);
},
{
closed = 1;
nodes = (
"113 119 OFFCURVE",
"125 107 OFFCURVE",
"139 107 CURVE SMOOTH",
"153 107 OFFCURVE",
"165 119 OFFCURVE",
"165 133 CURVE SMOOTH",
"165 147 OFFCURVE",
"153 159 OFFCURVE",
"139 159 CURVE SMOOTH",
"125 159 OFFCURVE",
"113 147 OFFCURVE",
"113 133 CURVE SMOOTH"
);
},
{
closed = 1;
nodes = (
"113 435 OFFCURVE",
"125 423 OFFCURVE",
"139 423 CURVE SMOOTH",
"153 423 OFFCURVE",
"165 435 OFFCURVE",
"165 449 CURVE SMOOTH",
"165 463 OFFCURVE",
"153 475 OFFCURVE",
"139 475 CURVE SMOOTH",
"125 475 OFFCURVE",
"113 463 OFFCURVE",
"113 449 CURVE SMOOTH"
);
},
{
closed = 1;
nodes = (
"429 119 OFFCURVE",
"441 107 OFFCURVE",
"455 107 CURVE SMOOTH",
"469 107 OFFCURVE",
"481 119 OFFCURVE",
"481 133 CURVE SMOOTH",
"481 147 OFFCURVE",
"469 159 OFFCURVE",
"455 159 CURVE SMOOTH",
"441 159 OFFCURVE",
"429 147 OFFCURVE",
"429 133 CURVE SMOOTH"
);
},
{
closed = 1;
nodes = (
"429 435 OFFCURVE",
"441 423 OFFCURVE",
"455 423 CURVE SMOOTH",
"469 423 OFFCURVE",
"481 435 OFFCURVE",
"481 449 CURVE SMOOTH",
"481 463 OFFCURVE",
"469 475 OFFCURVE",
"455 475 CURVE SMOOTH",
"441 475 OFFCURVE",
"429 463 OFFCURVE",
"429 449 CURVE SMOOTH"
);
},
{
closed = 1;
nodes = (
"66 193 OFFCURVE",
"78 181 OFFCURVE",
"92 181 CURVE SMOOTH",
"106 181 OFFCURVE",
"118 193 OFFCURVE",
"118 207 CURVE SMOOTH",
"118 221 OFFCURVE",
"106 233 OFFCURVE",
"92 233 CURVE SMOOTH",
"78 233 OFFCURVE",
"66 221 OFFCURVE",
"66 207 CURVE SMOOTH"
);
},
{
closed = 1;
nodes = (
"66 361 OFFCURVE",
"78 349 OFFCURVE",
"92 349 CURVE SMOOTH",
"106 349 OFFCURVE",
"118 361 OFFCURVE",
"118 375 CURVE SMOOTH",
"118 389 OFFCURVE",
"106 401 OFFCURVE",
"92 401 CURVE SMOOTH",
"78 401 OFFCURVE",
"66 389 OFFCURVE",
"66 375 CURVE SMOOTH"
);
},
{
closed = 1;
nodes = (
"476 193 OFFCURVE",
"488 181 OFFCURVE",
"502 181 CURVE SMOOTH",
"516 181 OFFCURVE",
"528 193 OFFCURVE",
"528 207 CURVE SMOOTH",
"528 221 OFFCURVE",
"516 233 OFFCURVE",
"502 233 CURVE SMOOTH",
"488 233 OFFCURVE",
"476 221 OFFCURVE",
"476 207 CURVE SMOOTH"
);
},
{
closed = 1;
nodes = (
"476 361 OFFCURVE",
"488 349 OFFCURVE",
"502 349 CURVE SMOOTH",
"516 349 OFFCURVE",
"528 361 OFFCURVE",
"528 375 CURVE SMOOTH",
"528 389 OFFCURVE",
"516 401 OFFCURVE",
"502 401 CURVE SMOOTH",
"488 401 OFFCURVE",
"476 389 OFFCURVE",
"476 375 CURVE SMOOTH"
);
}
